<svg xmlns="http://www.w3.org/2000/svg" viewBox="0 0 1920 1080" width="1920" height="1080" preserveAspectRatio="xMidYMid slice">
<defs><linearGradient id="g" x1="0" y1="0" x2="0.4" y2="1"><stop offset="0" stop-color="#0F3D2E"/><stop offset="1" stop-color="#0A2A20"/></linearGradient>
<radialGradient id="v" cx="0.5" cy="0.35" r="0.8"><stop offset="0.5" stop-color="#000" stop-opacity="0"/><stop offset="1" stop-color="#000" stop-opacity="0.18"/></radialGradient></defs>
<rect width="1920" height="1080" fill="url(#g)"/><path d="M407 -30 Q428 12 441 33 Q453 54 465 75 Q477 96 486 117 Q494 138 498 159 Q502 181 499 202 Q497 223 489 244 Q481 265 468 286 Q456 307 441 328 Q427 349 413 370 Q400 391 390 412 Q381 434 377 455 Q374 476 377 497 Q380 518 390 539 Q400 560 415 581 Q429 602 446 623 Q462 644 477 665 Q492 687 502 708 Q513 729 516 750 Q519 771 515 792 Q510 813 499 834 Q487 855 470 876 Q454 897 435 918 Q417 940 401 961 Q384 982 373 1003 Q362 1024 359 1045 Q356 1066 362 1087 Q368 1108 381 1129" stroke="#8f7a52" stroke-width="2.01" stroke-opacity="0.35" fill="none" stroke-linecap="round"/><path d="M654 -20 Q665 21 672 42 Q679 62 687 83 Q696 104 704 125 Q713 145 721 166 Q728 187 734 207 Q740 228 744 249 Q747 269 748 290 Q748 311 746 332 Q743 352 737 373 Q731 394 723 414 Q714 435 705 456 Q695 477 684 497 Q674 518 664 539 Q655 559 647 580 Q639 601 634 621 Q630 642 628 663 Q627 684 629 704 Q632 725 638 746 Q644 766 653 787 Q662 808 674 828 Q685 849 697 870 Q709 891 721 911 Q732 932 742 953 Q751 973 758 994 Q764 1015 767 1035 Q770 1056 768 1077 Q766 1098 760 1118" stroke="#8f7a52" stroke-width="1.54" stroke-opacity="0.36" fill="none" stroke-linecap="round"/><path d="M1049 -43 Q1031 -7 1023 10 Q1015 28 1009 45 Q1003 63 1000 81 Q997 98 998 116 Q998 134 1002 151 Q1006 169 1014 187 Q1021 204 1031 222 Q1041 239 1052 257 Q1063 275 1073 292 Q1084 310 1094 328 Q1103 345 1110 363 Q1117 380 1120 398 Q1123 416 1122 433 Q1121 451 1116 469 Q1110 486 1101 504 Q1092 522 1081 539 Q1069 557 1056 574 Q1043 592 1030 610 Q1017 627 1007 645 Q996 663 988 680 Q981 698 978 716 Q975 733 976 751 Q978 768 985 786 Q992 804 1002 821 Q1013 839 1027 857 Q1040 874 1055 892 Q1070 909 1085 927" stroke="#D8C08E" stroke-width="1.99" stroke-opacity="0.78" fill="none" stroke-linecap="round"/><path d="M-52 -41 Q-34 -4 -20 15 Q-6 33 9 52 Q25 70 40 89 Q55 107 65 126 Q76 144 80 163 Q84 181 80 199 Q77 218 66 236 Q55 255 39 273 Q23 292 4 310 Q-14 329 -31 347 Q-47 366 -59 384 Q-71 403 -75 421 Q-79 440 -74 458 Q-69 477 -56 495 Q-43 513 -25 532 Q-6 550 15 569 Q35 587 54 606 Q73 624 85 643 Q98 661 102 680 Q106 698 100 717 Q94 735 79 754 Q64 772 42 790 Q21 809 -2 827 Q-25 846 -46 864 Q-66 883 -80 901 Q-93 920 -97 938 Q-100 957 -93 975" stroke="#D8C08E" stroke-width="1.60" stroke-opacity="0.33" fill="none" stroke-linecap="round"/><path d="M117 -43 Q133 -4 138 16 Q143 35 145 55 Q148 75 146 95 Q144 114 139 134 Q133 154 125 174 Q116 193 106 213 Q95 233 84 252 Q73 272 63 292 Q52 312 45 331 Q37 351 33 371 Q28 391 29 410 Q29 430 33 450 Q38 469 46 489 Q55 509 66 529 Q78 548 91 568 Q104 588 117 608 Q129 627 140 647 Q150 667 157 686 Q164 706 166 726 Q168 746 165 765 Q162 785 154 805 Q146 825 134 844 Q122 864 108 884 Q93 903 78 923 Q64 943 50 963 Q37 982 27 1002 Q17 1022 12 1042" stroke="#D8C08E" stroke-width="0.78" stroke-opacity="0.27" fill="none" stroke-linecap="round"/><path d="M11 -44 Q-6 -8 -16 10 Q-26 28 -36 46 Q-47 64 -55 81 Q-64 99 -70 117 Q-76 135 -78 153 Q-80 171 -77 189 Q-75 206 -69 224 Q-62 242 -52 260 Q-42 278 -30 296 Q-18 314 -6 331 Q6 349 17 367 Q27 385 35 403 Q43 421 46 439 Q49 457 47 474 Q45 492 38 510 Q31 528 20 546 Q9 564 -4 582 Q-18 599 -32 617 Q-46 635 -59 653 Q-72 671 -81 689 Q-91 707 -95 725 Q-100 742 -98 760 Q-97 778 -90 796 Q-83 814 -72 832 Q-60 850 -45 867 Q-30 885 -14 903 Q3 921 18 939" stroke="#D8C08E" stroke-width="0.60" stroke-opacity="0.85" fill="none" stroke-linecap="round"/><path d="M87 -46 Q105 -5 109 16 Q112 36 108 57 Q105 78 94 98 Q84 119 70 140 Q55 160 40 181 Q24 202 11 223 Q-2 243 -9 264 Q-16 285 -15 305 Q-15 326 -6 347 Q3 367 17 388 Q32 409 50 429 Q68 450 84 471 Q100 492 112 512 Q123 533 126 554 Q129 574 123 595 Q118 616 104 636 Q90 657 71 678 Q52 698 32 719 Q13 740 -3 760 Q-19 781 -26 802 Q-34 823 -32 843 Q-30 864 -18 885 Q-6 905 13 926 Q32 947 54 967 Q76 988 96 1009 Q116 1029 129 1050 Q141 1071 144 1091" stroke="#D8C08E" stroke-width="1.42" stroke-opacity="0.42" fill="none" stroke-linecap="round"/><path d="M103 -40 Q133 -0 150 20 Q166 39 181 59 Q196 79 204 99 Q213 119 213 139 Q213 159 205 179 Q196 199 180 219 Q165 239 145 259 Q126 279 108 299 Q90 319 78 338 Q66 358 63 378 Q60 398 67 418 Q74 438 90 458 Q105 478 126 498 Q147 518 168 538 Q189 558 205 578 Q221 598 228 617 Q235 637 230 657 Q226 677 211 697 Q196 717 174 737 Q151 757 127 777 Q103 797 83 817 Q63 837 53 857 Q42 877 43 897 Q44 916 58 936 Q71 956 94 976 Q117 996 143 1016 Q170 1036 194 1056" stroke="#8f7a52" stroke-width="2.01" stroke-opacity="0.81" fill="none" stroke-linecap="round"/><path d="M1861 -27 Q1875 7 1884 25 Q1894 42 1904 59 Q1914 76 1921 93 Q1929 111 1933 128 Q1937 145 1935 162 Q1934 180 1927 197 Q1921 214 1911 231 Q1901 248 1889 266 Q1878 283 1868 300 Q1858 317 1852 335 Q1845 352 1845 369 Q1845 386 1850 403 Q1856 421 1866 438 Q1876 455 1889 472 Q1902 489 1914 507 Q1926 524 1935 541 Q1943 558 1946 576 Q1949 593 1945 610 Q1941 627 1931 644 Q1921 662 1907 679 Q1894 696 1880 713 Q1866 731 1854 748 Q1843 765 1838 782 Q1832 799 1834 817 Q1836 834 1845 851 Q1854 868 1868 886 Q1882 903 1897 920" stroke="#D8C08E" stroke-width="1.71" stroke-opacity="0.58" fill="none" stroke-linecap="round"/><path d="M870 -48 Q889 -6 901 15 Q913 36 925 57 Q937 78 947 99 Q957 120 962 141 Q967 162 967 183 Q966 204 960 225 Q953 246 942 267 Q931 287 916 308 Q902 329 888 350 Q874 371 863 392 Q852 413 847 434 Q841 455 842 476 Q843 497 851 518 Q859 539 872 560 Q885 581 901 602 Q917 622 933 643 Q949 664 961 685 Q973 706 979 727 Q985 748 983 769 Q982 790 973 811 Q964 832 948 853 Q933 874 915 895 Q897 916 880 937 Q862 958 849 978 Q836 999 829 1020 Q823 1041 825 1062 Q828 1083 838 1104" stroke="#D8C08E" stroke-width="0.61" stroke-opacity="0.52" fill="none" stroke-linecap="round"/><path d="M479 -35 Q497 4 498 24 Q498 44 490 64 Q482 84 466 104 Q450 124 430 143 Q410 163 390 183 Q370 203 354 223 Q338 243 331 263 Q323 282 325 302 Q328 322 340 342 Q352 362 372 382 Q392 402 416 421 Q439 441 461 461 Q483 481 499 501 Q514 521 520 541 Q525 560 519 580 Q513 600 496 620 Q480 640 456 660 Q431 680 405 700 Q378 719 355 739 Q332 759 318 779 Q303 799 300 819 Q298 839 308 858 Q319 878 340 898 Q362 918 390 938 Q418 958 447 978 Q476 997 500 1017 Q523 1037 536 1057" stroke="#D8C08E" stroke-width="1.61" stroke-opacity="0.50" fill="none" stroke-linecap="round"/><path d="M1579 -27 Q1579 5 1583 21 Q1587 37 1594 53 Q1601 69 1610 85 Q1619 101 1628 117 Q1637 133 1645 149 Q1652 165 1656 181 Q1660 197 1660 213 Q1659 229 1655 244 Q1650 260 1642 276 Q1633 292 1623 308 Q1612 324 1602 340 Q1592 356 1583 372 Q1575 388 1571 404 Q1566 420 1567 436 Q1567 452 1573 468 Q1578 484 1588 500 Q1597 516 1609 532 Q1621 548 1633 564 Q1645 580 1654 595 Q1663 611 1668 627 Q1673 643 1672 659 Q1671 675 1665 691 Q1658 707 1648 723 Q1637 739 1624 755 Q1610 771 1597 787 Q1584 803 1574 819 Q1564 835 1559 851" stroke="#8f7a52" stroke-width="1.61" stroke-opacity="0.60" fill="none" stroke-linecap="round"/><path d="M1169 -45 Q1142 -8 1129 11 Q1116 29 1105 48 Q1094 67 1087 85 Q1081 104 1079 123 Q1078 141 1083 160 Q1087 179 1097 197 Q1107 216 1121 235 Q1135 253 1151 272 Q1167 291 1183 309 Q1198 328 1211 346 Q1224 365 1232 384 Q1240 402 1241 421 Q1243 440 1238 458 Q1232 477 1221 496 Q1210 514 1193 533 Q1177 552 1159 570 Q1140 589 1122 608 Q1104 626 1089 645 Q1074 664 1065 682 Q1056 701 1054 720 Q1052 738 1058 757 Q1064 776 1077 794 Q1090 813 1108 832 Q1127 850 1148 869 Q1169 887 1189 906 Q1210 925 1227 943 Q1244 962 1254 981" stroke="#8f7a52" stroke-width="1.31" stroke-opacity="0.52" fill="none" stroke-linecap="round"/><path d="M547 -17 Q523 21 512 40 Q501 58 494 77 Q486 96 484 115 Q482 134 487 152 Q491 171 501 190 Q510 209 523 228 Q536 246 550 265 Q563 284 573 303 Q583 322 588 340 Q592 359 590 378 Q587 397 578 416 Q569 434 555 453 Q541 472 526 491 Q511 510 498 529 Q485 547 477 566 Q470 585 470 604 Q470 623 478 641 Q486 660 500 679 Q514 698 531 717 Q548 735 564 754 Q579 773 590 792 Q601 811 604 829 Q606 848 601 867 Q595 886 581 905 Q567 923 549 942 Q531 961 513 980 Q495 999 481 1018" stroke="#8f7a52" stroke-width="1.40" stroke-opacity="0.68" fill="none" stroke-linecap="round"/><path d="M357 -16 Q395 18 413 35 Q432 51 446 68 Q460 85 465 102 Q471 119 466 136 Q461 153 447 170 Q433 187 413 204 Q392 221 370 238 Q348 255 330 272 Q312 289 303 306 Q294 323 296 340 Q297 357 311 374 Q324 391 345 408 Q367 425 392 442 Q416 459 439 476 Q461 493 475 510 Q488 527 490 544 Q492 561 481 578 Q469 595 448 612 Q426 629 399 646 Q371 663 345 680 Q319 697 300 714 Q282 731 276 748 Q270 765 278 782 Q286 799 307 816 Q328 833 357 850 Q386 867 416 884 Q446 901 470 918" stroke="#D8C08E" stroke-width="1.92" stroke-opacity="0.48" fill="none" stroke-linecap="round"/><path d="M300 -44 Q299 -10 301 6 Q304 23 310 40 Q316 57 324 74 Q331 90 340 107 Q349 124 358 141 Q366 157 372 174 Q379 191 382 208 Q385 225 384 241 Q384 258 379 275 Q375 292 367 309 Q360 325 350 342 Q340 359 330 376 Q320 393 310 409 Q301 426 295 443 Q289 460 286 477 Q284 493 286 510 Q288 527 294 544 Q301 561 310 577 Q320 594 332 611 Q343 628 355 645 Q366 661 376 678 Q385 695 391 712 Q397 729 398 745 Q400 762 396 779 Q392 796 383 813 Q375 829 363 846 Q351 863 338 880" stroke="#8f7a52" stroke-width="1.30" stroke-opacity="0.43" fill="none" stroke-linecap="round"/><path d="M730 -16 Q712 24 704 43 Q695 63 688 83 Q682 102 678 122 Q674 142 674 161 Q674 181 677 201 Q681 220 688 240 Q695 260 704 279 Q713 299 724 319 Q735 338 746 358 Q756 378 765 397 Q774 417 780 437 Q786 456 789 476 Q791 495 788 515 Q786 535 780 554 Q773 574 764 594 Q754 613 742 633 Q730 653 717 672 Q704 692 693 712 Q681 731 672 751 Q664 771 659 790 Q655 810 655 830 Q655 849 660 869 Q666 889 675 908 Q685 928 698 948 Q711 967 725 987 Q740 1007 754 1026 Q768 1046 779 1066" stroke="#D8C08E" stroke-width="1.10" stroke-opacity="0.78" fill="none" stroke-linecap="round"/><path d="M2024 -25 Q2009 10 1998 27 Q1988 45 1975 63 Q1962 80 1949 98 Q1936 115 1924 133 Q1912 150 1902 168 Q1893 185 1888 203 Q1883 220 1883 238 Q1883 256 1888 273 Q1894 291 1903 308 Q1913 326 1927 343 Q1940 361 1956 378 Q1971 396 1987 414 Q2003 431 2017 449 Q2030 466 2041 484 Q2051 501 2056 519 Q2061 536 2060 554 Q2059 572 2052 589 Q2045 607 2033 624 Q2021 642 2005 659 Q1989 677 1970 694 Q1952 712 1934 729 Q1916 747 1900 765 Q1885 782 1874 800 Q1863 817 1858 835 Q1853 852 1855 870 Q1857 887 1866 905 Q1874 923 1889 940" stroke="#D8C08E" stroke-width="1.90" stroke-opacity="0.38" fill="none" stroke-linecap="round"/><path d="M1147 -40 Q1134 -2 1122 17 Q1110 36 1094 56 Q1079 75 1062 94 Q1046 113 1032 132 Q1017 151 1008 170 Q998 189 995 209 Q992 228 996 247 Q1001 266 1012 285 Q1023 304 1040 323 Q1057 342 1076 361 Q1095 381 1113 400 Q1131 419 1145 438 Q1159 457 1166 476 Q1173 495 1172 514 Q1171 534 1162 553 Q1152 572 1136 591 Q1119 610 1098 629 Q1078 648 1056 667 Q1034 686 1016 706 Q997 725 985 744 Q973 763 970 782 Q966 801 973 820 Q979 839 994 859 Q1009 878 1031 897 Q1053 916 1077 935 Q1102 954 1125 973 Q1148 992 1165 1011" stroke="#D8C08E" stroke-width="1.34" stroke-opacity="0.37" fill="none" stroke-linecap="round"/><path d="M1116 -53 Q1112 -12 1114 9 Q1116 29 1123 50 Q1129 71 1138 92 Q1148 112 1159 133 Q1170 154 1182 174 Q1193 195 1203 216 Q1212 236 1218 257 Q1224 278 1226 298 Q1228 319 1224 340 Q1221 360 1213 381 Q1205 402 1194 422 Q1182 443 1169 464 Q1155 484 1142 505 Q1129 526 1119 546 Q1108 567 1102 588 Q1095 608 1094 629 Q1093 650 1098 670 Q1102 691 1112 712 Q1122 733 1136 753 Q1149 774 1165 795 Q1180 815 1195 836 Q1209 857 1221 877 Q1232 898 1239 919 Q1245 939 1246 960 Q1246 981 1240 1001 Q1234 1022 1222 1043 Q1210 1063 1194 1084" stroke="#D8C08E" stroke-width="1.29" stroke-opacity="0.28" fill="none" stroke-linecap="round"/><path d="M1385 -5 Q1402 29 1415 45 Q1428 62 1443 79 Q1458 96 1473 113 Q1488 130 1500 147 Q1512 164 1518 181 Q1525 198 1524 215 Q1524 232 1516 249 Q1509 266 1496 283 Q1482 300 1465 317 Q1448 334 1430 351 Q1412 367 1397 384 Q1381 401 1371 418 Q1361 435 1358 452 Q1355 469 1360 486 Q1365 503 1378 520 Q1391 537 1409 554 Q1427 571 1448 588 Q1468 605 1487 622 Q1507 639 1521 656 Q1536 673 1543 690 Q1550 706 1548 723 Q1546 740 1535 757 Q1524 774 1505 791 Q1487 808 1465 825 Q1442 842 1420 859 Q1397 876 1378 893 Q1359 910 1347 927" stroke="#8f7a52" stroke-width="1.96" stroke-opacity="0.77" fill="none" stroke-linecap="round"/><path d="M1764 -39 Q1766 0 1761 20 Q1756 40 1745 60 Q1734 79 1719 99 Q1704 119 1687 139 Q1671 159 1656 179 Q1641 198 1631 218 Q1621 238 1618 258 Q1615 278 1619 297 Q1623 317 1634 337 Q1646 357 1662 377 Q1679 397 1698 416 Q1717 436 1734 456 Q1752 476 1765 496 Q1779 515 1785 535 Q1791 555 1788 575 Q1786 595 1775 615 Q1764 634 1746 654 Q1728 674 1707 694 Q1686 714 1665 733 Q1644 753 1628 773 Q1611 793 1602 813 Q1593 832 1593 852 Q1593 872 1603 892 Q1613 912 1631 932 Q1649 951 1672 971 Q1695 991 1719 1011 Q1743 1031 1763 1050" stroke="#8f7a52" stroke-width="1.85" stroke-opacity="0.38" fill="none" stroke-linecap="round"/><path d="M1926 -52 Q1933 -15 1938 4 Q1943 22 1950 41 Q1956 60 1964 78 Q1971 97 1979 115 Q1986 134 1992 153 Q1998 171 2003 190 Q2007 209 2009 227 Q2011 246 2010 264 Q2009 283 2005 302 Q2001 320 1995 339 Q1989 357 1981 376 Q1973 395 1964 413 Q1955 432 1947 451 Q1938 469 1931 488 Q1923 506 1918 525 Q1912 544 1910 562 Q1908 581 1909 599 Q1909 618 1914 637 Q1918 655 1925 674 Q1932 693 1941 711 Q1951 730 1961 748 Q1971 767 1981 786 Q1992 804 2000 823 Q2009 842 2015 860 Q2022 879 2025 897 Q2028 916 2027 935 Q2026 953 2021 972" stroke="#D8C08E" stroke-width="0.83" stroke-opacity="0.52" fill="none" stroke-linecap="round"/><path d="M1522 -12 Q1501 23 1493 41 Q1484 58 1479 75 Q1475 93 1474 110 Q1473 128 1477 145 Q1481 163 1489 180 Q1497 198 1508 215 Q1519 233 1532 250 Q1545 268 1558 285 Q1571 303 1583 320 Q1594 338 1602 355 Q1610 372 1613 390 Q1616 407 1614 425 Q1612 442 1605 460 Q1598 477 1586 495 Q1574 512 1560 530 Q1545 547 1530 565 Q1514 582 1500 600 Q1486 617 1474 634 Q1463 652 1457 669 Q1450 687 1450 704 Q1449 722 1455 739 Q1460 757 1472 774 Q1483 792 1498 809 Q1513 827 1531 844 Q1549 862 1566 879 Q1583 896 1598 914 Q1613 931 1623 949" stroke="#8f7a52" stroke-width="0.67" stroke-opacity="0.78" fill="none" stroke-linecap="round"/><path d="M-7 -7 Q-11 35 -9 57 Q-7 78 -2 99 Q3 120 11 141 Q19 162 28 184 Q38 205 47 226 Q56 247 64 268 Q72 289 77 311 Q82 332 83 353 Q84 374 81 395 Q78 416 72 438 Q65 459 56 480 Q46 501 35 522 Q24 543 14 564 Q3 586 -6 607 Q-14 628 -19 649 Q-25 670 -25 691 Q-26 713 -22 734 Q-18 755 -9 776 Q-1 797 10 818 Q22 840 34 861 Q47 882 59 903 Q71 924 80 945 Q89 967 94 988 Q99 1009 99 1030 Q99 1051 93 1072 Q88 1093 78 1115 Q68 1136 55 1157" stroke="#8f7a52" stroke-width="1.25" stroke-opacity="0.45" fill="none" stroke-linecap="round"/><path d="M306 -31 Q290 9 284 28 Q277 48 272 68 Q268 88 267 107 Q266 127 268 147 Q270 167 276 186 Q281 206 289 226 Q297 246 307 265 Q316 285 326 305 Q335 325 343 344 Q350 364 355 384 Q359 404 360 423 Q361 443 358 463 Q354 483 347 502 Q340 522 331 542 Q321 562 310 581 Q299 601 288 621 Q278 641 269 660 Q261 680 256 700 Q252 720 252 739 Q251 759 256 779 Q260 799 269 818 Q278 838 289 858 Q300 878 313 897 Q326 917 337 937 Q349 957 358 976 Q367 996 371 1016 Q376 1036 375 1056" stroke="#D8C08E" stroke-width="1.50" stroke-opacity="0.85" fill="none" stroke-linecap="round"/><path d="M1602 -33 Q1594 6 1585 26 Q1577 46 1566 66 Q1555 85 1543 105 Q1531 125 1519 145 Q1507 165 1497 184 Q1488 204 1483 224 Q1477 244 1477 264 Q1477 283 1482 303 Q1487 323 1496 343 Q1506 363 1519 382 Q1532 402 1547 422 Q1561 442 1575 462 Q1589 481 1600 501 Q1611 521 1617 541 Q1623 561 1623 580 Q1623 600 1617 620 Q1611 640 1600 660 Q1589 679 1574 699 Q1558 719 1542 739 Q1525 759 1509 778 Q1493 798 1481 818 Q1469 838 1462 858 Q1455 877 1455 897 Q1455 917 1462 937 Q1469 957 1482 976 Q1495 996 1512 1016 Q1529 1036 1548 1056" stroke="#8f7a52" stroke-width="1.22" stroke-opacity="0.28" fill="none" stroke-linecap="round"/><path d="M1623 -13 Q1635 28 1639 49 Q1642 70 1643 91 Q1644 111 1642 132 Q1639 153 1634 174 Q1629 195 1621 215 Q1614 236 1605 257 Q1597 278 1588 298 Q1579 319 1572 340 Q1565 361 1561 381 Q1556 402 1555 423 Q1554 444 1556 465 Q1558 485 1564 506 Q1570 527 1579 548 Q1587 568 1597 589 Q1607 610 1617 631 Q1627 651 1636 672 Q1644 693 1650 714 Q1655 735 1657 755 Q1659 776 1657 797 Q1655 818 1648 838 Q1642 859 1632 880 Q1623 901 1611 921 Q1600 942 1589 963 Q1577 984 1567 1005 Q1557 1025 1550 1046 Q1544 1067 1541 1088 Q1538 1108 1540 1129" stroke="#8f7a52" stroke-width="1.52" stroke-opacity="0.43" fill="none" stroke-linecap="round"/><path d="M929 -18 Q952 19 966 38 Q981 57 996 76 Q1011 94 1022 113 Q1034 132 1040 151 Q1045 169 1044 188 Q1042 207 1033 225 Q1024 244 1009 263 Q994 282 977 300 Q959 319 943 338 Q927 357 915 375 Q904 394 900 413 Q895 431 900 450 Q905 469 917 488 Q930 506 948 525 Q966 544 986 563 Q1006 581 1023 600 Q1040 619 1051 638 Q1061 656 1063 675 Q1065 694 1057 712 Q1049 731 1032 750 Q1016 769 995 787 Q974 806 952 825 Q930 844 913 862 Q895 881 886 900 Q877 919 878 937 Q880 956 892 975 Q904 993 924 1012" stroke="#D8C08E" stroke-width="1.08" stroke-opacity="0.85" fill="none" stroke-linecap="round"/><path d="M301 -43 Q328 -7 338 12 Q348 30 353 48 Q358 66 357 84 Q356 103 349 121 Q342 139 329 157 Q316 175 300 194 Q284 212 267 230 Q249 248 233 266 Q217 285 204 303 Q192 321 186 339 Q179 357 180 376 Q181 394 189 412 Q197 430 211 448 Q225 467 244 485 Q262 503 283 521 Q303 539 322 558 Q341 576 356 594 Q370 612 378 630 Q387 649 386 667 Q386 685 378 703 Q370 721 354 740 Q338 758 317 776 Q296 794 273 812 Q250 831 228 849 Q206 867 189 885 Q171 903 162 922 Q152 940 151 958" stroke="#8f7a52" stroke-width="1.01" stroke-opacity="0.49" fill="none" stroke-linecap="round"/><path d="M719 -24 Q725 9 731 26 Q737 43 745 60 Q753 77 762 94 Q771 111 780 128 Q789 145 796 161 Q804 178 808 195 Q813 212 814 229 Q816 246 813 263 Q811 280 805 296 Q799 313 791 330 Q782 347 771 364 Q761 381 750 398 Q740 415 730 431 Q721 448 714 465 Q707 482 703 499 Q700 516 701 533 Q702 550 707 566 Q712 583 721 600 Q729 617 741 634 Q752 651 764 668 Q777 685 789 701 Q800 718 810 735 Q820 752 825 769 Q831 786 832 803 Q834 820 830 836 Q826 853 818 870 Q810 887 798 904" stroke="#D8C08E" stroke-width="1.98" stroke-opacity="0.64" fill="none" stroke-linecap="round"/><path d="M1325 -21 Q1321 19 1323 38 Q1326 58 1333 78 Q1341 98 1352 117 Q1363 137 1376 157 Q1389 176 1402 196 Q1415 216 1426 235 Q1437 255 1444 275 Q1451 294 1453 314 Q1454 334 1450 354 Q1446 373 1436 393 Q1426 413 1413 432 Q1399 452 1384 472 Q1368 491 1353 511 Q1338 531 1326 550 Q1314 570 1307 590 Q1300 610 1300 629 Q1299 649 1306 669 Q1312 688 1324 708 Q1336 728 1352 747 Q1368 767 1386 787 Q1404 806 1421 826 Q1437 846 1450 866 Q1463 885 1469 905 Q1476 925 1475 944 Q1474 964 1466 984 Q1457 1003 1442 1023 Q1428 1043 1409 1062" stroke="#D8C08E" stroke-width="0.89" stroke-opacity="0.67" fill="none" stroke-linecap="round"/><path d="M1057 -48 Q1038 -15 1032 2 Q1026 18 1024 35 Q1022 51 1025 67 Q1028 84 1036 100 Q1044 117 1055 133 Q1067 150 1081 166 Q1096 183 1111 199 Q1126 216 1141 232 Q1156 248 1168 265 Q1180 281 1188 298 Q1196 314 1199 331 Q1201 347 1198 364 Q1195 380 1187 397 Q1178 413 1165 430 Q1152 446 1135 462 Q1118 479 1100 495 Q1082 512 1065 528 Q1047 545 1032 561 Q1018 578 1007 594 Q997 611 993 627 Q989 643 991 660 Q994 676 1003 693 Q1012 709 1027 726 Q1042 742 1060 759 Q1079 775 1100 792 Q1121 808 1142 824 Q1162 841 1180 857" stroke="#D8C08E" stroke-width="1.26" stroke-opacity="0.48" fill="none" stroke-linecap="round"/><path d="M1326 -17 Q1340 16 1342 32 Q1345 49 1343 65 Q1341 82 1334 98 Q1328 115 1318 131 Q1308 148 1296 164 Q1284 181 1272 197 Q1260 213 1251 230 Q1241 246 1236 263 Q1231 279 1231 296 Q1231 312 1236 329 Q1242 345 1252 362 Q1262 378 1276 395 Q1289 411 1303 428 Q1317 444 1329 461 Q1341 477 1350 494 Q1358 510 1361 526 Q1363 543 1359 559 Q1356 576 1346 592 Q1337 609 1323 625 Q1309 642 1293 658 Q1277 675 1262 691 Q1247 708 1235 724 Q1224 741 1218 757 Q1212 774 1213 790 Q1214 807 1223 823 Q1231 839 1244 856 Q1258 872 1275 889" stroke="#8f7a52" stroke-width="1.81" stroke-opacity="0.78" fill="none" stroke-linecap="round"/><path d="M451 -1 Q469 40 477 61 Q485 81 490 102 Q496 122 499 143 Q501 163 500 184 Q499 204 495 225 Q490 245 482 266 Q474 287 464 307 Q454 328 443 348 Q432 369 422 389 Q411 410 402 430 Q393 451 387 471 Q380 492 378 512 Q376 533 378 553 Q380 574 386 594 Q392 615 402 635 Q412 656 424 676 Q436 697 449 717 Q462 738 474 758 Q487 779 497 799 Q507 820 513 840 Q520 861 521 881 Q523 902 520 923 Q517 943 509 964 Q501 984 489 1005 Q477 1025 463 1046 Q449 1066 434 1087 Q419 1107 405 1128" stroke="#8f7a52" stroke-width="1.73" stroke-opacity="0.75" fill="none" stroke-linecap="round"/><path d="M1521 -17 Q1536 21 1536 40 Q1536 58 1528 77 Q1520 96 1506 115 Q1492 134 1475 152 Q1458 171 1441 190 Q1425 209 1413 227 Q1401 246 1397 265 Q1393 284 1398 303 Q1403 321 1417 340 Q1430 359 1448 378 Q1467 397 1486 415 Q1506 434 1522 453 Q1539 472 1547 490 Q1556 509 1555 528 Q1554 547 1543 566 Q1532 584 1513 603 Q1495 622 1472 641 Q1450 659 1430 678 Q1409 697 1395 716 Q1381 735 1378 753 Q1374 772 1381 791 Q1389 810 1406 828 Q1423 847 1447 866 Q1470 885 1495 904 Q1519 922 1538 941 Q1557 960 1567 979 Q1576 997 1574 1016" stroke="#D8C08E" stroke-width="1.31" stroke-opacity="0.26" fill="none" stroke-linecap="round"/><path d="M646 -30 Q622 4 606 22 Q591 39 574 56 Q557 73 543 91 Q529 108 520 125 Q512 143 511 160 Q510 177 518 195 Q525 212 540 229 Q554 247 573 264 Q591 281 611 299 Q630 316 645 333 Q661 351 670 368 Q679 385 679 403 Q679 420 669 437 Q660 455 643 472 Q626 489 604 507 Q583 524 562 541 Q540 559 523 576 Q506 593 497 611 Q487 628 489 645 Q490 662 501 680 Q513 697 533 714 Q552 732 577 749 Q601 766 625 784 Q648 801 667 818 Q685 836 694 853 Q703 870 701 888 Q699 905 685 922" stroke="#D8C08E" stroke-width="2.05" stroke-opacity="0.72" fill="none" stroke-linecap="round"/><path d="M1835 -24 Q1828 10 1821 28 Q1814 45 1805 62 Q1796 79 1787 97 Q1778 114 1771 131 Q1764 149 1761 166 Q1758 183 1759 201 Q1760 218 1765 235 Q1771 253 1780 270 Q1788 287 1799 304 Q1809 322 1819 339 Q1829 356 1836 374 Q1843 391 1845 408 Q1848 426 1845 443 Q1842 460 1835 478 Q1827 495 1817 512 Q1806 530 1794 547 Q1782 564 1772 581 Q1762 599 1755 616 Q1749 633 1747 651 Q1746 668 1751 685 Q1755 703 1765 720 Q1774 737 1787 755 Q1799 772 1812 789 Q1825 807 1836 824 Q1846 841 1852 858 Q1858 876 1858 893 Q1857 910 1851 928" stroke="#D8C08E" stroke-width="1.40" stroke-opacity="0.40" fill="none" stroke-linecap="round"/><path d="M671 -42 Q694 -3 708 16 Q722 36 736 55 Q750 74 763 94 Q775 113 783 132 Q791 152 794 171 Q796 191 793 210 Q789 229 779 249 Q770 268 755 287 Q741 307 724 326 Q708 345 691 365 Q675 384 661 404 Q648 423 639 442 Q631 462 630 481 Q628 500 634 520 Q640 539 653 559 Q666 578 683 597 Q700 617 720 636 Q739 655 757 675 Q776 694 790 713 Q805 733 812 752 Q820 772 820 791 Q820 810 811 830 Q803 849 787 868 Q771 888 751 907 Q730 927 708 946 Q686 965 666 985 Q646 1004 631 1023" stroke="#D8C08E" stroke-width="1.87" stroke-opacity="0.39" fill="none" stroke-linecap="round"/><path d="M1185 -23 Q1180 12 1182 30 Q1184 48 1191 66 Q1197 83 1206 101 Q1216 119 1227 136 Q1237 154 1247 172 Q1256 190 1262 207 Q1268 225 1269 243 Q1271 261 1266 278 Q1262 296 1254 314 Q1245 332 1233 349 Q1222 367 1210 385 Q1198 403 1188 420 Q1178 438 1173 456 Q1168 474 1168 491 Q1169 509 1175 527 Q1181 545 1192 562 Q1203 580 1217 598 Q1230 616 1243 633 Q1256 651 1266 669 Q1276 687 1280 704 Q1284 722 1281 740 Q1279 758 1270 775 Q1261 793 1248 811 Q1234 829 1219 846 Q1204 864 1190 882 Q1177 900 1167 917 Q1158 935 1156 953" stroke="#D8C08E" stroke-width="1.68" stroke-opacity="0.83" fill="none" stroke-linecap="round"/><path d="M261 -3 Q276 29 281 46 Q287 62 289 78 Q290 94 288 111 Q286 127 280 143 Q274 159 266 176 Q257 192 248 208 Q238 224 230 240 Q222 257 216 273 Q211 289 210 305 Q208 322 212 338 Q215 354 223 370 Q230 387 241 403 Q251 419 261 435 Q272 452 281 468 Q290 484 295 500 Q300 516 301 533 Q301 549 296 565 Q291 581 282 598 Q272 614 261 630 Q249 646 237 663 Q225 679 216 695 Q207 711 202 728 Q197 744 198 760 Q199 776 206 792 Q213 809 224 825 Q235 841 248 857 Q261 874 274 890" stroke="#D8C08E" stroke-width="0.64" stroke-opacity="0.74" fill="none" stroke-linecap="round"/><path d="M-172 -32 Q-198 9 -209 30 Q-220 50 -227 71 Q-233 91 -234 112 Q-236 132 -231 153 Q-226 173 -215 194 Q-205 214 -191 235 Q-177 255 -162 276 Q-146 296 -133 316 Q-119 337 -109 357 Q-100 378 -97 398 Q-94 419 -97 439 Q-101 460 -111 480 Q-122 501 -137 521 Q-152 542 -170 562 Q-187 583 -204 603 Q-220 624 -233 644 Q-245 665 -251 685 Q-257 706 -255 726 Q-253 746 -243 767 Q-233 787 -217 808 Q-201 828 -182 849 Q-162 869 -143 890 Q-124 910 -108 931 Q-93 951 -84 972 Q-75 992 -75 1013 Q-74 1033 -83 1054 Q-92 1074 -108 1095" stroke="#8f7a52" stroke-width="2.09" stroke-opacity="0.76" fill="none" stroke-linecap="round"/><path d="M1692 -22 Q1678 16 1674 34 Q1670 53 1670 72 Q1671 91 1675 110 Q1680 129 1688 148 Q1696 166 1707 185 Q1717 204 1728 223 Q1739 242 1749 261 Q1758 280 1765 298 Q1771 317 1772 336 Q1774 355 1771 374 Q1767 393 1759 412 Q1751 430 1740 449 Q1728 468 1716 487 Q1703 506 1691 525 Q1679 544 1670 562 Q1662 581 1657 600 Q1653 619 1655 638 Q1657 657 1664 676 Q1671 694 1683 713 Q1695 732 1709 751 Q1723 770 1737 789 Q1751 808 1763 826 Q1774 845 1781 864 Q1788 883 1789 902 Q1789 921 1784 940 Q1778 958 1766 977 Q1755 996 1740 1015" stroke="#D8C08E" stroke-width="0.68" stroke-opacity="0.42" fill="none" stroke-linecap="round"/><path d="M536 -28 Q501 6 485 23 Q470 41 459 58 Q448 75 445 92 Q441 109 447 126 Q452 144 466 161 Q479 178 498 195 Q516 212 537 230 Q557 247 575 264 Q592 281 604 298 Q615 315 617 333 Q619 350 612 367 Q604 384 588 401 Q571 419 549 436 Q527 453 504 470 Q481 487 462 504 Q443 522 431 539 Q420 556 419 573 Q419 590 429 608 Q439 625 459 642 Q478 659 503 676 Q529 693 554 711 Q579 728 600 745 Q621 762 632 779 Q643 797 642 814 Q641 831 628 848 Q614 865 591 882 Q568 900 540 917" stroke="#D8C08E" stroke-width="1.48" stroke-opacity="0.71" fill="none" stroke-linecap="round"/><path d="M896 -14 Q880 27 871 48 Q863 69 855 89 Q848 110 842 131 Q837 151 834 172 Q831 193 831 213 Q831 234 834 255 Q838 275 844 296 Q851 316 859 337 Q868 358 878 378 Q888 399 898 420 Q909 440 918 461 Q927 482 934 502 Q940 523 944 544 Q948 564 947 585 Q947 606 943 626 Q939 647 932 668 Q924 688 914 709 Q904 730 892 750 Q880 771 868 792 Q856 812 845 833 Q835 853 827 874 Q819 895 815 915 Q810 936 810 957 Q811 977 815 998 Q820 1019 828 1039 Q837 1060 849 1081 Q861 1101 874 1122" stroke="#D8C08E" stroke-width="0.83" stroke-opacity="0.84" fill="none" stroke-linecap="round"/><path d="M707 -39 Q718 -4 721 14 Q724 32 723 50 Q723 67 719 85 Q716 103 709 121 Q703 138 694 156 Q686 174 677 192 Q669 210 661 227 Q654 245 649 263 Q643 281 642 298 Q640 316 643 334 Q645 352 651 369 Q657 387 665 405 Q674 423 684 441 Q694 458 704 476 Q713 494 721 512 Q728 529 732 547 Q736 565 736 583 Q736 601 731 618 Q727 636 718 654 Q710 672 699 689 Q688 707 677 725 Q665 743 655 760 Q645 778 639 796 Q632 814 629 832 Q627 849 630 867 Q633 885 640 903 Q647 920 658 938" stroke="#D8C08E" stroke-width="2.02" stroke-opacity="0.82" fill="none" stroke-linecap="round"/><path d="M802 -52 Q798 -12 800 8 Q803 27 809 47 Q816 67 827 87 Q837 107 849 126 Q861 146 874 166 Q886 186 896 205 Q907 225 913 245 Q920 265 921 284 Q923 304 919 324 Q916 344 907 363 Q898 383 885 403 Q873 423 858 442 Q844 462 830 482 Q815 502 804 522 Q793 541 786 561 Q779 581 779 601 Q778 620 784 640 Q789 660 800 680 Q811 699 826 719 Q841 739 858 759 Q875 778 890 798 Q906 818 918 838 Q930 858 937 877 Q943 897 942 917 Q942 937 935 956 Q927 976 914 996 Q900 1016 883 1035" stroke="#D8C08E" stroke-width="0.74" stroke-opacity="0.30" fill="none" stroke-linecap="round"/><path d="M258 -4 Q259 28 263 44 Q267 60 274 76 Q281 92 291 108 Q300 123 310 139 Q319 155 327 171 Q335 187 340 203 Q344 219 344 235 Q344 251 340 267 Q335 283 327 299 Q318 315 308 331 Q297 347 286 363 Q274 379 265 395 Q256 410 251 426 Q246 442 245 458 Q245 474 250 490 Q255 506 265 522 Q274 538 287 554 Q299 570 311 586 Q324 602 334 618 Q345 634 351 650 Q357 666 358 682 Q358 697 352 713 Q347 729 336 745 Q326 761 312 777 Q299 793 285 809 Q270 825 259 841 Q247 857 240 873" stroke="#8f7a52" stroke-width="1.87" stroke-opacity="0.32" fill="none" stroke-linecap="round"/><path d="M220 -35 Q215 0 209 18 Q202 36 193 53 Q184 71 174 89 Q163 106 154 124 Q144 142 138 159 Q131 177 129 195 Q127 212 129 230 Q132 248 139 266 Q146 283 157 301 Q167 319 179 336 Q191 354 202 372 Q213 389 221 407 Q229 425 232 442 Q235 460 233 478 Q230 495 222 513 Q215 531 203 549 Q191 566 178 584 Q164 602 152 619 Q139 637 130 655 Q120 672 116 690 Q112 708 114 725 Q117 743 125 761 Q133 779 146 796 Q159 814 174 832 Q189 849 203 867 Q218 885 228 902 Q239 920 244 938" stroke="#D8C08E" stroke-width="1.52" stroke-opacity="0.47" fill="none" stroke-linecap="round"/><path d="M362 -13 Q387 27 401 47 Q416 67 429 87 Q442 107 451 127 Q460 147 462 167 Q464 187 459 207 Q454 227 443 247 Q432 266 416 286 Q400 306 384 326 Q368 346 354 366 Q341 386 333 406 Q326 426 327 446 Q327 466 336 486 Q345 506 360 526 Q375 546 394 566 Q412 586 430 606 Q448 626 461 646 Q473 666 478 686 Q483 706 479 726 Q474 745 461 765 Q448 785 429 805 Q410 825 389 845 Q368 865 350 885 Q332 905 321 925 Q310 945 309 965 Q307 985 316 1005 Q325 1025 343 1045 Q360 1065 383 1085" stroke="#8f7a52" stroke-width="1.09" stroke-opacity="0.43" fill="none" stroke-linecap="round"/><path d="M933 -7 Q926 28 925 46 Q924 64 926 82 Q927 100 932 117 Q937 135 944 153 Q951 171 960 189 Q968 207 977 224 Q986 242 994 260 Q1002 278 1009 296 Q1015 314 1019 332 Q1022 349 1022 367 Q1022 385 1019 403 Q1015 421 1009 439 Q1002 456 993 474 Q984 492 974 510 Q963 528 953 546 Q942 563 933 581 Q924 599 918 617 Q912 635 909 653 Q906 671 907 688 Q908 706 913 724 Q919 742 927 760 Q936 778 947 795 Q958 813 970 831 Q983 849 994 867 Q1006 885 1015 902 Q1025 920 1031 938 Q1037 956 1039 974" stroke="#8f7a52" stroke-width="1.83" stroke-opacity="0.73" fill="none" stroke-linecap="round"/><path d="M2089 -28 Q2096 13 2096 33 Q2096 53 2091 73 Q2087 93 2080 113 Q2072 133 2062 154 Q2051 174 2040 194 Q2029 214 2018 234 Q2007 254 1999 274 Q1990 294 1985 315 Q1980 335 1980 355 Q1979 375 1983 395 Q1988 415 1996 435 Q2005 455 2016 476 Q2028 496 2041 516 Q2054 536 2067 556 Q2080 576 2090 596 Q2101 616 2107 637 Q2114 657 2116 677 Q2117 697 2113 717 Q2109 737 2100 757 Q2091 778 2078 798 Q2065 818 2050 838 Q2035 858 2020 878 Q2006 898 1993 918 Q1980 939 1972 959 Q1964 979 1961 999 Q1958 1019 1961 1039 Q1965 1059 1974 1079" stroke="#8f7a52" stroke-width="2.07" stroke-opacity="0.68" fill="none" stroke-linecap="round"/><path d="M1865 -24 Q1839 11 1825 28 Q1811 45 1798 63 Q1786 80 1778 97 Q1771 115 1770 132 Q1769 149 1776 167 Q1783 184 1796 201 Q1808 219 1825 236 Q1841 253 1856 271 Q1872 288 1883 305 Q1895 323 1899 340 Q1903 357 1899 375 Q1895 392 1883 409 Q1872 427 1854 444 Q1837 461 1819 479 Q1800 496 1785 513 Q1770 531 1761 548 Q1752 565 1753 583 Q1753 600 1763 617 Q1773 635 1790 652 Q1807 669 1827 687 Q1848 704 1867 721 Q1886 739 1900 756 Q1913 773 1917 791 Q1921 808 1914 825 Q1908 843 1892 860 Q1876 877 1855 895 Q1833 912 1811 929" stroke="#D8C08E" stroke-width="1.93" stroke-opacity="0.44" fill="none" stroke-linecap="round"/><path d="M2015 -45 Q1998 -11 1991 6 Q1984 23 1980 40 Q1976 57 1975 74 Q1975 91 1978 108 Q1982 125 1989 142 Q1996 159 2005 176 Q2015 193 2026 210 Q2036 227 2047 244 Q2057 261 2066 278 Q2074 295 2080 312 Q2085 329 2086 346 Q2087 363 2083 380 Q2079 397 2072 414 Q2064 431 2053 448 Q2042 465 2029 482 Q2017 499 2005 516 Q1992 532 1982 549 Q1972 566 1966 583 Q1959 600 1958 617 Q1956 634 1960 651 Q1963 668 1972 685 Q1980 702 1993 719 Q2005 736 2019 753 Q2033 770 2047 787 Q2061 804 2073 821 Q2085 838 2093 855 Q2101 872 2103 889" stroke="#D8C08E" stroke-width="1.86" stroke-opacity="0.49" fill="none" stroke-linecap="round"/><path d="M442 -2 Q465 32 473 49 Q481 66 485 83 Q489 100 487 117 Q485 135 478 152 Q471 169 459 186 Q447 203 433 220 Q418 237 403 254 Q388 271 375 288 Q362 305 352 322 Q343 339 339 356 Q335 373 338 390 Q340 407 349 424 Q358 441 372 458 Q386 475 403 492 Q420 509 437 526 Q455 543 470 560 Q485 577 496 594 Q506 611 510 628 Q514 645 510 662 Q507 679 496 696 Q485 713 469 730 Q453 747 433 764 Q414 781 394 798 Q374 815 357 833 Q341 850 329 867 Q318 884 314 901 Q310 918 315 935" stroke="#D8C08E" stroke-width="1.46" stroke-opacity="0.43" fill="none" stroke-linecap="round"/><path d="M367 -10 Q388 22 401 38 Q413 54 427 70 Q441 86 454 102 Q468 118 479 134 Q490 150 497 166 Q505 182 508 198 Q510 214 508 230 Q506 246 498 262 Q491 278 479 294 Q467 310 452 326 Q437 342 420 358 Q403 374 387 390 Q371 406 357 422 Q343 438 333 454 Q323 470 318 486 Q314 502 315 518 Q316 534 324 550 Q332 566 345 582 Q358 598 375 614 Q392 630 411 646 Q430 662 450 678 Q469 694 486 710 Q503 726 516 742 Q529 758 536 774 Q543 790 543 806 Q543 822 536 838 Q528 853 515 869" stroke="#8f7a52" stroke-width="1.20" stroke-opacity="0.68" fill="none" stroke-linecap="round"/><path d="M1323 -0 Q1345 33 1353 49 Q1362 65 1366 82 Q1371 98 1371 115 Q1371 131 1366 148 Q1362 164 1353 181 Q1343 197 1331 214 Q1319 230 1305 247 Q1292 263 1279 280 Q1266 296 1255 313 Q1245 329 1238 346 Q1232 362 1231 379 Q1230 395 1234 412 Q1239 428 1249 445 Q1259 461 1272 478 Q1286 494 1302 511 Q1318 527 1333 544 Q1349 560 1362 577 Q1374 593 1383 610 Q1391 626 1393 643 Q1396 659 1392 676 Q1387 692 1377 709 Q1367 725 1352 742 Q1337 758 1319 775 Q1301 791 1283 807 Q1265 824 1250 840 Q1234 857 1224 873 Q1213 890 1210 906" stroke="#D8C08E" stroke-width="0.92" stroke-opacity="0.77" fill="none" stroke-linecap="round"/><path d="M252 -30 Q244 6 244 24 Q244 42 246 60 Q249 78 255 96 Q261 114 270 132 Q278 150 288 168 Q298 186 308 204 Q318 222 327 240 Q336 258 343 276 Q349 294 353 312 Q356 330 356 348 Q355 366 351 384 Q347 402 339 420 Q331 438 320 456 Q310 474 298 492 Q286 510 274 528 Q263 546 253 564 Q243 582 235 600 Q228 618 225 636 Q222 654 224 672 Q226 690 232 708 Q238 726 248 744 Q258 762 270 780 Q283 798 297 816 Q311 834 324 852 Q337 870 348 888 Q359 906 366 924 Q373 942 375 960" stroke="#8f7a52" stroke-width="0.67" stroke-opacity="0.77" fill="none" stroke-linecap="round"/><path d="M1290 -46 Q1277 -10 1273 8 Q1270 26 1270 44 Q1270 63 1274 81 Q1278 99 1285 117 Q1292 135 1302 153 Q1312 171 1323 189 Q1334 207 1345 225 Q1356 243 1365 261 Q1374 280 1380 298 Q1386 316 1388 334 Q1390 352 1387 370 Q1384 388 1377 406 Q1370 424 1360 442 Q1349 460 1336 478 Q1324 496 1311 515 Q1297 533 1286 551 Q1274 569 1265 587 Q1257 605 1253 623 Q1248 641 1249 659 Q1250 677 1257 695 Q1263 713 1273 731 Q1284 750 1298 768 Q1312 786 1327 804 Q1342 822 1356 840 Q1371 858 1382 876 Q1394 894 1401 912 Q1408 930 1409 948" stroke="#8f7a52" stroke-width="1.54" stroke-opacity="0.42" fill="none" stroke-linecap="round"/><path d="M339 -46 Q321 -6 309 13 Q298 33 287 53 Q275 72 266 92 Q256 111 249 131 Q243 151 240 170 Q238 190 241 210 Q243 229 251 249 Q258 268 269 288 Q280 308 294 327 Q307 347 320 367 Q334 386 345 406 Q357 425 364 445 Q372 465 375 484 Q378 504 374 524 Q371 543 363 563 Q354 582 342 602 Q329 622 313 641 Q298 661 283 681 Q267 700 254 720 Q241 739 232 759 Q223 779 220 798 Q217 818 220 838 Q223 857 233 877 Q243 896 257 916 Q272 936 289 955 Q306 975 324 994 Q342 1014 357 1034" stroke="#D8C08E" stroke-width="1.38" stroke-opacity="0.26" fill="none" stroke-linecap="round"/><path d="M851 -41 Q825 -9 811 7 Q797 23 785 39 Q773 55 765 71 Q757 87 756 103 Q755 119 761 135 Q767 151 779 167 Q791 183 807 199 Q823 215 839 231 Q855 247 868 263 Q881 279 888 295 Q895 311 895 327 Q894 343 885 359 Q877 375 862 391 Q847 407 829 423 Q810 439 792 455 Q775 471 761 487 Q748 503 742 519 Q736 535 738 551 Q741 567 753 583 Q764 599 782 615 Q800 632 821 648 Q842 664 861 680 Q880 696 894 712 Q907 728 912 744 Q916 760 911 776 Q905 792 890 808 Q876 824 855 840" stroke="#D8C08E" stroke-width="2.19" stroke-opacity="0.32" fill="none" stroke-linecap="round"/><path d="M1996 -23 Q1981 11 1977 28 Q1974 45 1974 62 Q1974 78 1979 95 Q1983 112 1991 129 Q2000 146 2011 163 Q2023 180 2036 197 Q2049 214 2063 231 Q2076 248 2088 265 Q2100 282 2109 299 Q2118 315 2123 332 Q2128 349 2128 366 Q2128 383 2123 400 Q2118 417 2108 434 Q2099 451 2085 468 Q2072 485 2056 502 Q2041 519 2025 536 Q2009 552 1994 569 Q1980 586 1969 603 Q1958 620 1952 637 Q1946 654 1945 671 Q1945 688 1950 705 Q1956 722 1967 739 Q1978 756 1993 772 Q2008 789 2026 806 Q2044 823 2062 840 Q2081 857 2098 874 Q2114 891 2127 908" stroke="#D8C08E" stroke-width="1.07" stroke-opacity="0.80" fill="none" stroke-linecap="round"/><path d="M1310 -29 Q1301 12 1294 32 Q1287 52 1279 73 Q1271 93 1262 113 Q1254 134 1247 154 Q1239 174 1234 195 Q1229 215 1228 235 Q1226 256 1228 276 Q1229 296 1235 317 Q1240 337 1248 357 Q1256 378 1266 398 Q1276 418 1286 439 Q1295 459 1304 479 Q1312 500 1318 520 Q1324 540 1326 561 Q1328 581 1326 601 Q1324 621 1318 642 Q1311 662 1302 682 Q1293 703 1281 723 Q1270 743 1259 764 Q1248 784 1238 804 Q1228 825 1221 845 Q1215 865 1213 886 Q1210 906 1213 926 Q1215 947 1222 967 Q1229 987 1240 1008 Q1251 1028 1263 1048 Q1276 1069 1289 1089" stroke="#D8C08E" stroke-width="0.86" stroke-opacity="0.73" fill="none" stroke-linecap="round"/><path d="M382 -1 Q375 40 376 61 Q378 81 384 102 Q391 122 401 143 Q412 163 425 184 Q437 204 450 225 Q462 245 472 266 Q482 286 488 307 Q493 327 493 348 Q493 368 487 389 Q480 409 469 430 Q458 450 444 471 Q430 491 415 512 Q400 532 388 553 Q375 573 367 594 Q359 615 358 635 Q357 656 362 676 Q367 697 379 717 Q390 738 406 758 Q421 779 438 799 Q455 820 470 840 Q485 861 496 881 Q506 902 510 922 Q513 943 509 963 Q505 984 494 1004 Q483 1025 466 1045 Q450 1066 431 1086 Q412 1107 394 1127" stroke="#D8C08E" stroke-width="0.68" stroke-opacity="0.25" fill="none" stroke-linecap="round"/><path d="M776 -31 Q810 5 824 22 Q838 40 845 58 Q852 76 850 94 Q848 111 837 129 Q826 147 809 165 Q792 183 772 200 Q752 218 734 236 Q717 254 706 271 Q696 289 695 307 Q694 325 703 343 Q713 360 731 378 Q749 396 771 414 Q793 432 814 449 Q835 467 850 485 Q865 503 869 521 Q874 538 866 556 Q859 574 841 592 Q824 610 800 627 Q776 645 751 663 Q727 681 708 698 Q689 716 680 734 Q672 752 676 770 Q680 787 697 805 Q713 823 738 841 Q763 859 790 876 Q818 894 841 912 Q865 930 878 948" stroke="#8f7a52" stroke-width="1.88" stroke-opacity="0.80" fill="none" stroke-linecap="round"/><path d="M633 -46 Q635 -13 640 4 Q644 21 652 37 Q659 54 669 71 Q679 87 690 104 Q701 121 712 137 Q723 154 732 171 Q741 188 747 204 Q753 221 755 238 Q757 254 755 271 Q753 288 746 304 Q740 321 730 338 Q720 354 708 371 Q696 388 682 405 Q669 421 657 438 Q645 455 635 471 Q625 488 619 505 Q613 521 611 538 Q610 555 614 572 Q617 588 626 605 Q634 622 647 638 Q659 655 674 672 Q688 688 703 705 Q719 722 732 739 Q746 755 757 772 Q767 789 773 805 Q779 822 779 839 Q779 855 774 872" stroke="#D8C08E" stroke-width="2.19" stroke-opacity="0.69" fill="none" stroke-linecap="round"/><path d="M1153 -25 Q1139 9 1137 26 Q1135 42 1138 59 Q1142 76 1152 93 Q1161 110 1175 127 Q1188 144 1205 161 Q1221 178 1238 195 Q1255 212 1269 229 Q1284 245 1295 262 Q1305 279 1310 296 Q1315 313 1312 330 Q1310 347 1302 364 Q1293 381 1278 398 Q1264 415 1245 432 Q1227 448 1207 465 Q1187 482 1169 499 Q1150 516 1136 533 Q1122 550 1114 567 Q1106 584 1105 601 Q1105 618 1112 635 Q1120 651 1134 668 Q1149 685 1169 702 Q1189 719 1211 736 Q1234 753 1256 770 Q1278 787 1296 804 Q1315 821 1327 838 Q1339 855 1342 871 Q1346 888 1341 905" stroke="#D8C08E" stroke-width="1.60" stroke-opacity="0.29" fill="none" stroke-linecap="round"/><path d="M1594 -21 Q1575 18 1569 37 Q1562 56 1561 75 Q1559 94 1563 114 Q1567 133 1576 152 Q1584 171 1596 190 Q1608 209 1620 228 Q1632 248 1642 267 Q1652 286 1658 305 Q1664 324 1663 343 Q1663 362 1657 382 Q1650 401 1639 420 Q1628 439 1614 458 Q1600 477 1587 497 Q1573 516 1563 535 Q1553 554 1549 573 Q1545 592 1547 611 Q1550 631 1559 650 Q1568 669 1582 688 Q1596 707 1612 726 Q1628 745 1642 765 Q1656 784 1665 803 Q1675 822 1677 841 Q1679 860 1674 880 Q1668 899 1656 918 Q1644 937 1627 956 Q1611 975 1594 994 Q1576 1014 1562 1033" stroke="#D8C08E" stroke-width="1.55" stroke-opacity="0.41" fill="none" stroke-linecap="round"/><path d="M646 -22 Q665 18 674 38 Q682 58 687 78 Q692 98 693 118 Q694 138 691 158 Q688 178 681 198 Q673 218 663 238 Q653 258 641 278 Q629 298 617 318 Q606 338 596 358 Q586 378 581 398 Q575 418 573 438 Q572 458 576 478 Q580 498 589 519 Q598 539 610 559 Q622 579 636 599 Q649 619 663 639 Q676 659 687 679 Q698 699 705 719 Q711 739 713 759 Q714 779 709 799 Q704 819 694 839 Q684 859 670 879 Q656 899 641 919 Q625 939 610 959 Q594 979 582 999 Q570 1019 562 1039 Q555 1059 554 1079" stroke="#D8C08E" stroke-width="1.36" stroke-opacity="0.60" fill="none" stroke-linecap="round"/><path d="M949 -5 Q932 34 925 53 Q917 72 911 91 Q905 110 902 129 Q898 148 898 167 Q897 186 900 205 Q903 224 908 243 Q914 262 922 281 Q930 300 940 319 Q949 338 959 357 Q969 376 978 395 Q987 414 994 433 Q1001 452 1005 471 Q1010 491 1010 510 Q1011 529 1007 548 Q1004 567 997 586 Q990 605 981 624 Q971 643 960 662 Q949 681 937 700 Q925 719 915 738 Q904 757 896 776 Q888 795 883 814 Q879 833 878 852 Q878 871 881 890 Q885 909 893 929 Q901 948 912 967 Q923 986 936 1005 Q949 1024 963 1043" stroke="#D8C08E" stroke-width="1.51" stroke-opacity="0.50" fill="none" stroke-linecap="round"/><path d="M645 -22 Q627 15 620 34 Q613 52 609 71 Q606 89 607 108 Q608 127 614 145 Q619 164 628 182 Q637 201 648 219 Q660 238 671 256 Q683 275 692 293 Q702 312 708 331 Q714 349 716 368 Q717 386 713 405 Q710 423 701 442 Q692 460 680 479 Q668 497 655 516 Q642 535 629 553 Q617 572 607 590 Q598 609 593 627 Q589 646 590 664 Q592 683 599 701 Q606 720 618 739 Q630 757 645 776 Q659 794 674 813 Q689 831 702 850 Q715 868 723 887 Q731 905 732 924 Q734 943 729 961 Q725 980 714 998" stroke="#D8C08E" stroke-width="0.74" stroke-opacity="0.28" fill="none" stroke-linecap="round"/><path d="M1218 -10 Q1205 32 1197 53 Q1188 74 1178 95 Q1168 116 1158 137 Q1148 158 1138 179 Q1129 200 1122 222 Q1116 243 1112 264 Q1108 285 1108 306 Q1109 327 1113 348 Q1117 369 1124 390 Q1132 411 1142 433 Q1153 454 1165 475 Q1177 496 1189 517 Q1201 538 1212 559 Q1223 580 1231 601 Q1239 622 1243 644 Q1248 665 1248 686 Q1247 707 1243 728 Q1238 749 1229 770 Q1220 791 1208 812 Q1195 833 1181 854 Q1167 876 1153 897 Q1139 918 1126 939 Q1114 960 1104 981 Q1095 1002 1090 1023 Q1085 1044 1085 1065 Q1085 1087 1091 1108 Q1096 1129 1107 1150" stroke="#8f7a52" stroke-width="1.38" stroke-opacity="0.56" fill="none" stroke-linecap="round"/><path d="M1400 -32 Q1394 8 1388 27 Q1381 47 1373 67 Q1364 86 1355 106 Q1345 126 1335 146 Q1325 165 1317 185 Q1308 205 1302 224 Q1296 244 1293 264 Q1291 283 1292 303 Q1293 323 1298 343 Q1304 362 1312 382 Q1321 402 1331 421 Q1342 441 1354 461 Q1366 480 1377 500 Q1388 520 1398 540 Q1407 559 1413 579 Q1419 599 1420 618 Q1422 638 1419 658 Q1416 678 1409 697 Q1401 717 1390 737 Q1379 756 1366 776 Q1353 796 1339 815 Q1326 835 1313 855 Q1301 875 1291 894 Q1282 914 1276 934 Q1271 953 1271 973 Q1271 993 1276 1012 Q1281 1032 1291 1052" stroke="#D8C08E" stroke-width="1.96" stroke-opacity="0.41" fill="none" stroke-linecap="round"/><path d="M1703 -15 Q1722 25 1729 45 Q1737 65 1742 85 Q1746 106 1746 126 Q1747 146 1742 166 Q1738 186 1730 206 Q1722 226 1712 246 Q1701 266 1691 287 Q1680 307 1672 327 Q1663 347 1659 367 Q1655 387 1655 407 Q1656 427 1662 447 Q1668 468 1677 488 Q1687 508 1699 528 Q1711 548 1723 568 Q1735 588 1744 608 Q1752 628 1756 648 Q1760 669 1759 689 Q1757 709 1749 729 Q1742 749 1730 769 Q1718 789 1705 809 Q1691 829 1678 850 Q1666 870 1656 890 Q1647 910 1644 930 Q1641 950 1644 970 Q1647 990 1657 1010 Q1666 1031 1680 1051 Q1693 1071 1709 1091" stroke="#8f7a52" stroke-width="0.69" stroke-opacity="0.82" fill="none" stroke-linecap="round"/><path d="M149 -30 Q119 10 107 30 Q96 50 89 70 Q83 89 83 109 Q83 129 91 149 Q98 169 111 189 Q124 209 141 228 Q158 248 177 268 Q195 288 213 308 Q230 328 243 348 Q256 367 263 387 Q269 407 268 427 Q267 447 257 467 Q248 487 232 506 Q216 526 196 546 Q176 566 154 586 Q132 606 113 626 Q93 645 79 665 Q65 685 58 705 Q52 725 54 745 Q57 765 69 784 Q80 804 99 824 Q118 844 142 864 Q165 884 190 903 Q214 923 236 943 Q258 963 273 983 Q288 1003 294 1023 Q300 1042 296 1062" stroke="#D8C08E" stroke-width="1.69" stroke-opacity="0.81" fill="none" stroke-linecap="round"/><path d="M566 -17 Q579 24 582 45 Q586 65 586 86 Q586 106 583 127 Q579 147 572 168 Q566 188 557 209 Q548 229 537 250 Q527 270 517 291 Q507 311 499 332 Q491 352 486 373 Q481 393 479 414 Q478 434 481 455 Q485 475 492 496 Q499 516 509 537 Q519 557 531 578 Q543 598 554 619 Q566 639 576 660 Q587 680 593 701 Q600 721 603 742 Q605 762 603 783 Q601 803 593 824 Q586 844 575 865 Q565 885 551 906 Q538 926 524 947 Q511 967 498 988 Q486 1008 477 1029 Q468 1049 464 1070 Q460 1090 461 1111" stroke="#8f7a52" stroke-width="1.46" stroke-opacity="0.60" fill="none" stroke-linecap="round"/><path d="M2005 -6 Q1995 28 1993 45 Q1991 62 1993 79 Q1995 96 2000 113 Q2005 130 2014 147 Q2022 164 2031 182 Q2041 199 2051 216 Q2061 233 2068 250 Q2076 267 2081 284 Q2086 301 2087 318 Q2087 335 2083 352 Q2080 369 2072 386 Q2064 403 2054 420 Q2044 437 2032 454 Q2021 471 2010 488 Q1999 505 1992 522 Q1984 539 1980 556 Q1976 573 1977 590 Q1978 607 1984 624 Q1990 641 2000 658 Q2011 675 2023 692 Q2036 709 2049 726 Q2062 743 2073 760 Q2084 777 2091 794 Q2099 811 2101 828 Q2103 845 2100 862 Q2096 879 2088 896 Q2079 913 2066 930" stroke="#D8C08E" stroke-width="1.19" stroke-opacity="0.63" fill="none" stroke-linecap="round"/><path d="M-229 -50 Q-250 -17 -253 0 Q-257 17 -252 34 Q-248 50 -236 67 Q-224 84 -207 101 Q-191 118 -173 134 Q-156 151 -142 168 Q-127 185 -120 201 Q-113 218 -114 235 Q-116 252 -126 268 Q-137 285 -154 302 Q-171 319 -191 336 Q-211 352 -230 369 Q-248 386 -259 403 Q-271 419 -273 436 Q-276 453 -267 470 Q-259 487 -242 503 Q-226 520 -204 537 Q-182 554 -160 570 Q-138 587 -122 604 Q-106 621 -99 637 Q-92 654 -97 671 Q-101 688 -117 705 Q-132 721 -155 738 Q-177 755 -202 772 Q-227 788 -248 805 Q-269 822 -281 839 Q-293 856 -293 872" stroke="#8f7a52" stroke-width="1.73" stroke-opacity="0.70" fill="none" stroke-linecap="round"/><path d="M1947 -16 Q1925 24 1914 44 Q1903 65 1893 85 Q1883 105 1876 126 Q1870 146 1866 166 Q1863 187 1864 207 Q1866 227 1871 248 Q1877 268 1886 288 Q1896 309 1908 329 Q1920 349 1933 370 Q1947 390 1959 410 Q1972 431 1983 451 Q1993 471 2000 491 Q2006 512 2008 532 Q2010 552 2006 573 Q2003 593 1994 613 Q1986 634 1973 654 Q1961 674 1946 695 Q1931 715 1915 735 Q1900 756 1886 776 Q1872 796 1861 817 Q1851 837 1845 857 Q1840 878 1840 898 Q1840 918 1846 938 Q1853 959 1864 979 Q1876 999 1892 1020 Q1907 1040 1925 1060 Q1943 1081 1960 1101" stroke="#D8C08E" stroke-width="1.87" stroke-opacity="0.75" fill="none" stroke-linecap="round"/><path d="M218 -17 Q205 20 201 38 Q198 56 198 75 Q198 93 202 112 Q205 130 213 148 Q220 167 229 185 Q239 204 249 222 Q260 241 269 259 Q279 277 286 296 Q293 314 297 333 Q300 351 299 370 Q298 388 293 406 Q288 425 278 443 Q269 462 258 480 Q246 498 234 517 Q222 535 212 554 Q201 572 193 591 Q186 609 183 627 Q180 646 182 664 Q184 683 191 701 Q198 720 209 738 Q221 756 234 775 Q247 793 261 812 Q274 830 286 848 Q298 867 305 885 Q313 904 315 922 Q317 941 314 959 Q310 977 301 996" stroke="#8f7a52" stroke-width="1.78" stroke-opacity="0.42" fill="none" stroke-linecap="round"/><path d="M256 -40 Q238 -6 234 11 Q230 28 232 45 Q234 62 242 79 Q250 96 264 113 Q277 130 294 147 Q310 164 327 181 Q344 198 359 215 Q374 232 385 249 Q396 266 400 283 Q404 300 401 317 Q398 334 387 351 Q377 368 361 385 Q345 402 326 419 Q306 436 287 453 Q267 470 250 487 Q232 504 221 521 Q209 538 205 554 Q201 571 205 588 Q209 605 221 622 Q234 639 252 656 Q271 673 293 690 Q316 707 338 724 Q361 741 380 758 Q399 775 412 792 Q425 809 429 826 Q433 843 427 860 Q422 877 407 894" stroke="#D8C08E" stroke-width="2.20" stroke-opacity="0.59" fill="none" stroke-linecap="round"/><path d="M-143 -43 Q-142 -5 -135 14 Q-128 33 -116 52 Q-103 71 -86 90 Q-70 109 -52 128 Q-35 147 -20 167 Q-5 186 4 205 Q14 224 16 243 Q18 262 12 281 Q7 300 -7 319 Q-20 338 -38 357 Q-57 376 -77 395 Q-97 414 -115 433 Q-134 452 -147 471 Q-160 490 -165 509 Q-170 528 -166 548 Q-162 567 -149 586 Q-136 605 -116 624 Q-97 643 -74 662 Q-51 681 -30 700 Q-8 719 9 738 Q26 757 35 776 Q43 795 42 814 Q40 833 28 852 Q17 871 -3 890 Q-24 909 -49 929 Q-73 948 -99 967 Q-124 986 -145 1005" stroke="#8f7a52" stroke-width="0.74" stroke-opacity="0.49" fill="none" stroke-linecap="round"/><path d="M1891 -6 Q1882 27 1872 44 Q1863 60 1849 77 Q1836 93 1823 110 Q1809 126 1797 142 Q1786 159 1779 175 Q1772 192 1771 208 Q1771 225 1777 241 Q1783 258 1795 274 Q1807 291 1822 307 Q1838 324 1853 340 Q1869 356 1882 373 Q1895 389 1902 406 Q1909 422 1908 439 Q1908 455 1900 472 Q1892 488 1877 505 Q1863 521 1845 538 Q1828 554 1810 570 Q1793 587 1779 603 Q1765 620 1758 636 Q1752 653 1753 669 Q1755 686 1765 702 Q1775 719 1792 735 Q1809 751 1829 768 Q1849 784 1868 801 Q1887 817 1901 834 Q1916 850 1922 867 Q1928 883 1925 900" stroke="#D8C08E" stroke-width="1.99" stroke-opacity="0.30" fill="none" stroke-linecap="round"/><path d="M1222 -48 Q1235 -15 1245 1 Q1254 17 1264 33 Q1273 50 1281 66 Q1289 82 1293 98 Q1296 115 1295 131 Q1293 147 1287 163 Q1280 180 1270 196 Q1260 212 1249 228 Q1238 245 1228 261 Q1218 277 1213 293 Q1207 310 1207 326 Q1208 342 1214 358 Q1220 375 1230 391 Q1241 407 1253 423 Q1266 440 1278 456 Q1289 472 1297 488 Q1304 505 1306 521 Q1307 537 1302 553 Q1297 570 1286 586 Q1276 602 1262 618 Q1248 635 1235 651 Q1221 667 1211 683 Q1202 700 1198 716 Q1195 732 1198 748 Q1202 765 1213 781 Q1223 797 1238 813 Q1253 830 1268 846" stroke="#D8C08E" stroke-width="0.91" stroke-opacity="0.56" fill="none" stroke-linecap="round"/><path d="M1664 -50 Q1645 -9 1634 11 Q1623 32 1612 53 Q1601 73 1591 94 Q1582 115 1575 135 Q1569 156 1566 177 Q1563 197 1565 218 Q1567 239 1574 259 Q1580 280 1590 300 Q1600 321 1613 342 Q1625 362 1639 383 Q1652 404 1664 424 Q1677 445 1687 466 Q1696 486 1702 507 Q1708 528 1708 548 Q1709 569 1704 589 Q1699 610 1690 631 Q1680 651 1667 672 Q1653 693 1638 713 Q1623 734 1607 755 Q1592 775 1579 796 Q1566 817 1556 837 Q1547 858 1543 878 Q1540 899 1542 920 Q1544 940 1552 961 Q1561 982 1574 1002 Q1587 1023 1604 1044 Q1620 1064 1638 1085" stroke="#D8C08E" stroke-width="1.09" stroke-opacity="0.39" fill="none" stroke-linecap="round"/><path d="M-133 -26 Q-114 9 -105 27 Q-96 45 -88 62 Q-80 80 -74 97 Q-68 115 -65 133 Q-63 150 -63 168 Q-64 186 -68 203 Q-73 221 -80 238 Q-88 256 -97 274 Q-107 291 -118 309 Q-129 327 -140 344 Q-151 362 -161 379 Q-170 397 -177 415 Q-184 432 -187 450 Q-190 468 -188 485 Q-187 503 -182 520 Q-176 538 -167 556 Q-158 573 -146 591 Q-135 608 -122 626 Q-109 644 -96 661 Q-83 679 -72 697 Q-61 714 -54 732 Q-47 749 -43 767 Q-40 785 -42 802 Q-44 820 -51 838 Q-57 855 -68 873 Q-79 890 -93 908 Q-106 926 -121 943" stroke="#8f7a52" stroke-width="0.85" stroke-opacity="0.50" fill="none" stroke-linecap="round"/><path d="M1910 -23 Q1899 9 1889 26 Q1878 42 1864 58 Q1849 74 1835 90 Q1820 107 1808 123 Q1796 139 1790 155 Q1784 172 1785 188 Q1786 204 1795 220 Q1803 237 1817 253 Q1831 269 1848 285 Q1865 302 1881 318 Q1897 334 1909 350 Q1920 367 1925 383 Q1929 399 1925 415 Q1921 432 1909 448 Q1897 464 1880 480 Q1862 497 1843 513 Q1824 529 1807 545 Q1790 561 1780 578 Q1769 594 1767 610 Q1765 626 1773 643 Q1780 659 1796 675 Q1812 691 1832 708 Q1853 724 1874 740 Q1895 756 1912 773 Q1929 789 1938 805 Q1947 821 1945 838 Q1944 854 1932 870" stroke="#8f7a52" stroke-width="1.55" stroke-opacity="0.30" fill="none" stroke-linecap="round"/><path d="M1858 -16 Q1879 17 1889 33 Q1899 49 1908 65 Q1916 81 1922 98 Q1928 114 1931 130 Q1933 146 1931 162 Q1930 179 1924 195 Q1919 211 1910 227 Q1901 243 1889 260 Q1878 276 1865 292 Q1852 308 1840 324 Q1827 341 1817 357 Q1806 373 1798 389 Q1791 406 1787 422 Q1784 438 1785 454 Q1787 470 1793 487 Q1799 503 1809 519 Q1819 535 1832 551 Q1846 568 1860 584 Q1875 600 1890 616 Q1905 632 1918 649 Q1931 665 1940 681 Q1949 697 1954 713 Q1959 730 1958 746 Q1957 762 1951 778 Q1945 795 1934 811 Q1922 827 1907 843 Q1893 859 1876 876" stroke="#D8C08E" stroke-width="1.59" stroke-opacity="0.82" fill="none" stroke-linecap="round"/><path d="M-208 -39 Q-231 -0 -239 20 Q-248 39 -253 59 Q-257 79 -257 98 Q-256 118 -251 138 Q-245 157 -235 177 Q-225 197 -212 216 Q-199 236 -184 256 Q-170 275 -156 295 Q-142 315 -131 334 Q-120 354 -114 374 Q-108 393 -107 413 Q-107 433 -112 452 Q-118 472 -129 492 Q-140 511 -155 531 Q-170 551 -186 570 Q-203 590 -220 610 Q-236 629 -249 649 Q-262 669 -271 688 Q-279 708 -281 728 Q-283 747 -277 767 Q-272 787 -261 806 Q-249 826 -233 846 Q-217 865 -197 885 Q-178 905 -160 924 Q-141 944 -125 964 Q-109 983 -98 1003 Q-88 1023 -84 1042" stroke="#D8C08E" stroke-width="1.35" stroke-opacity="0.73" fill="none" stroke-linecap="round"/><path d="M-20 -21 Q-20 11 -25 27 Q-30 43 -39 59 Q-49 75 -61 91 Q-73 107 -87 123 Q-100 139 -113 155 Q-125 171 -135 187 Q-144 203 -148 219 Q-153 235 -151 251 Q-150 267 -142 283 Q-135 299 -123 315 Q-111 331 -96 346 Q-81 362 -65 378 Q-50 394 -36 410 Q-22 426 -13 442 Q-3 458 0 474 Q3 490 0 506 Q-3 522 -13 538 Q-23 554 -38 570 Q-53 586 -71 602 Q-88 618 -106 634 Q-124 650 -138 666 Q-153 682 -162 698 Q-171 714 -173 730 Q-175 746 -169 762 Q-163 778 -150 793 Q-138 809 -120 825 Q-102 841 -82 857" stroke="#8f7a52" stroke-width="1.18" stroke-opacity="0.75" fill="none" stroke-linecap="round"/><path d="M482 -46 Q461 -13 453 3 Q445 20 440 36 Q435 52 435 69 Q435 85 440 101 Q444 118 453 134 Q462 150 473 167 Q485 183 498 199 Q511 216 523 232 Q536 248 545 265 Q555 281 561 297 Q566 314 567 330 Q567 346 562 363 Q557 379 547 395 Q537 412 523 428 Q510 444 495 461 Q480 477 465 493 Q451 510 439 526 Q428 542 421 559 Q415 575 414 591 Q413 608 419 624 Q425 640 436 657 Q447 673 462 689 Q478 705 495 722 Q512 738 528 754 Q545 771 558 787 Q571 803 579 820 Q587 836 588 852" stroke="#8f7a52" stroke-width="1.45" stroke-opacity="0.48" fill="none" stroke-linecap="round"/><path d="M897 -44 Q901 -4 908 15 Q915 35 926 55 Q937 74 950 94 Q963 114 977 133 Q990 153 1001 173 Q1012 192 1019 212 Q1026 232 1026 251 Q1027 271 1022 291 Q1017 310 1006 330 Q995 350 981 369 Q966 389 950 409 Q935 428 920 448 Q906 468 895 487 Q885 507 880 527 Q876 547 879 566 Q881 586 891 606 Q900 625 915 645 Q930 665 948 684 Q965 704 983 724 Q1001 743 1015 763 Q1029 783 1038 802 Q1046 822 1047 842 Q1048 861 1041 881 Q1034 901 1020 920 Q1006 940 987 960 Q969 979 948 999 Q928 1019 910 1038" stroke="#8f7a52" stroke-width="1.68" stroke-opacity="0.79" fill="none" stroke-linecap="round"/><path d="M2040 -7 Q2024 35 2018 56 Q2012 77 2008 98 Q2005 119 2005 140 Q2005 161 2009 182 Q2013 203 2020 224 Q2027 245 2036 266 Q2045 287 2054 308 Q2064 329 2071 350 Q2079 371 2084 392 Q2089 413 2090 434 Q2091 455 2087 476 Q2084 497 2077 518 Q2069 539 2060 560 Q2050 581 2039 602 Q2028 623 2019 644 Q2009 665 2002 687 Q1996 708 1993 729 Q1991 750 1994 771 Q1997 792 2004 813 Q2011 834 2022 855 Q2032 876 2044 897 Q2056 918 2068 939 Q2079 960 2088 981 Q2096 1002 2100 1023 Q2104 1044 2102 1065 Q2101 1086 2094 1107 Q2087 1128 2076 1149" stroke="#D8C08E" stroke-width="1.45" stroke-opacity="0.49" fill="none" stroke-linecap="round"/><path d="M2047 -36 Q2028 5 2021 26 Q2014 46 2010 67 Q2007 87 2008 108 Q2009 128 2014 148 Q2020 169 2029 189 Q2038 210 2049 230 Q2060 251 2070 271 Q2080 292 2086 312 Q2093 333 2095 353 Q2097 373 2094 394 Q2090 414 2082 435 Q2074 455 2062 476 Q2051 496 2039 517 Q2027 537 2017 557 Q2007 578 2001 598 Q1995 619 1996 639 Q1996 660 2002 680 Q2008 701 2019 721 Q2030 742 2044 762 Q2057 782 2070 803 Q2083 823 2093 844 Q2102 864 2106 885 Q2110 905 2107 926 Q2104 946 2094 967 Q2085 987 2071 1007 Q2058 1028 2042 1048 Q2027 1069 2014 1089" stroke="#D8C08E" stroke-width="1.81" stroke-opacity="0.60" fill="none" stroke-linecap="round"/><path d="M520 -38 Q508 -4 498 13 Q488 30 475 47 Q463 64 450 81 Q437 98 427 114 Q417 131 411 148 Q405 165 404 182 Q404 199 410 216 Q416 233 427 250 Q438 267 452 284 Q466 301 481 318 Q496 335 509 352 Q522 369 530 386 Q538 403 540 420 Q541 437 536 453 Q531 470 519 487 Q508 504 492 521 Q476 538 459 555 Q442 572 427 589 Q412 606 401 623 Q391 640 387 657 Q384 674 388 691 Q392 708 404 725 Q416 742 432 759 Q449 776 468 792 Q488 809 505 826 Q523 843 536 860 Q549 877 555 894" stroke="#D8C08E" stroke-width="1.44" stroke-opacity="0.71" fill="none" stroke-linecap="round"/><path d="M316 -17 Q324 24 333 45 Q341 66 355 87 Q368 108 383 129 Q398 149 414 170 Q429 191 442 212 Q455 233 463 254 Q471 274 474 295 Q476 316 472 337 Q468 358 457 379 Q447 399 431 420 Q416 441 398 462 Q380 483 362 503 Q344 524 329 545 Q314 566 304 587 Q294 608 291 628 Q288 649 293 670 Q298 691 310 712 Q322 733 340 753 Q357 774 378 795 Q399 816 419 837 Q440 858 457 878 Q475 899 486 920 Q497 941 501 962 Q504 983 499 1003 Q494 1024 480 1045 Q467 1066 447 1087 Q427 1108 404 1128" stroke="#D8C08E" stroke-width="0.89" stroke-opacity="0.67" fill="none" stroke-linecap="round"/><path d="M1873 -43 Q1892 -7 1899 10 Q1905 28 1907 46 Q1908 63 1905 81 Q1902 98 1894 116 Q1886 134 1874 151 Q1862 169 1848 187 Q1834 204 1820 222 Q1806 239 1794 257 Q1781 275 1773 292 Q1765 310 1762 328 Q1759 345 1763 363 Q1766 381 1774 398 Q1783 416 1797 433 Q1810 451 1826 469 Q1842 486 1859 504 Q1875 522 1890 539 Q1904 557 1915 574 Q1925 592 1929 610 Q1933 627 1931 645 Q1928 663 1919 680 Q1910 698 1895 716 Q1880 733 1862 751 Q1844 768 1825 786 Q1806 804 1789 821 Q1772 839 1759 857 Q1747 874 1741 892 Q1735 909 1737 927" stroke="#D8C08E" stroke-width="1.11" stroke-opacity="0.44" fill="none" stroke-linecap="round"/><path d="M511 -20 Q482 21 465 42 Q448 63 432 84 Q417 105 407 126 Q397 147 394 168 Q392 189 399 210 Q406 231 420 252 Q434 273 453 294 Q472 315 491 336 Q510 356 525 377 Q539 398 546 419 Q553 440 550 461 Q547 482 534 503 Q521 524 502 545 Q482 566 460 587 Q438 608 419 629 Q399 650 387 671 Q375 692 374 712 Q372 733 382 754 Q392 775 411 796 Q429 817 454 838 Q478 859 501 880 Q525 901 542 922 Q560 943 567 964 Q574 985 569 1006 Q564 1027 547 1047 Q530 1068 505 1089 Q481 1110 454 1131" stroke="#8f7a52" stroke-width="1.62" stroke-opacity="0.45" fill="none" stroke-linecap="round"/><path d="M1645 -46 Q1659 -11 1667 7 Q1675 25 1682 42 Q1689 60 1696 78 Q1702 95 1706 113 Q1711 131 1712 149 Q1714 166 1713 184 Q1712 202 1708 219 Q1704 237 1698 255 Q1692 272 1683 290 Q1675 308 1666 326 Q1657 343 1647 361 Q1638 379 1630 396 Q1622 414 1617 432 Q1611 449 1608 467 Q1605 485 1605 503 Q1605 520 1609 538 Q1613 556 1620 573 Q1627 591 1636 609 Q1645 627 1656 644 Q1667 662 1677 680 Q1688 697 1698 715 Q1708 733 1716 750 Q1723 768 1728 786 Q1732 804 1733 821 Q1733 839 1730 857 Q1727 874 1719 892 Q1712 910 1702 927" stroke="#8f7a52" stroke-width="1.41" stroke-opacity="0.47" fill="none" stroke-linecap="round"/><path d="M-31 -20 Q-50 22 -58 42 Q-67 63 -72 84 Q-78 105 -79 126 Q-81 146 -77 167 Q-74 188 -67 209 Q-60 230 -49 250 Q-39 271 -29 292 Q-18 313 -9 333 Q0 354 6 375 Q11 396 12 417 Q12 437 7 458 Q2 479 -7 500 Q-16 520 -28 541 Q-40 562 -51 583 Q-63 604 -73 624 Q-83 645 -88 666 Q-93 687 -92 708 Q-91 728 -85 749 Q-78 770 -67 791 Q-56 811 -42 832 Q-29 853 -16 874 Q-3 895 7 915 Q17 936 21 957 Q26 978 23 999 Q21 1019 13 1040 Q4 1061 -9 1082 Q-22 1102 -37 1123" stroke="#D8C08E" stroke-width="0.68" stroke-opacity="0.45" fill="none" stroke-linecap="round"/><path d="M1968 -44 Q1959 -6 1959 13 Q1959 32 1964 51 Q1969 70 1979 89 Q1989 109 2002 128 Q2015 147 2030 166 Q2044 185 2058 204 Q2071 223 2082 242 Q2092 261 2098 280 Q2103 299 2103 318 Q2102 337 2096 356 Q2089 375 2078 395 Q2066 414 2050 433 Q2035 452 2018 471 Q2001 490 1985 509 Q1970 528 1958 547 Q1946 566 1940 585 Q1934 604 1934 623 Q1935 642 1943 662 Q1951 681 1965 700 Q1978 719 1996 738 Q2014 757 2034 776 Q2053 795 2071 814 Q2088 833 2102 852 Q2115 871 2122 890 Q2128 909 2127 928 Q2126 948 2117 967 Q2108 986 2092 1005" stroke="#D8C08E" stroke-width="1.80" stroke-opacity="0.62" fill="none" stroke-linecap="round"/><path d="M1865 -1 Q1839 33 1828 50 Q1816 67 1810 84 Q1804 101 1804 118 Q1804 135 1811 152 Q1819 169 1831 186 Q1844 203 1859 220 Q1874 237 1887 254 Q1901 271 1910 288 Q1919 305 1920 322 Q1922 339 1915 356 Q1909 373 1896 390 Q1883 407 1866 424 Q1850 441 1834 458 Q1817 475 1806 492 Q1794 509 1791 526 Q1787 543 1792 560 Q1797 577 1810 594 Q1823 611 1841 628 Q1859 645 1877 662 Q1896 679 1910 696 Q1924 713 1931 730 Q1938 747 1934 764 Q1931 781 1919 798 Q1906 815 1887 832 Q1869 849 1848 866 Q1827 883 1810 900 Q1792 917 1783 934" stroke="#8f7a52" stroke-width="1.04" stroke-opacity="0.56" fill="none" stroke-linecap="round"/><path d="M1406 -24 Q1396 13 1388 32 Q1380 50 1370 69 Q1360 87 1349 106 Q1338 125 1327 143 Q1316 162 1307 181 Q1298 199 1291 218 Q1284 236 1281 255 Q1278 274 1279 292 Q1280 311 1285 329 Q1291 348 1299 367 Q1308 385 1320 404 Q1332 423 1345 441 Q1358 460 1371 478 Q1384 497 1396 516 Q1408 534 1416 553 Q1425 571 1430 590 Q1434 609 1434 627 Q1434 646 1429 665 Q1424 683 1414 702 Q1404 720 1391 739 Q1378 758 1363 776 Q1348 795 1332 813 Q1317 832 1303 851 Q1289 869 1278 888 Q1267 906 1260 925 Q1254 944 1253 962 Q1252 981 1257 1000" stroke="#D8C08E" stroke-width="1.33" stroke-opacity="0.75" fill="none" stroke-linecap="round"/><path d="M2009 -32 Q1985 8 1972 28 Q1960 48 1948 68 Q1936 88 1927 108 Q1918 128 1912 148 Q1907 168 1905 188 Q1904 208 1908 228 Q1911 248 1919 268 Q1927 288 1939 308 Q1951 328 1966 348 Q1980 368 1995 388 Q2011 408 2025 428 Q2040 448 2052 468 Q2064 488 2072 508 Q2080 528 2082 548 Q2085 568 2082 588 Q2079 608 2071 628 Q2062 648 2049 668 Q2036 688 2019 708 Q2003 728 1985 748 Q1967 768 1950 788 Q1932 808 1917 828 Q1902 848 1892 868 Q1881 888 1877 908 Q1872 928 1874 948 Q1876 968 1884 988 Q1892 1008 1906 1028 Q1920 1048 1939 1068" stroke="#D8C08E" stroke-width="0.96" stroke-opacity="0.27" fill="none" stroke-linecap="round"/><path d="M1519 -7 Q1506 30 1504 48 Q1501 67 1502 85 Q1504 104 1509 122 Q1514 140 1523 159 Q1532 177 1543 196 Q1555 214 1567 233 Q1579 251 1591 270 Q1602 288 1612 307 Q1621 325 1627 343 Q1632 362 1634 380 Q1635 399 1631 417 Q1628 436 1620 454 Q1611 473 1600 491 Q1588 509 1574 528 Q1560 546 1546 565 Q1531 583 1519 602 Q1506 620 1496 639 Q1487 657 1482 675 Q1478 694 1479 712 Q1480 731 1486 749 Q1492 768 1504 786 Q1515 805 1530 823 Q1545 841 1561 860 Q1578 878 1594 897 Q1610 915 1623 934 Q1636 952 1645 971 Q1653 989 1656 1008" stroke="#8f7a52" stroke-width="1.30" stroke-opacity="0.42" fill="none" stroke-linecap="round"/><path d="M1810 -2 Q1800 35 1794 54 Q1788 73 1781 92 Q1775 111 1769 130 Q1763 149 1758 168 Q1753 187 1750 206 Q1747 225 1746 244 Q1745 262 1747 281 Q1749 300 1752 319 Q1756 338 1762 357 Q1768 376 1776 395 Q1783 414 1790 433 Q1798 452 1805 471 Q1813 489 1819 508 Q1824 527 1828 546 Q1832 565 1833 584 Q1834 603 1832 622 Q1831 641 1826 660 Q1821 679 1815 698 Q1808 716 1799 735 Q1791 754 1782 773 Q1773 792 1764 811 Q1756 830 1749 849 Q1742 868 1737 887 Q1733 906 1732 924 Q1730 943 1732 962 Q1734 981 1739 1000 Q1744 1019 1752 1038" stroke="#D8C08E" stroke-width="1.72" stroke-opacity="0.85" fill="none" stroke-linecap="round"/><path d="M817 -40 Q832 1 837 21 Q843 41 846 61 Q849 82 849 102 Q849 122 847 142 Q844 162 838 183 Q832 203 824 223 Q816 243 807 264 Q798 284 789 304 Q779 324 771 344 Q762 365 756 385 Q750 405 747 425 Q744 446 744 466 Q744 486 748 506 Q752 526 760 547 Q767 567 777 587 Q786 607 798 628 Q809 648 819 668 Q830 688 840 708 Q849 729 856 749 Q863 769 866 789 Q869 810 868 830 Q866 850 861 870 Q856 891 847 911 Q838 931 826 951 Q815 971 802 992 Q789 1012 777 1032 Q764 1052 754 1073" stroke="#D8C08E" stroke-width="1.67" stroke-opacity="0.61" fill="none" stroke-linecap="round"/><path d="M1622 -10 Q1601 24 1586 41 Q1571 57 1555 74 Q1538 91 1524 108 Q1509 125 1501 142 Q1492 159 1492 175 Q1492 192 1500 209 Q1508 226 1523 243 Q1538 260 1556 277 Q1575 294 1593 310 Q1611 327 1625 344 Q1638 361 1644 378 Q1649 395 1645 412 Q1640 428 1627 445 Q1614 462 1594 479 Q1575 496 1553 513 Q1532 530 1513 546 Q1495 563 1484 580 Q1473 597 1472 614 Q1471 631 1482 648 Q1492 665 1510 681 Q1529 698 1553 715 Q1576 732 1599 749 Q1622 766 1639 783 Q1656 799 1663 816 Q1669 833 1664 850 Q1659 867 1643 884 Q1626 901 1602 917" stroke="#D8C08E" stroke-width="0.92" stroke-opacity="0.61" fill="none" stroke-linecap="round"/><path d="M1078 -36 Q1092 -1 1101 16 Q1110 34 1119 51 Q1128 69 1136 86 Q1145 104 1151 121 Q1158 139 1161 156 Q1165 174 1165 191 Q1165 209 1161 226 Q1157 244 1150 261 Q1143 279 1134 296 Q1124 314 1113 331 Q1102 349 1092 366 Q1081 384 1072 401 Q1063 419 1057 436 Q1051 454 1049 471 Q1047 489 1050 506 Q1052 524 1059 541 Q1065 559 1075 576 Q1085 594 1097 611 Q1110 629 1122 646 Q1135 664 1146 681 Q1158 699 1166 716 Q1175 734 1179 751 Q1184 769 1184 786 Q1183 804 1178 821 Q1172 839 1163 856 Q1153 874 1140 891 Q1127 909 1113 926" stroke="#D8C08E" stroke-width="1.97" stroke-opacity="0.83" fill="none" stroke-linecap="round"/><path d="M721 -7 Q747 29 762 46 Q778 64 793 81 Q808 99 818 116 Q828 134 831 151 Q834 169 829 187 Q823 204 811 222 Q798 239 781 257 Q763 274 746 292 Q728 310 714 327 Q701 345 694 362 Q688 380 691 397 Q694 415 706 432 Q718 450 736 468 Q755 485 775 503 Q795 520 813 538 Q830 555 840 573 Q850 591 850 608 Q850 626 840 643 Q829 661 811 678 Q792 696 770 713 Q748 731 727 749 Q706 766 691 784 Q677 801 673 819 Q669 836 677 854 Q685 872 703 889 Q721 907 745 924 Q769 942 793 959" stroke="#D8C08E" stroke-width="1.48" stroke-opacity="0.29" fill="none" stroke-linecap="round"/><path d="M-174 -25 Q-164 11 -155 29 Q-147 47 -136 64 Q-125 82 -113 100 Q-101 118 -89 136 Q-78 154 -69 171 Q-60 189 -54 207 Q-49 225 -48 243 Q-47 261 -51 278 Q-55 296 -64 314 Q-72 332 -84 350 Q-96 367 -110 385 Q-124 403 -138 421 Q-152 439 -164 457 Q-176 474 -185 492 Q-193 510 -197 528 Q-200 546 -198 564 Q-196 581 -188 599 Q-181 617 -168 635 Q-156 653 -140 670 Q-125 688 -109 706 Q-92 724 -77 742 Q-62 760 -50 777 Q-38 795 -31 813 Q-24 831 -24 849 Q-24 867 -30 884 Q-36 902 -48 920 Q-59 938 -76 956" stroke="#D8C08E" stroke-width="1.52" stroke-opacity="0.42" fill="none" stroke-linecap="round"/><path d="M1481 -39 Q1485 2 1491 22 Q1497 42 1508 62 Q1518 83 1530 103 Q1542 123 1553 143 Q1565 164 1574 184 Q1582 204 1587 224 Q1591 245 1590 265 Q1588 285 1582 305 Q1575 326 1564 346 Q1552 366 1539 386 Q1525 406 1511 427 Q1498 447 1487 467 Q1476 487 1471 508 Q1465 528 1466 548 Q1466 568 1473 589 Q1480 609 1492 629 Q1505 649 1520 670 Q1535 690 1551 710 Q1566 730 1579 751 Q1592 771 1599 791 Q1607 811 1607 832 Q1607 852 1600 872 Q1593 892 1580 913 Q1567 933 1550 953 Q1533 973 1516 993 Q1498 1014 1483 1034 Q1469 1054 1459 1074" stroke="#D8C08E" stroke-width="1.98" stroke-opacity="0.36" fill="none" stroke-linecap="round"/><path d="M-83 -18 Q-86 23 -93 43 Q-99 64 -110 85 Q-121 105 -134 126 Q-148 146 -163 167 Q-178 187 -191 208 Q-205 229 -216 249 Q-227 270 -233 290 Q-239 311 -240 332 Q-240 352 -234 373 Q-229 393 -218 414 Q-207 434 -191 455 Q-176 476 -159 496 Q-142 517 -125 537 Q-108 558 -93 579 Q-79 599 -70 620 Q-61 640 -58 661 Q-55 681 -59 702 Q-63 723 -73 743 Q-84 764 -100 784 Q-116 805 -136 826 Q-155 846 -175 867 Q-195 887 -213 908 Q-231 928 -244 949 Q-257 970 -263 990 Q-269 1011 -267 1031 Q-266 1052 -256 1073 Q-246 1093 -230 1114" stroke="#8f7a52" stroke-width="1.32" stroke-opacity="0.73" fill="none" stroke-linecap="round"/><path d="M1326 -16 Q1314 23 1306 42 Q1299 62 1291 81 Q1283 100 1275 120 Q1268 139 1261 159 Q1255 178 1251 197 Q1248 217 1247 236 Q1246 256 1248 275 Q1250 294 1255 314 Q1260 333 1268 353 Q1275 372 1284 391 Q1294 411 1303 430 Q1313 450 1322 469 Q1331 488 1338 508 Q1345 527 1349 547 Q1353 566 1354 585 Q1355 605 1352 624 Q1349 644 1343 663 Q1337 682 1328 702 Q1318 721 1308 741 Q1297 760 1286 780 Q1274 799 1264 818 Q1254 838 1246 857 Q1238 877 1233 896 Q1229 915 1228 935 Q1228 954 1231 974 Q1235 993 1243 1012 Q1250 1032 1261 1051" stroke="#8f7a52" stroke-width="1.49" stroke-opacity="0.30" fill="none" stroke-linecap="round"/><path d="M793 -8 Q760 28 742 46 Q725 64 712 82 Q698 100 691 119 Q684 137 686 155 Q688 173 698 191 Q709 209 726 227 Q743 245 763 263 Q783 281 801 299 Q820 318 832 336 Q844 354 847 372 Q850 390 842 408 Q835 426 819 444 Q802 462 781 480 Q759 498 737 516 Q715 535 697 553 Q680 571 671 589 Q662 607 665 625 Q668 643 681 661 Q695 679 717 697 Q738 715 764 734 Q789 752 812 770 Q834 788 849 806 Q864 824 868 842 Q871 860 862 878 Q853 896 832 914 Q812 933 785 951 Q759 969 731 987" stroke="#D8C08E" stroke-width="1.87" stroke-opacity="0.84" fill="none" stroke-linecap="round"/><path d="M1622 -39 Q1635 -5 1645 12 Q1654 29 1666 46 Q1677 62 1689 79 Q1700 96 1709 113 Q1719 130 1725 147 Q1730 164 1731 181 Q1732 198 1728 215 Q1724 232 1716 249 Q1707 266 1695 282 Q1683 299 1669 316 Q1656 333 1643 350 Q1630 367 1620 384 Q1610 401 1604 418 Q1599 435 1599 452 Q1599 469 1605 486 Q1611 502 1622 519 Q1633 536 1648 553 Q1662 570 1678 587 Q1694 604 1708 621 Q1722 638 1733 655 Q1743 672 1748 689 Q1753 706 1751 722 Q1749 739 1741 756 Q1732 773 1719 790 Q1705 807 1688 824 Q1671 841 1654 858 Q1636 875 1621 892" stroke="#D8C08E" stroke-width="1.60" stroke-opacity="0.79" fill="none" stroke-linecap="round"/><path d="M374 -29 Q371 3 372 19 Q373 35 378 51 Q383 67 390 83 Q397 99 406 115 Q415 131 424 147 Q434 163 442 179 Q451 195 457 211 Q463 227 466 243 Q470 259 469 275 Q468 291 463 307 Q459 323 451 339 Q443 355 433 371 Q423 387 412 403 Q400 419 390 435 Q380 451 372 467 Q364 483 359 499 Q354 515 354 532 Q354 548 358 564 Q363 580 371 596 Q379 612 390 628 Q402 644 414 660 Q427 676 439 692 Q451 708 462 724 Q472 740 478 756 Q484 772 486 788 Q487 804 483 820 Q480 836 471 852" stroke="#8f7a52" stroke-width="1.32" stroke-opacity="0.69" fill="none" stroke-linecap="round"/><path d="M1421 -7 Q1442 25 1452 41 Q1462 57 1469 73 Q1477 89 1481 105 Q1485 121 1484 137 Q1483 153 1477 169 Q1471 185 1461 201 Q1452 217 1440 233 Q1428 249 1416 265 Q1404 282 1395 298 Q1385 314 1380 330 Q1375 346 1375 362 Q1376 378 1382 394 Q1388 410 1399 426 Q1409 442 1423 458 Q1436 474 1450 490 Q1463 506 1475 522 Q1486 538 1493 554 Q1499 570 1500 586 Q1500 602 1494 618 Q1488 635 1476 651 Q1465 667 1450 683 Q1435 699 1420 715 Q1404 731 1391 747 Q1378 763 1370 779 Q1362 795 1360 811 Q1359 827 1364 843 Q1370 859 1382 875" stroke="#D8C08E" stroke-width="0.85" stroke-opacity="0.74" fill="none" stroke-linecap="round"/><path d="M1082 -29 Q1101 6 1107 23 Q1113 41 1113 58 Q1114 76 1108 94 Q1103 111 1093 129 Q1083 146 1070 164 Q1057 181 1046 199 Q1034 216 1026 234 Q1017 251 1015 269 Q1013 286 1017 304 Q1022 321 1032 339 Q1042 356 1056 374 Q1070 392 1084 409 Q1098 427 1108 444 Q1119 462 1124 479 Q1128 497 1125 514 Q1122 532 1112 549 Q1102 567 1088 584 Q1073 602 1057 619 Q1041 637 1028 654 Q1015 672 1008 690 Q1001 707 1002 725 Q1002 742 1012 760 Q1021 777 1036 795 Q1051 812 1068 830 Q1086 847 1102 865 Q1118 882 1128 900 Q1138 917 1139 935" stroke="#8f7a52" stroke-width="0.84" stroke-opacity="0.34" fill="none" stroke-linecap="round"/><path d="M31 -38 Q31 3 27 24 Q23 45 14 66 Q6 87 -6 107 Q-17 128 -31 149 Q-44 170 -58 191 Q-71 211 -83 232 Q-94 253 -102 274 Q-111 295 -114 315 Q-118 336 -116 357 Q-114 378 -107 399 Q-100 419 -89 440 Q-77 461 -62 482 Q-48 503 -32 523 Q-16 544 -0 565 Q15 586 28 607 Q40 627 48 648 Q56 669 58 690 Q60 711 56 731 Q52 752 42 773 Q32 794 17 815 Q2 835 -16 856 Q-34 877 -52 898 Q-71 919 -88 939 Q-105 960 -117 981 Q-130 1002 -137 1023 Q-144 1043 -144 1064 Q-144 1085 -137 1106" stroke="#8f7a52" stroke-width="0.89" stroke-opacity="0.62" fill="none" stroke-linecap="round"/><path d="M426 -37 Q437 -3 435 15 Q433 32 423 50 Q413 67 398 85 Q383 102 365 119 Q347 137 330 154 Q313 172 300 189 Q287 207 282 224 Q276 241 280 259 Q283 276 295 294 Q306 311 324 329 Q342 346 363 363 Q384 381 403 398 Q422 416 436 433 Q450 450 456 468 Q461 485 457 503 Q452 520 438 538 Q424 555 404 572 Q383 590 359 607 Q336 625 314 642 Q293 660 278 677 Q263 694 258 712 Q252 729 258 747 Q264 764 280 782 Q297 799 320 816 Q344 834 370 851 Q396 869 420 886 Q443 904 459 921" stroke="#8f7a52" stroke-width="1.14" stroke-opacity="0.61" fill="none" stroke-linecap="round"/><path d="M1120 -35 Q1108 3 1100 22 Q1092 41 1082 60 Q1073 79 1064 98 Q1055 117 1047 136 Q1039 155 1034 174 Q1028 193 1026 213 Q1023 232 1024 251 Q1025 270 1030 289 Q1034 308 1042 327 Q1050 346 1060 365 Q1070 384 1081 403 Q1092 422 1103 441 Q1114 460 1123 479 Q1132 498 1139 518 Q1145 537 1148 556 Q1150 575 1149 594 Q1147 613 1142 632 Q1136 651 1127 670 Q1118 689 1106 708 Q1094 727 1081 746 Q1068 765 1056 784 Q1043 803 1032 822 Q1022 842 1015 861 Q1007 880 1005 899 Q1002 918 1004 937 Q1006 956 1012 975 Q1019 994 1030 1013" stroke="#D8C08E" stroke-width="0.86" stroke-opacity="0.45" fill="none" stroke-linecap="round"/><path d="M1185 -45 Q1195 -12 1196 4 Q1197 20 1194 36 Q1191 52 1183 68 Q1176 84 1167 100 Q1157 117 1147 133 Q1137 149 1129 165 Q1121 181 1117 197 Q1112 213 1113 229 Q1113 245 1118 262 Q1124 278 1133 294 Q1142 310 1154 326 Q1165 342 1176 358 Q1187 374 1195 390 Q1203 407 1206 423 Q1209 439 1207 455 Q1205 471 1197 487 Q1189 503 1178 519 Q1166 535 1153 552 Q1140 568 1129 584 Q1118 600 1110 616 Q1103 632 1101 648 Q1100 664 1104 680 Q1109 697 1119 713 Q1130 729 1143 745 Q1157 761 1171 777 Q1185 793 1197 809 Q1208 825 1214 842" stroke="#D8C08E" stroke-width="1.83" stroke-opacity="0.84" fill="none" stroke-linecap="round"/><path d="M424 -23 Q436 17 445 36 Q453 56 464 76 Q474 96 485 116 Q496 136 505 156 Q515 176 522 196 Q529 215 532 235 Q535 255 535 275 Q534 295 528 315 Q523 335 514 355 Q505 374 494 394 Q482 414 469 434 Q457 454 444 474 Q432 494 422 514 Q412 534 406 553 Q399 573 398 593 Q396 613 400 633 Q403 653 411 673 Q420 693 432 713 Q444 732 458 752 Q472 772 487 792 Q502 812 515 832 Q528 852 538 872 Q548 892 552 911 Q557 931 557 951 Q556 971 549 991 Q543 1011 531 1031 Q519 1051 504 1071" stroke="#8f7a52" stroke-width="1.20" stroke-opacity="0.72" fill="none" stroke-linecap="round"/><path d="M1787 -53 Q1776 -21 1776 -5 Q1775 11 1779 28 Q1783 44 1791 60 Q1799 76 1809 92 Q1820 109 1830 125 Q1840 141 1848 157 Q1855 174 1859 190 Q1862 206 1860 222 Q1858 238 1851 255 Q1844 271 1833 287 Q1822 303 1810 320 Q1798 336 1788 352 Q1777 368 1771 384 Q1765 401 1764 417 Q1763 433 1769 449 Q1774 465 1785 482 Q1795 498 1808 514 Q1821 530 1834 547 Q1847 563 1857 579 Q1866 595 1870 611 Q1874 628 1871 644 Q1868 660 1859 676 Q1850 693 1836 709 Q1823 725 1808 741 Q1793 757 1780 774 Q1768 790 1760 806 Q1753 822 1752 838" stroke="#8f7a52" stroke-width="0.80" stroke-opacity="0.62" fill="none" stroke-linecap="round"/><path d="M807 -32 Q828 1 842 17 Q856 33 870 50 Q885 66 899 82 Q912 98 922 115 Q931 131 935 147 Q939 164 936 180 Q933 196 924 213 Q915 229 901 245 Q887 262 870 278 Q853 294 836 311 Q819 327 805 343 Q791 360 782 376 Q773 392 771 408 Q769 425 775 441 Q781 457 794 474 Q807 490 825 506 Q842 523 862 539 Q882 555 901 572 Q920 588 934 604 Q948 621 955 637 Q963 653 962 670 Q960 686 951 702 Q941 718 924 735 Q907 751 886 767 Q865 784 842 800 Q820 816 800 833 Q780 849 767 865" stroke="#8f7a52" stroke-width="1.71" stroke-opacity="0.35" fill="none" stroke-linecap="round"/><path d="M21 -26 Q37 11 46 30 Q54 49 61 67 Q67 86 70 105 Q73 123 72 142 Q70 161 65 180 Q59 198 51 217 Q42 236 32 254 Q22 273 13 292 Q4 311 -1 329 Q-7 348 -8 367 Q-10 385 -6 404 Q-2 423 6 442 Q14 460 25 479 Q36 498 47 516 Q58 535 67 554 Q75 573 80 591 Q84 610 83 629 Q81 647 75 666 Q68 685 57 704 Q47 722 34 741 Q21 760 10 778 Q-1 797 -9 816 Q-17 835 -19 853 Q-21 872 -17 891 Q-12 909 -3 928 Q7 947 20 966 Q33 984 47 1003" stroke="#8f7a52" stroke-width="1.60" stroke-opacity="0.69" fill="none" stroke-linecap="round"/><path d="M-80 -43 Q-114 -3 -131 17 Q-148 37 -162 57 Q-175 77 -182 97 Q-190 117 -189 137 Q-188 157 -180 177 Q-171 197 -155 217 Q-140 237 -120 257 Q-100 277 -80 297 Q-60 317 -43 337 Q-26 357 -16 377 Q-6 397 -4 417 Q-3 437 -11 457 Q-19 477 -36 497 Q-52 517 -74 537 Q-96 557 -119 578 Q-142 598 -163 618 Q-183 638 -197 658 Q-211 678 -214 698 Q-218 718 -211 738 Q-205 758 -188 778 Q-171 798 -148 818 Q-124 838 -98 858 Q-71 878 -47 898 Q-23 918 -6 938 Q11 958 18 978 Q25 998 20 1018 Q15 1038 -1 1058" stroke="#D8C08E" stroke-width="2.09" stroke-opacity="0.29" fill="none" stroke-linecap="round"/><path d="M472 -23 Q471 9 474 26 Q476 42 482 58 Q488 74 495 90 Q503 107 512 123 Q521 139 529 155 Q537 172 543 188 Q550 204 553 220 Q556 237 556 253 Q555 269 551 285 Q547 301 539 318 Q532 334 522 350 Q512 366 502 383 Q492 399 483 415 Q474 431 468 448 Q461 464 459 480 Q456 496 458 512 Q460 529 466 545 Q472 561 482 577 Q491 594 503 610 Q514 626 525 642 Q537 659 546 675 Q556 691 562 707 Q568 723 569 740 Q571 756 567 772 Q564 788 555 805 Q547 821 536 837 Q524 853 511 870" stroke="#D8C08E" stroke-width="2.11" stroke-opacity="0.40" fill="none" stroke-linecap="round"/><path d="M1659 -17 Q1683 23 1694 44 Q1705 64 1712 84 Q1719 104 1721 124 Q1722 145 1717 165 Q1713 185 1702 205 Q1692 226 1679 246 Q1665 266 1651 286 Q1638 307 1627 327 Q1616 347 1611 367 Q1606 387 1608 408 Q1610 428 1619 448 Q1627 468 1641 489 Q1655 509 1671 529 Q1687 549 1701 570 Q1715 590 1724 610 Q1734 630 1736 650 Q1738 671 1732 691 Q1726 711 1713 731 Q1700 752 1683 772 Q1666 792 1649 812 Q1631 833 1618 853 Q1604 873 1597 893 Q1591 913 1593 934 Q1595 954 1606 974 Q1616 994 1633 1015 Q1650 1035 1670 1055 Q1689 1075 1707 1096" stroke="#8f7a52" stroke-width="1.67" stroke-opacity="0.64" fill="none" stroke-linecap="round"/><path d="M1177 -54 Q1156 -12 1141 9 Q1127 30 1111 51 Q1095 72 1081 93 Q1068 114 1059 135 Q1050 155 1049 176 Q1047 197 1054 218 Q1060 239 1073 260 Q1086 281 1103 302 Q1121 323 1139 343 Q1157 364 1172 385 Q1187 406 1196 427 Q1204 448 1205 469 Q1205 490 1196 511 Q1188 531 1172 552 Q1156 573 1136 594 Q1116 615 1095 636 Q1075 657 1059 678 Q1043 699 1035 719 Q1026 740 1028 761 Q1029 782 1040 803 Q1051 824 1070 845 Q1089 866 1112 887 Q1135 907 1157 928 Q1179 949 1196 970 Q1213 991 1220 1012 Q1228 1033 1225 1054 Q1221 1075 1207 1095" stroke="#D8C08E" stroke-width="0.67" stroke-opacity="0.39" fill="none" stroke-linecap="round"/><path d="M1623 -32 Q1620 7 1614 27 Q1609 47 1601 66 Q1592 86 1582 106 Q1573 125 1564 145 Q1554 165 1548 184 Q1542 204 1540 224 Q1537 243 1540 263 Q1543 283 1550 302 Q1557 322 1567 342 Q1577 361 1588 381 Q1600 401 1610 420 Q1620 440 1626 460 Q1633 479 1634 499 Q1635 519 1631 538 Q1627 558 1618 578 Q1610 597 1598 617 Q1586 637 1573 656 Q1560 676 1550 696 Q1539 715 1533 735 Q1527 755 1526 774 Q1526 794 1531 814 Q1537 833 1548 853 Q1558 873 1572 892 Q1586 912 1600 932 Q1614 951 1625 971 Q1636 991 1642 1010 Q1648 1030 1647 1050" stroke="#8f7a52" stroke-width="0.71" stroke-opacity="0.29" fill="none" stroke-linecap="round"/><path d="M935 -41 Q958 -1 969 19 Q981 39 990 59 Q1000 79 1005 99 Q1009 119 1008 139 Q1008 160 1001 180 Q994 200 983 220 Q972 240 958 260 Q944 280 931 300 Q918 320 909 340 Q899 361 895 381 Q891 401 894 421 Q897 441 906 461 Q915 481 929 501 Q943 521 958 541 Q974 561 988 582 Q1002 602 1011 622 Q1021 642 1023 662 Q1026 682 1021 702 Q1016 722 1004 742 Q992 762 976 783 Q960 803 943 823 Q925 843 910 863 Q896 883 887 903 Q878 923 877 943 Q876 963 884 984 Q891 1004 906 1024 Q921 1044 939 1064" stroke="#8f7a52" stroke-width="1.61" stroke-opacity="0.51" fill="none" stroke-linecap="round"/><path d="M2117 -20 Q2119 18 2117 38 Q2114 57 2109 76 Q2103 95 2095 114 Q2087 133 2079 152 Q2070 171 2062 191 Q2054 210 2049 229 Q2043 248 2041 267 Q2039 286 2041 305 Q2043 325 2049 344 Q2054 363 2063 382 Q2072 401 2082 420 Q2092 439 2101 458 Q2111 478 2118 497 Q2125 516 2129 535 Q2132 554 2131 573 Q2130 592 2124 612 Q2118 631 2109 650 Q2100 669 2089 688 Q2077 707 2066 726 Q2055 745 2046 765 Q2037 784 2032 803 Q2027 822 2028 841 Q2028 860 2033 879 Q2038 898 2048 918 Q2057 937 2069 956 Q2082 975 2094 994 Q2107 1013 2118 1032" stroke="#D8C08E" stroke-width="1.51" stroke-opacity="0.31" fill="none" stroke-linecap="round"/><path d="M1244 -25 Q1225 13 1223 32 Q1221 51 1226 70 Q1232 89 1244 108 Q1257 127 1273 146 Q1290 165 1308 184 Q1325 203 1339 222 Q1354 242 1362 261 Q1369 280 1369 299 Q1368 318 1358 337 Q1349 356 1332 375 Q1316 394 1296 413 Q1276 432 1257 451 Q1238 470 1224 489 Q1210 508 1205 527 Q1199 546 1204 565 Q1209 584 1223 604 Q1237 623 1258 642 Q1278 661 1301 680 Q1324 699 1343 718 Q1363 737 1375 756 Q1387 775 1389 794 Q1391 813 1381 832 Q1372 851 1353 870 Q1334 889 1309 908 Q1285 927 1260 947 Q1236 966 1217 985 Q1198 1004 1188 1023" stroke="#D8C08E" stroke-width="0.64" stroke-opacity="0.70" fill="none" stroke-linecap="round"/><path d="M190 -48 Q187 -15 189 2 Q191 19 197 35 Q202 52 210 68 Q218 85 226 101 Q235 118 243 134 Q250 151 256 167 Q261 184 262 201 Q263 217 261 234 Q258 250 251 267 Q244 283 235 300 Q226 316 216 333 Q206 350 198 366 Q189 383 184 399 Q178 416 177 432 Q176 449 180 465 Q184 482 192 498 Q200 515 210 532 Q221 548 232 565 Q243 581 253 598 Q262 614 267 631 Q273 647 274 664 Q274 680 269 697 Q264 714 255 730 Q246 747 234 763 Q222 780 209 796 Q197 813 187 829 Q177 846 171 863" stroke="#D8C08E" stroke-width="1.10" stroke-opacity="0.63" fill="none" stroke-linecap="round"/><path d="M1488 -51 Q1463 -13 1451 6 Q1439 24 1430 43 Q1420 62 1417 81 Q1413 100 1416 119 Q1420 138 1429 157 Q1438 176 1452 195 Q1465 214 1480 233 Q1494 252 1506 271 Q1518 290 1525 309 Q1532 328 1531 347 Q1531 366 1523 385 Q1515 404 1501 423 Q1487 442 1471 460 Q1454 479 1439 498 Q1424 517 1414 536 Q1403 555 1401 574 Q1398 593 1404 612 Q1410 631 1423 650 Q1436 669 1454 688 Q1472 707 1490 726 Q1508 745 1522 764 Q1536 783 1542 802 Q1548 821 1546 840 Q1543 859 1531 878 Q1519 897 1501 915 Q1483 934 1463 953 Q1443 972 1425 991" stroke="#D8C08E" stroke-width="1.01" stroke-opacity="0.77" fill="none" stroke-linecap="round"/><path d="M567 -28 Q532 14 517 35 Q501 55 490 76 Q480 97 477 117 Q475 138 481 159 Q488 180 502 200 Q516 221 535 242 Q554 262 574 283 Q593 304 608 325 Q623 345 630 366 Q637 387 634 407 Q631 428 619 449 Q606 470 586 490 Q566 511 544 532 Q522 552 502 573 Q482 594 470 615 Q458 635 456 656 Q455 677 464 697 Q474 718 493 739 Q512 760 536 780 Q561 801 585 822 Q609 842 627 863 Q644 884 652 905 Q659 925 654 946 Q648 967 631 987 Q614 1008 589 1029 Q564 1050 537 1070 Q509 1091 486 1112" stroke="#D8C08E" stroke-width="1.10" stroke-opacity="0.31" fill="none" stroke-linecap="round"/><path d="M1557 -13 Q1548 22 1552 40 Q1556 58 1568 75 Q1580 93 1598 111 Q1616 129 1637 146 Q1657 164 1675 182 Q1693 200 1705 217 Q1717 235 1720 253 Q1723 271 1716 288 Q1709 306 1693 324 Q1677 342 1655 359 Q1633 377 1610 395 Q1587 413 1568 430 Q1548 448 1537 466 Q1526 484 1525 501 Q1525 519 1536 537 Q1546 555 1566 573 Q1587 590 1612 608 Q1637 626 1663 644 Q1688 661 1708 679 Q1728 697 1738 715 Q1748 732 1745 750 Q1743 768 1728 786 Q1713 803 1688 821 Q1664 839 1635 857 Q1606 874 1579 892 Q1552 910 1532 928 Q1512 945 1504 963" stroke="#8f7a52" stroke-width="1.36" stroke-opacity="0.76" fill="none" stroke-linecap="round"/><path d="M1011 -48 Q1008 -5 1003 16 Q998 37 989 58 Q981 79 971 101 Q961 122 951 143 Q940 164 931 185 Q922 206 914 228 Q907 249 904 270 Q900 291 901 312 Q902 333 907 355 Q912 376 921 397 Q929 418 941 439 Q952 461 964 482 Q977 503 988 524 Q1000 545 1009 566 Q1018 588 1024 609 Q1029 630 1030 651 Q1030 672 1026 693 Q1021 715 1012 736 Q1003 757 991 778 Q979 799 965 820 Q950 842 937 863 Q923 884 911 905 Q900 926 892 947 Q885 969 882 990 Q880 1011 883 1032 Q887 1053 896 1075 Q905 1096 918 1117" stroke="#D8C08E" stroke-width="2.07" stroke-opacity="0.48" fill="none" stroke-linecap="round"/><rect width="1920" height="1080" fill="url(#v)"/>

</svg>