<svg xmlns="http://www.w3.org/2000/svg" viewBox="0 0 1200 800" width="1200" height="800" preserveAspectRatio="xMidYMid slice">
<defs><linearGradient id="g" x1="0" y1="0" x2="0.4" y2="1"><stop offset="0" stop-color="#3b2a1f"/><stop offset="1" stop-color="#2B1D14"/></linearGradient>
<radialGradient id="v" cx="0.5" cy="0.35" r="0.8"><stop offset="0.5" stop-color="#000" stop-opacity="0"/><stop offset="1" stop-color="#000" stop-opacity="0.18"/></radialGradient></defs>
<rect width="1200" height="800" fill="url(#g)"/><path d="M280 71 Q280 94 281 106 Q281 117 281 129 Q282 141 282 153 Q282 164 283 176 Q283 188 283 199 Q284 211 284 223 Q284 235 285 246 Q285 258 285 270 Q285 281 286 293 Q286 305 286 317 Q287 328 287 340 Q287 352 288 363 Q288 375 288 387 Q288 399 289 410 Q289 422 289 434 Q290 445 290 457 Q290 469 290 481 Q291 492 291 504 Q291 516 291 527 Q292 539 292 551 Q292 563 292 574 Q292 586 293 598 Q293 609 293 621 Q293 633 293 645 Q294 656 294 668 Q294 680 294 691 Q294 703 295 715" stroke="#D8C08E" stroke-width="1.12" stroke-opacity="0.55" fill="none" stroke-linecap="round"/><path d="M1094 74 Q1095 97 1095 109 Q1095 120 1096 131 Q1096 143 1096 154 Q1097 166 1097 177 Q1097 189 1098 200 Q1098 212 1098 223 Q1099 235 1099 246 Q1099 258 1100 269 Q1100 281 1100 292 Q1100 304 1101 315 Q1101 327 1101 338 Q1102 350 1102 361 Q1102 372 1102 384 Q1103 395 1103 407 Q1103 418 1104 430 Q1104 441 1104 453 Q1104 464 1105 476 Q1105 487 1105 499 Q1105 510 1106 522 Q1106 533 1106 545 Q1106 556 1106 568 Q1107 579 1107 590 Q1107 602 1107 613 Q1107 625 1108 636 Q1108 648 1108 659 Q1108 671 1108 682 Q1108 694 1109 705" stroke="#EFE6D2" stroke-width="1.11" stroke-opacity="0.49" fill="none" stroke-linecap="round"/><path d="M1222 76 Q1223 102 1223 115 Q1223 128 1223 142 Q1223 155 1223 168 Q1223 181 1223 194 Q1224 207 1224 220 Q1224 233 1224 246 Q1224 259 1224 272 Q1224 285 1224 298 Q1224 311 1224 325 Q1224 338 1224 351 Q1224 364 1224 377 Q1224 390 1224 403 Q1224 416 1224 429 Q1225 442 1225 455 Q1225 468 1225 481 Q1225 495 1225 508 Q1225 521 1225 534 Q1225 547 1225 560 Q1225 573 1225 586 Q1225 599 1225 612 Q1225 625 1225 638 Q1225 651 1225 664 Q1225 678 1225 691 Q1225 704 1225 717 Q1225 730 1226 743 Q1226 756 1226 769 Q1226 782 1226 795" stroke="#D8C08E" stroke-width="1.89" stroke-opacity="0.50" fill="none" stroke-linecap="round"/><path d="M206 93 Q206 116 206 128 Q206 140 207 151 Q207 163 207 174 Q207 186 207 198 Q208 209 208 221 Q208 232 208 244 Q208 256 208 267 Q208 279 209 290 Q209 302 209 314 Q209 325 209 337 Q209 348 209 360 Q209 372 209 383 Q210 395 210 406 Q210 418 210 430 Q210 441 210 453 Q210 464 210 476 Q210 488 210 499 Q210 511 210 522 Q210 534 210 546 Q211 557 211 569 Q211 581 211 592 Q211 604 211 615 Q211 627 211 639 Q211 650 211 662 Q211 673 211 685 Q211 697 211 708 Q211 720 211 731" stroke="#EFE6D2" stroke-width="1.36" stroke-opacity="0.43" fill="none" stroke-linecap="round"/><path d="M1283 95 Q1284 121 1284 135 Q1285 148 1285 161 Q1285 174 1286 188 Q1286 201 1286 214 Q1287 227 1287 241 Q1287 254 1288 267 Q1288 280 1288 294 Q1288 307 1289 320 Q1289 333 1289 347 Q1290 360 1290 373 Q1290 386 1291 400 Q1291 413 1291 426 Q1292 439 1292 453 Q1292 466 1293 479 Q1293 493 1293 506 Q1294 519 1294 532 Q1294 546 1294 559 Q1295 572 1295 585 Q1295 599 1296 612 Q1296 625 1296 638 Q1296 652 1297 665 Q1297 678 1297 691 Q1297 705 1298 718 Q1298 731 1298 744 Q1298 758 1299 771 Q1299 784 1299 797 Q1299 811 1299 824" stroke="#D8C08E" stroke-width="1.54" stroke-opacity="0.54" fill="none" stroke-linecap="round"/><path d="M-26 79 Q-26 101 -26 112 Q-26 124 -26 135 Q-26 146 -26 157 Q-25 168 -25 180 Q-25 191 -25 202 Q-25 213 -25 224 Q-25 236 -24 247 Q-24 258 -24 269 Q-24 280 -24 292 Q-24 303 -23 314 Q-23 325 -23 337 Q-23 348 -23 359 Q-22 370 -22 381 Q-22 393 -22 404 Q-21 415 -21 426 Q-21 437 -21 449 Q-20 460 -20 471 Q-20 482 -20 493 Q-19 505 -19 516 Q-19 527 -19 538 Q-18 550 -18 561 Q-18 572 -17 583 Q-17 594 -17 606 Q-16 617 -16 628 Q-16 639 -16 650 Q-15 662 -15 673 Q-15 684 -14 695" stroke="#D8C08E" stroke-width="2.01" stroke-opacity="0.49" fill="none" stroke-linecap="round"/><path d="M527 81 Q528 106 528 118 Q528 130 528 143 Q529 155 529 167 Q529 180 530 192 Q530 204 530 216 Q530 229 531 241 Q531 253 531 266 Q531 278 532 290 Q532 302 532 315 Q532 327 532 339 Q533 352 533 364 Q533 376 533 388 Q533 401 534 413 Q534 425 534 438 Q534 450 534 462 Q534 474 534 487 Q535 499 535 511 Q535 524 535 536 Q535 548 535 560 Q535 573 535 585 Q536 597 536 610 Q536 622 536 634 Q536 647 536 659 Q536 671 536 683 Q536 696 536 708 Q536 720 536 733 Q537 745 537 757" stroke="#EFE6D2" stroke-width="1.70" stroke-opacity="0.70" fill="none" stroke-linecap="round"/><path d="M439 98 Q440 119 440 129 Q440 139 441 149 Q441 160 441 170 Q441 180 442 190 Q442 201 442 211 Q443 221 443 231 Q443 242 444 252 Q444 262 444 272 Q444 283 445 293 Q445 303 445 314 Q446 324 446 334 Q446 344 446 355 Q447 365 447 375 Q447 385 447 396 Q448 406 448 416 Q448 426 448 437 Q448 447 449 457 Q449 467 449 478 Q449 488 449 498 Q450 508 450 519 Q450 529 450 539 Q450 550 450 560 Q451 570 451 580 Q451 591 451 601 Q451 611 451 621 Q451 632 452 642 Q452 652 452 662" stroke="#EFE6D2" stroke-width="1.00" stroke-opacity="0.44" fill="none" stroke-linecap="round"/><path d="M921 97 Q921 120 922 131 Q922 143 922 154 Q923 165 923 177 Q923 188 924 200 Q924 211 924 223 Q925 234 925 245 Q925 257 925 268 Q926 280 926 291 Q926 302 927 314 Q927 325 927 337 Q928 348 928 360 Q928 371 929 382 Q929 394 929 405 Q929 417 930 428 Q930 440 930 451 Q931 462 931 474 Q931 485 931 497 Q932 508 932 520 Q932 531 933 542 Q933 554 933 565 Q933 577 933 588 Q934 600 934 611 Q934 622 934 634 Q935 645 935 657 Q935 668 935 680 Q935 691 936 702 Q936 714 936 725" stroke="#EFE6D2" stroke-width="1.81" stroke-opacity="0.35" fill="none" stroke-linecap="round"/><path d="M42 69 Q42 96 42 110 Q42 123 43 137 Q43 150 43 164 Q43 177 43 191 Q43 204 43 218 Q43 231 43 245 Q44 258 44 272 Q44 285 44 299 Q44 312 44 326 Q44 339 44 353 Q44 366 44 380 Q44 393 44 407 Q44 420 44 434 Q44 447 44 461 Q45 474 45 488 Q45 501 45 515 Q45 528 45 542 Q45 555 45 569 Q45 582 45 596 Q45 609 45 623 Q45 636 45 650 Q45 663 45 677 Q45 690 45 704 Q45 717 45 731 Q45 744 45 758 Q45 771 45 785 Q46 798 46 812" stroke="#D8C08E" stroke-width="2.03" stroke-opacity="0.43" fill="none" stroke-linecap="round"/><path d="M1106 92 Q1107 115 1107 126 Q1107 137 1108 148 Q1108 160 1108 171 Q1108 182 1109 194 Q1109 205 1109 216 Q1110 227 1110 239 Q1110 250 1111 261 Q1111 273 1111 284 Q1112 295 1112 307 Q1112 318 1113 329 Q1113 340 1113 352 Q1114 363 1114 374 Q1114 386 1114 397 Q1115 408 1115 420 Q1115 431 1116 442 Q1116 453 1116 465 Q1117 476 1117 487 Q1117 499 1117 510 Q1118 521 1118 533 Q1118 544 1119 555 Q1119 566 1119 578 Q1119 589 1120 600 Q1120 612 1120 623 Q1120 634 1120 645 Q1121 657 1121 668 Q1121 679 1121 691 Q1122 702 1122 713" stroke="#D8C08E" stroke-width="1.67" stroke-opacity="0.31" fill="none" stroke-linecap="round"/><path d="M694 85 Q694 106 694 117 Q694 127 694 138 Q695 149 695 159 Q695 170 695 181 Q695 191 695 202 Q696 213 696 224 Q696 234 696 245 Q696 256 697 266 Q697 277 697 288 Q697 298 697 309 Q698 320 698 330 Q698 341 698 352 Q699 362 699 373 Q699 384 699 394 Q700 405 700 416 Q700 426 700 437 Q701 448 701 458 Q701 469 702 480 Q702 490 702 501 Q702 512 703 522 Q703 533 703 544 Q704 554 704 565 Q704 576 705 586 Q705 597 705 608 Q706 618 706 629 Q706 640 707 650 Q707 661 707 672" stroke="#D8C08E" stroke-width="1.49" stroke-opacity="0.35" fill="none" stroke-linecap="round"/><path d="M416 73 Q417 99 417 112 Q418 125 418 138 Q418 151 418 164 Q419 178 419 191 Q419 204 420 217 Q420 230 420 243 Q420 256 421 269 Q421 282 421 295 Q421 308 422 321 Q422 334 422 347 Q422 360 423 373 Q423 386 423 399 Q423 412 424 425 Q424 438 424 451 Q424 464 424 477 Q425 490 425 503 Q425 516 425 529 Q425 542 425 555 Q426 568 426 581 Q426 594 426 607 Q426 620 426 633 Q426 646 426 659 Q427 672 427 685 Q427 698 427 711 Q427 725 427 738 Q427 751 427 764 Q427 777 427 790" stroke="#EFE6D2" stroke-width="2.00" stroke-opacity="0.48" fill="none" stroke-linecap="round"/><path d="M867 93 Q867 120 868 133 Q868 146 868 159 Q868 172 868 185 Q868 198 868 212 Q869 225 869 238 Q869 251 869 264 Q869 277 869 290 Q869 304 869 317 Q870 330 870 343 Q870 356 870 369 Q870 382 870 396 Q870 409 870 422 Q870 435 870 448 Q870 461 870 474 Q871 488 871 501 Q871 514 871 527 Q871 540 871 553 Q871 566 871 580 Q871 593 871 606 Q871 619 871 632 Q871 645 871 658 Q871 672 871 685 Q871 698 871 711 Q871 724 871 737 Q871 750 871 764 Q871 777 871 790 Q872 803 872 816" stroke="#EFE6D2" stroke-width="1.74" stroke-opacity="0.83" fill="none" stroke-linecap="round"/><path d="M379 104 Q379 125 379 135 Q379 146 379 156 Q379 167 379 177 Q379 188 379 198 Q380 209 380 219 Q380 230 380 240 Q380 251 380 261 Q380 272 380 282 Q380 293 380 303 Q380 314 380 324 Q380 335 380 345 Q380 356 380 366 Q381 377 381 387 Q381 398 381 408 Q381 419 381 429 Q381 440 381 450 Q381 461 381 471 Q382 482 382 492 Q382 503 382 513 Q382 524 382 534 Q383 545 383 555 Q383 566 383 576 Q383 587 383 597 Q384 608 384 618 Q384 629 384 639 Q384 650 385 660 Q385 671 385 681" stroke="#EFE6D2" stroke-width="1.13" stroke-opacity="0.58" fill="none" stroke-linecap="round"/><path d="M1073 99 Q1074 122 1074 134 Q1074 146 1074 157 Q1075 169 1075 181 Q1075 192 1076 204 Q1076 216 1076 227 Q1077 239 1077 251 Q1077 262 1078 274 Q1078 286 1078 297 Q1079 309 1079 321 Q1079 332 1080 344 Q1080 356 1080 367 Q1081 379 1081 391 Q1081 402 1081 414 Q1082 426 1082 437 Q1082 449 1083 461 Q1083 472 1083 484 Q1083 495 1084 507 Q1084 519 1084 530 Q1085 542 1085 554 Q1085 565 1085 577 Q1086 589 1086 600 Q1086 612 1086 624 Q1087 635 1087 647 Q1087 659 1087 670 Q1088 682 1088 694 Q1088 705 1088 717 Q1088 729 1089 740" stroke="#D8C08E" stroke-width="1.45" stroke-opacity="0.60" fill="none" stroke-linecap="round"/><path d="M667 88 Q667 113 667 125 Q668 138 668 150 Q668 163 668 175 Q669 188 669 200 Q669 213 669 225 Q670 238 670 250 Q670 263 670 275 Q671 288 671 300 Q671 313 671 325 Q671 338 672 350 Q672 363 672 375 Q672 388 672 400 Q673 413 673 425 Q673 438 673 450 Q673 463 673 475 Q674 488 674 500 Q674 512 674 525 Q674 537 674 550 Q674 562 674 575 Q674 587 675 600 Q675 612 675 625 Q675 637 675 650 Q675 662 675 675 Q675 687 675 700 Q675 712 675 725 Q675 737 675 750 Q676 762 676 775" stroke="#EFE6D2" stroke-width="1.39" stroke-opacity="0.80" fill="none" stroke-linecap="round"/><path d="M957 83 Q957 104 957 114 Q957 124 957 135 Q957 145 957 156 Q957 166 957 176 Q958 187 958 197 Q958 207 958 218 Q958 228 958 239 Q958 249 958 259 Q958 270 958 280 Q958 290 958 301 Q958 311 958 322 Q958 332 958 342 Q958 353 959 363 Q959 374 959 384 Q959 394 959 405 Q959 415 959 425 Q959 436 959 446 Q959 457 959 467 Q959 477 959 488 Q959 498 959 508 Q959 519 959 529 Q959 540 959 550 Q959 560 959 571 Q959 581 959 591 Q959 602 960 612 Q960 623 960 633 Q960 643 960 654" stroke="#D8C08E" stroke-width="1.86" stroke-opacity="0.70" fill="none" stroke-linecap="round"/><path d="M327 82 Q328 108 328 122 Q328 135 328 149 Q329 162 329 175 Q329 189 329 202 Q330 215 330 229 Q330 242 331 256 Q331 269 331 282 Q332 296 332 309 Q332 322 332 336 Q333 349 333 363 Q333 376 334 389 Q334 403 334 416 Q335 429 335 443 Q335 456 336 470 Q336 483 336 496 Q337 510 337 523 Q337 536 338 550 Q338 563 338 577 Q338 590 339 603 Q339 617 339 630 Q340 643 340 657 Q340 670 341 684 Q341 697 341 710 Q342 724 342 737 Q342 750 342 764 Q343 777 343 791 Q343 804 344 817" stroke="#EFE6D2" stroke-width="1.48" stroke-opacity="0.50" fill="none" stroke-linecap="round"/><path d="M1313 70 Q1313 96 1313 108 Q1313 121 1314 133 Q1314 146 1314 159 Q1314 171 1314 184 Q1314 196 1315 209 Q1315 221 1315 234 Q1315 247 1315 259 Q1316 272 1316 284 Q1316 297 1316 310 Q1316 322 1317 335 Q1317 347 1317 360 Q1317 373 1318 385 Q1318 398 1318 410 Q1318 423 1319 436 Q1319 448 1319 461 Q1319 473 1320 486 Q1320 499 1320 511 Q1321 524 1321 536 Q1321 549 1321 561 Q1322 574 1322 587 Q1322 599 1323 612 Q1323 624 1323 637 Q1324 650 1324 662 Q1324 675 1325 687 Q1325 700 1325 713 Q1325 725 1326 738 Q1326 750 1326 763" stroke="#EFE6D2" stroke-width="0.95" stroke-opacity="0.44" fill="none" stroke-linecap="round"/><path d="M986 75 Q986 96 987 107 Q987 117 987 128 Q988 139 988 149 Q988 160 989 171 Q989 181 989 192 Q989 203 990 214 Q990 224 990 235 Q991 246 991 256 Q991 267 992 278 Q992 288 992 299 Q993 310 993 320 Q993 331 994 342 Q994 352 994 363 Q995 374 995 384 Q995 395 995 406 Q996 416 996 427 Q996 438 997 448 Q997 459 997 470 Q997 480 998 491 Q998 502 998 512 Q999 523 999 534 Q999 545 999 555 Q1000 566 1000 577 Q1000 587 1000 598 Q1001 609 1001 619 Q1001 630 1001 641 Q1001 651 1002 662" stroke="#D8C08E" stroke-width="0.66" stroke-opacity="0.45" fill="none" stroke-linecap="round"/><path d="M88 71 Q88 95 89 106 Q89 118 89 130 Q89 141 90 153 Q90 164 90 176 Q91 188 91 199 Q91 211 92 222 Q92 234 92 246 Q93 257 93 269 Q93 280 94 292 Q94 304 94 315 Q95 327 95 339 Q95 350 96 362 Q96 373 96 385 Q96 397 97 408 Q97 420 97 431 Q98 443 98 455 Q98 466 99 478 Q99 489 99 501 Q99 513 100 524 Q100 536 100 547 Q101 559 101 571 Q101 582 101 594 Q102 606 102 617 Q102 629 102 640 Q103 652 103 664 Q103 675 103 687 Q103 698 104 710" stroke="#D8C08E" stroke-width="0.87" stroke-opacity="0.80" fill="none" stroke-linecap="round"/><path d="M632 77 Q632 98 633 109 Q633 120 633 130 Q634 141 634 151 Q634 162 635 172 Q635 183 635 193 Q636 204 636 215 Q636 225 636 236 Q637 246 637 257 Q637 267 638 278 Q638 289 638 299 Q639 310 639 320 Q639 331 640 341 Q640 352 640 362 Q640 373 641 384 Q641 394 641 405 Q642 415 642 426 Q642 436 642 447 Q643 458 643 468 Q643 479 643 489 Q644 500 644 510 Q644 521 644 531 Q645 542 645 553 Q645 563 645 574 Q646 584 646 595 Q646 605 646 616 Q646 626 647 637 Q647 648 647 658" stroke="#EFE6D2" stroke-width="1.69" stroke-opacity="0.31" fill="none" stroke-linecap="round"/><path d="M992 66 Q992 93 993 107 Q993 120 993 133 Q994 147 994 160 Q994 174 994 187 Q995 201 995 214 Q995 227 996 241 Q996 254 996 268 Q996 281 997 295 Q997 308 997 321 Q997 335 998 348 Q998 362 998 375 Q998 389 998 402 Q999 415 999 429 Q999 442 999 456 Q999 469 1000 483 Q1000 496 1000 509 Q1000 523 1000 536 Q1001 550 1001 563 Q1001 577 1001 590 Q1001 603 1001 617 Q1001 630 1001 644 Q1002 657 1002 671 Q1002 684 1002 697 Q1002 711 1002 724 Q1002 738 1002 751 Q1002 765 1003 778 Q1003 791 1003 805" stroke="#EFE6D2" stroke-width="0.84" stroke-opacity="0.36" fill="none" stroke-linecap="round"/><path d="M230 80 Q230 107 230 120 Q231 134 231 147 Q231 161 231 175 Q231 188 232 202 Q232 215 232 229 Q232 242 233 256 Q233 269 233 283 Q233 297 234 310 Q234 324 234 337 Q235 351 235 364 Q235 378 235 391 Q236 405 236 418 Q236 432 237 446 Q237 459 237 473 Q238 486 238 500 Q238 513 238 527 Q239 540 239 554 Q239 568 240 581 Q240 595 240 608 Q241 622 241 635 Q241 649 242 662 Q242 676 242 689 Q243 703 243 717 Q243 730 244 744 Q244 757 244 771 Q244 784 245 798 Q245 811 245 825" stroke="#D8C08E" stroke-width="0.84" stroke-opacity="0.44" fill="none" stroke-linecap="round"/><path d="M879 93 Q879 116 880 127 Q880 138 880 150 Q880 161 880 172 Q880 183 880 195 Q881 206 881 217 Q881 229 881 240 Q881 251 881 263 Q881 274 881 285 Q881 297 881 308 Q882 319 882 331 Q882 342 882 353 Q882 364 882 376 Q882 387 882 398 Q882 410 882 421 Q882 432 882 444 Q882 455 882 466 Q882 478 882 489 Q882 500 883 512 Q883 523 883 534 Q883 545 883 557 Q883 568 883 579 Q883 591 883 602 Q883 613 883 625 Q883 636 883 647 Q883 659 883 670 Q883 681 883 693 Q883 704 883 715" stroke="#EFE6D2" stroke-width="1.73" stroke-opacity="0.38" fill="none" stroke-linecap="round"/><path d="M231 72 Q231 93 231 103 Q231 114 231 124 Q231 134 231 145 Q231 155 231 165 Q231 176 231 186 Q231 196 231 207 Q231 217 232 227 Q232 238 232 248 Q232 258 232 269 Q232 279 232 289 Q232 300 232 310 Q232 320 232 330 Q232 341 232 351 Q232 361 232 372 Q232 382 232 392 Q233 403 233 413 Q233 423 233 434 Q233 444 233 454 Q233 465 233 475 Q233 485 234 496 Q234 506 234 516 Q234 527 234 537 Q234 547 234 558 Q235 568 235 578 Q235 589 235 599 Q235 609 235 620 Q236 630 236 640" stroke="#EFE6D2" stroke-width="1.17" stroke-opacity="0.58" fill="none" stroke-linecap="round"/><path d="M1130 102 Q1131 125 1131 137 Q1132 149 1132 160 Q1132 172 1133 184 Q1133 196 1133 207 Q1133 219 1134 231 Q1134 242 1134 254 Q1135 266 1135 277 Q1135 289 1135 301 Q1136 313 1136 324 Q1136 336 1137 348 Q1137 359 1137 371 Q1137 383 1138 395 Q1138 406 1138 418 Q1138 430 1138 441 Q1139 453 1139 465 Q1139 477 1139 488 Q1140 500 1140 512 Q1140 523 1140 535 Q1140 547 1140 559 Q1141 570 1141 582 Q1141 594 1141 605 Q1141 617 1141 629 Q1142 641 1142 652 Q1142 664 1142 676 Q1142 687 1142 699 Q1142 711 1142 723 Q1143 734 1143 746" stroke="#EFE6D2" stroke-width="2.20" stroke-opacity="0.82" fill="none" stroke-linecap="round"/><path d="M732 66 Q733 91 733 103 Q733 116 734 128 Q734 140 734 153 Q735 165 735 178 Q735 190 736 202 Q736 215 736 227 Q736 239 737 252 Q737 264 737 277 Q738 289 738 301 Q738 314 738 326 Q739 339 739 351 Q739 363 740 376 Q740 388 740 400 Q740 413 741 425 Q741 438 741 450 Q741 462 741 475 Q742 487 742 500 Q742 512 742 524 Q743 537 743 549 Q743 561 743 574 Q743 586 743 599 Q744 611 744 623 Q744 636 744 648 Q744 661 744 673 Q745 685 745 698 Q745 710 745 722 Q745 735 745 747" stroke="#EFE6D2" stroke-width="1.58" stroke-opacity="0.53" fill="none" stroke-linecap="round"/><path d="M450 78 Q451 99 451 110 Q451 121 451 132 Q452 142 452 153 Q452 164 453 175 Q453 186 453 196 Q453 207 454 218 Q454 229 454 239 Q455 250 455 261 Q455 272 456 283 Q456 293 456 304 Q456 315 457 326 Q457 336 457 347 Q458 358 458 369 Q458 380 459 390 Q459 401 459 412 Q460 423 460 433 Q460 444 461 455 Q461 466 461 477 Q462 487 462 498 Q462 509 463 520 Q463 530 463 541 Q463 552 464 563 Q464 574 464 584 Q465 595 465 606 Q465 617 465 627 Q466 638 466 649 Q466 660 467 671" stroke="#D8C08E" stroke-width="1.57" stroke-opacity="0.65" fill="none" stroke-linecap="round"/><path d="M886 69 Q886 94 886 106 Q887 118 887 130 Q887 142 888 154 Q888 167 888 179 Q889 191 889 203 Q889 215 890 227 Q890 240 890 252 Q891 264 891 276 Q891 288 892 300 Q892 312 892 325 Q893 337 893 349 Q893 361 893 373 Q894 385 894 398 Q894 410 895 422 Q895 434 895 446 Q896 458 896 470 Q896 483 896 495 Q897 507 897 519 Q897 531 898 543 Q898 556 898 568 Q898 580 899 592 Q899 604 899 616 Q899 629 900 641 Q900 653 900 665 Q900 677 900 689 Q901 701 901 714 Q901 726 901 738" stroke="#EFE6D2" stroke-width="1.79" stroke-opacity="0.76" fill="none" stroke-linecap="round"/><path d="M716 102 Q717 123 717 133 Q717 144 718 154 Q718 164 718 174 Q718 185 719 195 Q719 205 719 216 Q719 226 720 236 Q720 247 720 257 Q721 267 721 277 Q721 288 722 298 Q722 308 722 319 Q723 329 723 339 Q723 350 724 360 Q724 370 724 380 Q724 391 725 401 Q725 411 725 422 Q726 432 726 442 Q726 453 727 463 Q727 473 727 483 Q728 494 728 504 Q728 514 729 525 Q729 535 729 545 Q730 555 730 566 Q730 576 730 586 Q731 597 731 607 Q731 617 732 628 Q732 638 732 648 Q732 658 733 669" stroke="#EFE6D2" stroke-width="1.40" stroke-opacity="0.45" fill="none" stroke-linecap="round"/><path d="M80 68 Q80 92 80 105 Q81 117 81 129 Q81 142 82 154 Q82 166 82 178 Q82 191 83 203 Q83 215 83 228 Q84 240 84 252 Q84 265 85 277 Q85 289 85 302 Q86 314 86 326 Q86 339 87 351 Q87 363 87 376 Q87 388 88 400 Q88 413 88 425 Q89 437 89 449 Q89 462 90 474 Q90 486 90 499 Q91 511 91 523 Q91 536 92 548 Q92 560 92 573 Q92 585 93 597 Q93 610 93 622 Q94 634 94 647 Q94 659 94 671 Q95 683 95 696 Q95 708 95 720 Q96 733 96 745" stroke="#EFE6D2" stroke-width="1.97" stroke-opacity="0.35" fill="none" stroke-linecap="round"/><path d="M1256 75 Q1257 98 1257 110 Q1257 121 1257 132 Q1257 144 1257 155 Q1257 166 1257 178 Q1257 189 1257 201 Q1257 212 1257 223 Q1257 235 1257 246 Q1257 257 1257 269 Q1257 280 1257 292 Q1258 303 1258 314 Q1258 326 1258 337 Q1258 349 1258 360 Q1258 371 1258 383 Q1258 394 1258 405 Q1259 417 1259 428 Q1259 440 1259 451 Q1259 462 1259 474 Q1259 485 1260 496 Q1260 508 1260 519 Q1260 531 1260 542 Q1260 553 1261 565 Q1261 576 1261 588 Q1261 599 1261 610 Q1262 622 1262 633 Q1262 644 1262 656 Q1263 667 1263 679 Q1263 690 1263 701" stroke="#EFE6D2" stroke-width="1.02" stroke-opacity="0.29" fill="none" stroke-linecap="round"/><path d="M751 74 Q752 96 752 107 Q752 118 753 129 Q753 140 753 151 Q753 162 754 173 Q754 184 754 196 Q754 207 755 218 Q755 229 755 240 Q755 251 756 262 Q756 273 756 284 Q756 295 756 306 Q757 318 757 329 Q757 340 757 351 Q757 362 757 373 Q758 384 758 395 Q758 406 758 417 Q758 428 758 439 Q758 451 759 462 Q759 473 759 484 Q759 495 759 506 Q759 517 759 528 Q759 539 759 550 Q760 561 760 572 Q760 584 760 595 Q760 606 760 617 Q760 628 760 639 Q760 650 760 661 Q760 672 760 683" stroke="#D8C08E" stroke-width="1.08" stroke-opacity="0.34" fill="none" stroke-linecap="round"/><path d="M464 77 Q465 103 465 116 Q465 129 465 142 Q465 154 465 167 Q465 180 466 193 Q466 206 466 219 Q466 231 466 244 Q466 257 466 270 Q466 283 466 296 Q466 308 467 321 Q467 334 467 347 Q467 360 467 373 Q467 385 467 398 Q467 411 467 424 Q467 437 467 450 Q467 462 467 475 Q467 488 467 501 Q467 514 467 527 Q467 539 467 552 Q467 565 468 578 Q468 591 468 604 Q468 616 468 629 Q468 642 468 655 Q468 668 468 681 Q468 693 468 706 Q468 719 468 732 Q468 745 468 758 Q468 770 468 783" stroke="#EFE6D2" stroke-width="0.86" stroke-opacity="0.75" fill="none" stroke-linecap="round"/><path d="M768 80 Q768 101 769 112 Q769 123 769 133 Q769 144 769 155 Q770 165 770 176 Q770 187 770 197 Q771 208 771 219 Q771 229 771 240 Q772 251 772 261 Q772 272 772 283 Q773 293 773 304 Q773 314 774 325 Q774 336 774 346 Q774 357 775 368 Q775 378 775 389 Q776 400 776 410 Q776 421 777 432 Q777 442 777 453 Q777 464 778 474 Q778 485 778 496 Q779 506 779 517 Q779 528 780 538 Q780 549 780 559 Q781 570 781 581 Q781 591 782 602 Q782 613 782 623 Q783 634 783 645 Q783 655 783 666" stroke="#EFE6D2" stroke-width="0.98" stroke-opacity="0.29" fill="none" stroke-linecap="round"/><path d="M824 101 Q824 126 825 139 Q825 151 825 164 Q825 177 826 189 Q826 202 826 214 Q826 227 826 239 Q826 252 827 264 Q827 277 827 289 Q827 302 827 314 Q827 327 827 340 Q828 352 828 365 Q828 377 828 390 Q828 402 828 415 Q828 427 828 440 Q828 452 829 465 Q829 477 829 490 Q829 503 829 515 Q829 528 829 540 Q829 553 829 565 Q829 578 829 590 Q829 603 829 615 Q829 628 829 641 Q830 653 830 666 Q830 678 830 691 Q830 703 830 716 Q830 728 830 741 Q830 753 830 766 Q830 778 830 791" stroke="#EFE6D2" stroke-width="1.40" stroke-opacity="0.50" fill="none" stroke-linecap="round"/><path d="M864 101 Q864 126 864 139 Q864 152 865 164 Q865 177 865 190 Q865 203 865 215 Q866 228 866 241 Q866 254 866 266 Q867 279 867 292 Q867 304 867 317 Q868 330 868 343 Q868 355 869 368 Q869 381 869 394 Q869 406 870 419 Q870 432 870 445 Q871 457 871 470 Q871 483 871 496 Q872 508 872 521 Q872 534 873 547 Q873 559 873 572 Q874 585 874 598 Q874 610 875 623 Q875 636 875 649 Q876 661 876 674 Q876 687 877 700 Q877 712 877 725 Q878 738 878 751 Q878 763 878 776 Q879 789 879 802" stroke="#EFE6D2" stroke-width="1.19" stroke-opacity="0.27" fill="none" stroke-linecap="round"/><path d="M696 85 Q696 110 696 122 Q697 134 697 146 Q697 159 697 171 Q698 183 698 195 Q698 208 698 220 Q698 232 699 244 Q699 256 699 269 Q699 281 699 293 Q699 305 700 318 Q700 330 700 342 Q700 354 700 367 Q700 379 700 391 Q701 403 701 415 Q701 428 701 440 Q701 452 701 464 Q701 477 701 489 Q701 501 701 513 Q702 525 702 538 Q702 550 702 562 Q702 574 702 587 Q702 599 702 611 Q702 623 702 636 Q702 648 702 660 Q702 672 702 684 Q702 697 702 709 Q702 721 702 733 Q703 746 703 758" stroke="#EFE6D2" stroke-width="1.44" stroke-opacity="0.61" fill="none" stroke-linecap="round"/><path d="M282 90 Q283 111 283 121 Q283 132 283 142 Q284 153 284 163 Q284 174 284 184 Q285 195 285 205 Q285 216 285 226 Q286 237 286 247 Q286 258 286 268 Q287 279 287 289 Q287 300 288 310 Q288 321 288 331 Q289 342 289 352 Q289 363 289 373 Q290 384 290 394 Q290 405 291 415 Q291 426 291 436 Q292 447 292 457 Q292 468 293 478 Q293 489 293 499 Q294 510 294 520 Q294 531 294 541 Q295 551 295 562 Q295 572 296 583 Q296 593 296 604 Q297 614 297 625 Q297 635 298 646 Q298 656 298 667" stroke="#EFE6D2" stroke-width="1.53" stroke-opacity="0.25" fill="none" stroke-linecap="round"/><path d="M298 76 Q298 99 299 110 Q299 121 299 133 Q300 144 300 156 Q300 167 301 179 Q301 190 301 202 Q302 213 302 225 Q302 236 302 248 Q303 259 303 271 Q303 282 304 294 Q304 305 304 316 Q305 328 305 339 Q305 351 305 362 Q306 374 306 385 Q306 397 307 408 Q307 420 307 431 Q307 443 308 454 Q308 466 308 477 Q308 489 309 500 Q309 511 309 523 Q309 534 310 546 Q310 557 310 569 Q310 580 310 592 Q311 603 311 615 Q311 626 311 638 Q311 649 311 661 Q312 672 312 683 Q312 695 312 706" stroke="#EFE6D2" stroke-width="1.53" stroke-opacity="0.83" fill="none" stroke-linecap="round"/><path d="M535 76 Q535 101 535 114 Q535 127 535 139 Q535 152 535 165 Q536 177 536 190 Q536 203 536 215 Q536 228 536 241 Q536 253 536 266 Q536 279 536 291 Q536 304 536 317 Q536 329 536 342 Q536 355 536 367 Q536 380 536 393 Q536 405 536 418 Q536 431 536 443 Q536 456 536 469 Q536 481 537 494 Q537 507 537 519 Q537 532 537 545 Q537 557 537 570 Q537 583 537 595 Q537 608 537 621 Q537 633 537 646 Q537 659 537 671 Q538 684 538 697 Q538 709 538 722 Q538 735 538 747 Q538 760 538 773" stroke="#EFE6D2" stroke-width="1.00" stroke-opacity="0.31" fill="none" stroke-linecap="round"/><path d="M885 103 Q886 127 886 139 Q886 151 886 163 Q887 175 887 187 Q887 199 887 211 Q887 223 888 235 Q888 247 888 259 Q888 271 889 283 Q889 295 889 307 Q889 319 890 331 Q890 343 890 355 Q890 367 891 379 Q891 391 891 402 Q891 414 892 426 Q892 438 892 450 Q893 462 893 474 Q893 486 894 498 Q894 510 894 522 Q894 534 895 546 Q895 558 895 570 Q896 582 896 594 Q896 606 897 618 Q897 630 897 642 Q898 654 898 666 Q898 678 899 690 Q899 702 899 714 Q900 726 900 738 Q900 750 901 762" stroke="#EFE6D2" stroke-width="0.70" stroke-opacity="0.85" fill="none" stroke-linecap="round"/><path d="M1080 91 Q1081 118 1081 132 Q1081 145 1082 159 Q1082 172 1082 186 Q1082 199 1083 213 Q1083 226 1083 240 Q1084 253 1084 267 Q1084 280 1084 294 Q1085 308 1085 321 Q1085 335 1085 348 Q1086 362 1086 375 Q1086 389 1086 402 Q1086 416 1087 429 Q1087 443 1087 456 Q1087 470 1087 483 Q1088 497 1088 510 Q1088 524 1088 537 Q1088 551 1088 564 Q1089 578 1089 591 Q1089 605 1089 618 Q1089 632 1089 645 Q1089 659 1089 672 Q1090 686 1090 699 Q1090 713 1090 726 Q1090 740 1090 753 Q1090 767 1090 781 Q1090 794 1090 808 Q1090 821 1090 835" stroke="#EFE6D2" stroke-width="1.58" stroke-opacity="0.66" fill="none" stroke-linecap="round"/><path d="M1106 93 Q1107 119 1107 131 Q1107 144 1107 157 Q1108 170 1108 183 Q1108 195 1108 208 Q1109 221 1109 234 Q1109 247 1109 260 Q1110 272 1110 285 Q1110 298 1110 311 Q1111 324 1111 336 Q1111 349 1111 362 Q1111 375 1112 388 Q1112 400 1112 413 Q1112 426 1112 439 Q1112 452 1113 464 Q1113 477 1113 490 Q1113 503 1113 516 Q1113 528 1113 541 Q1114 554 1114 567 Q1114 580 1114 592 Q1114 605 1114 618 Q1114 631 1114 644 Q1114 656 1114 669 Q1115 682 1115 695 Q1115 708 1115 720 Q1115 733 1115 746 Q1115 759 1115 772 Q1115 785 1115 797" stroke="#EFE6D2" stroke-width="1.67" stroke-opacity="0.52" fill="none" stroke-linecap="round"/><path d="M757 64 Q757 91 757 104 Q757 117 758 130 Q758 143 758 156 Q758 169 758 182 Q759 195 759 208 Q759 221 759 234 Q759 247 759 260 Q760 273 760 287 Q760 300 760 313 Q760 326 760 339 Q760 352 760 365 Q761 378 761 391 Q761 404 761 417 Q761 430 761 443 Q761 456 761 470 Q761 483 761 496 Q761 509 762 522 Q762 535 762 548 Q762 561 762 574 Q762 587 762 600 Q762 613 762 626 Q762 639 762 653 Q762 666 762 679 Q762 692 762 705 Q762 718 762 731 Q762 744 762 757 Q762 770 762 783" stroke="#EFE6D2" stroke-width="1.37" stroke-opacity="0.34" fill="none" stroke-linecap="round"/><path d="M1275 86 Q1275 111 1275 124 Q1275 136 1275 149 Q1275 161 1276 174 Q1276 186 1276 199 Q1276 211 1276 224 Q1276 236 1277 249 Q1277 262 1277 274 Q1277 287 1277 299 Q1278 312 1278 324 Q1278 337 1278 349 Q1278 362 1279 374 Q1279 387 1279 399 Q1279 412 1280 425 Q1280 437 1280 450 Q1280 462 1281 475 Q1281 487 1281 500 Q1282 512 1282 525 Q1282 537 1282 550 Q1283 563 1283 575 Q1283 588 1284 600 Q1284 613 1284 625 Q1285 638 1285 650 Q1285 663 1286 675 Q1286 688 1286 700 Q1286 713 1287 726 Q1287 738 1287 751 Q1288 763 1288 776" stroke="#EFE6D2" stroke-width="1.92" stroke-opacity="0.81" fill="none" stroke-linecap="round"/><path d="M901 75 Q902 97 902 109 Q902 120 902 131 Q902 142 902 154 Q902 165 902 176 Q902 187 902 199 Q902 210 902 221 Q903 232 903 244 Q903 255 903 266 Q903 277 903 289 Q903 300 903 311 Q903 322 903 333 Q903 345 903 356 Q903 367 903 378 Q903 390 903 401 Q903 412 903 423 Q903 435 903 446 Q903 457 903 468 Q903 480 904 491 Q904 502 904 513 Q904 525 904 536 Q904 547 904 558 Q904 570 904 581 Q904 592 904 603 Q904 615 904 626 Q904 637 904 648 Q904 660 904 671 Q904 682 905 693" stroke="#EFE6D2" stroke-width="1.11" stroke-opacity="0.43" fill="none" stroke-linecap="round"/><path d="M1211 71 Q1211 97 1211 110 Q1212 123 1212 136 Q1212 149 1212 162 Q1212 175 1212 188 Q1212 201 1213 214 Q1213 227 1213 240 Q1213 253 1213 266 Q1213 279 1213 292 Q1213 305 1213 318 Q1214 331 1214 344 Q1214 357 1214 370 Q1214 383 1214 396 Q1214 409 1214 422 Q1214 435 1214 448 Q1214 461 1214 474 Q1214 487 1214 499 Q1214 512 1214 525 Q1214 538 1215 551 Q1215 564 1215 577 Q1215 590 1215 603 Q1215 616 1215 629 Q1215 642 1215 655 Q1215 668 1215 681 Q1215 694 1215 707 Q1215 720 1215 733 Q1215 746 1215 759 Q1215 772 1215 785" stroke="#EFE6D2" stroke-width="1.53" stroke-opacity="0.79" fill="none" stroke-linecap="round"/><path d="M1087 70 Q1088 94 1088 107 Q1088 119 1088 131 Q1088 143 1088 155 Q1088 167 1088 179 Q1088 192 1088 204 Q1088 216 1088 228 Q1089 240 1089 252 Q1089 264 1089 277 Q1089 289 1089 301 Q1089 313 1089 325 Q1089 337 1089 349 Q1089 362 1089 374 Q1089 386 1089 398 Q1089 410 1089 422 Q1089 434 1089 447 Q1089 459 1089 471 Q1089 483 1089 495 Q1089 507 1090 519 Q1090 532 1090 544 Q1090 556 1090 568 Q1090 580 1090 592 Q1090 605 1090 617 Q1090 629 1090 641 Q1090 653 1090 665 Q1090 677 1090 690 Q1090 702 1090 714 Q1090 726 1091 738" stroke="#D8C08E" stroke-width="1.33" stroke-opacity="0.48" fill="none" stroke-linecap="round"/><path d="M311 66 Q311 88 311 100 Q312 111 312 122 Q312 133 312 145 Q312 156 312 167 Q313 178 313 190 Q313 201 313 212 Q313 224 313 235 Q313 246 314 257 Q314 269 314 280 Q314 291 314 302 Q314 314 314 325 Q314 336 314 347 Q315 359 315 370 Q315 381 315 392 Q315 404 315 415 Q315 426 315 437 Q315 449 315 460 Q315 471 315 482 Q315 494 315 505 Q315 516 315 527 Q315 539 315 550 Q316 561 316 572 Q316 584 316 595 Q316 606 316 617 Q316 629 316 640 Q316 651 316 663 Q316 674 316 685" stroke="#EFE6D2" stroke-width="1.51" stroke-opacity="0.40" fill="none" stroke-linecap="round"/><path d="M683 94 Q683 118 683 130 Q683 142 684 154 Q684 166 684 178 Q684 190 684 202 Q684 214 684 226 Q684 238 684 250 Q684 262 684 274 Q684 286 684 298 Q684 310 684 322 Q684 334 684 346 Q684 358 684 370 Q684 382 684 394 Q684 406 684 418 Q684 430 684 442 Q685 454 685 466 Q685 478 685 490 Q685 502 685 514 Q685 526 685 538 Q685 550 685 562 Q685 574 685 586 Q685 598 685 610 Q686 622 686 634 Q686 646 686 658 Q686 670 686 682 Q686 694 686 706 Q686 718 687 730 Q687 742 687 754" stroke="#EFE6D2" stroke-width="1.16" stroke-opacity="0.78" fill="none" stroke-linecap="round"/><path d="M124 75 Q124 101 124 115 Q124 128 125 141 Q125 154 125 168 Q125 181 126 194 Q126 207 126 221 Q126 234 127 247 Q127 261 127 274 Q127 287 128 300 Q128 314 128 327 Q128 340 129 353 Q129 367 129 380 Q130 393 130 407 Q130 420 131 433 Q131 446 131 460 Q131 473 132 486 Q132 500 132 513 Q133 526 133 539 Q133 553 134 566 Q134 579 134 592 Q135 606 135 619 Q135 632 136 646 Q136 659 136 672 Q137 685 137 699 Q137 712 137 725 Q138 738 138 752 Q138 765 139 778 Q139 792 139 805" stroke="#EFE6D2" stroke-width="0.65" stroke-opacity="0.27" fill="none" stroke-linecap="round"/><path d="M1232 68 Q1232 95 1232 109 Q1232 122 1233 136 Q1233 149 1233 163 Q1233 176 1233 190 Q1233 203 1234 217 Q1234 230 1234 244 Q1234 257 1234 271 Q1235 284 1235 298 Q1235 311 1235 325 Q1236 338 1236 352 Q1236 365 1236 379 Q1237 392 1237 406 Q1237 419 1237 433 Q1238 446 1238 460 Q1238 474 1239 487 Q1239 501 1239 514 Q1239 528 1240 541 Q1240 555 1240 568 Q1241 582 1241 595 Q1241 609 1242 622 Q1242 636 1242 649 Q1243 663 1243 676 Q1243 690 1244 703 Q1244 717 1244 730 Q1245 744 1245 757 Q1245 771 1245 784 Q1246 798 1246 811" stroke="#EFE6D2" stroke-width="1.75" stroke-opacity="0.62" fill="none" stroke-linecap="round"/><path d="M771 78 Q771 99 772 109 Q772 120 772 130 Q772 141 772 152 Q772 162 772 173 Q772 183 772 194 Q772 205 772 215 Q772 226 772 236 Q772 247 772 257 Q772 268 773 279 Q773 289 773 300 Q773 310 773 321 Q773 331 773 342 Q773 353 773 363 Q773 374 773 384 Q773 395 773 406 Q773 416 773 427 Q773 437 773 448 Q773 458 773 469 Q773 480 773 490 Q773 501 773 511 Q773 522 774 532 Q774 543 774 554 Q774 564 774 575 Q774 585 774 596 Q774 607 774 617 Q774 628 774 638 Q774 649 774 659" stroke="#EFE6D2" stroke-width="2.01" stroke-opacity="0.38" fill="none" stroke-linecap="round"/><path d="M1311 91 Q1311 116 1311 129 Q1312 142 1312 155 Q1312 167 1312 180 Q1312 193 1313 205 Q1313 218 1313 231 Q1313 243 1313 256 Q1314 269 1314 281 Q1314 294 1314 307 Q1314 319 1314 332 Q1315 345 1315 357 Q1315 370 1315 383 Q1315 395 1315 408 Q1315 421 1316 433 Q1316 446 1316 459 Q1316 471 1316 484 Q1316 497 1316 509 Q1316 522 1316 535 Q1316 547 1316 560 Q1317 573 1317 585 Q1317 598 1317 611 Q1317 623 1317 636 Q1317 649 1317 661 Q1317 674 1317 687 Q1317 699 1317 712 Q1317 725 1317 737 Q1317 750 1317 763 Q1317 775 1317 788" stroke="#EFE6D2" stroke-width="0.67" stroke-opacity="0.37" fill="none" stroke-linecap="round"/><path d="M391 67 Q391 89 392 100 Q392 111 392 122 Q393 133 393 144 Q393 155 393 166 Q394 177 394 188 Q394 199 394 211 Q395 222 395 233 Q395 244 395 255 Q395 266 396 277 Q396 288 396 299 Q396 310 396 321 Q397 332 397 343 Q397 354 397 365 Q397 376 397 387 Q398 399 398 410 Q398 421 398 432 Q398 443 398 454 Q398 465 399 476 Q399 487 399 498 Q399 509 399 520 Q399 531 399 542 Q399 553 399 564 Q399 575 400 587 Q400 598 400 609 Q400 620 400 631 Q400 642 400 653 Q400 664 400 675" stroke="#EFE6D2" stroke-width="1.73" stroke-opacity="0.39" fill="none" stroke-linecap="round"/><path d="M567 90 Q567 116 567 129 Q567 142 567 154 Q567 167 567 180 Q568 193 568 206 Q568 219 568 232 Q568 245 568 258 Q568 270 568 283 Q568 296 568 309 Q568 322 568 335 Q568 348 568 361 Q568 374 568 386 Q568 399 569 412 Q569 425 569 438 Q569 451 569 464 Q569 477 569 489 Q569 502 569 515 Q570 528 570 541 Q570 554 570 567 Q570 580 570 593 Q570 605 571 618 Q571 631 571 644 Q571 657 571 670 Q571 683 572 696 Q572 709 572 721 Q572 734 572 747 Q573 760 573 773 Q573 786 573 799" stroke="#D8C08E" stroke-width="1.40" stroke-opacity="0.28" fill="none" stroke-linecap="round"/><path d="M297 100 Q298 120 298 131 Q298 141 298 151 Q299 161 299 172 Q299 182 300 192 Q300 203 300 213 Q300 223 301 234 Q301 244 301 254 Q301 264 302 275 Q302 285 302 295 Q302 306 302 316 Q303 326 303 337 Q303 347 303 357 Q303 367 304 378 Q304 388 304 398 Q304 409 304 419 Q305 429 305 440 Q305 450 305 460 Q305 470 305 481 Q305 491 306 501 Q306 512 306 522 Q306 532 306 543 Q306 553 306 563 Q306 573 306 584 Q306 594 307 604 Q307 615 307 625 Q307 635 307 646 Q307 656 307 666" stroke="#EFE6D2" stroke-width="1.48" stroke-opacity="0.56" fill="none" stroke-linecap="round"/><path d="M1216 101 Q1217 124 1217 136 Q1217 147 1217 159 Q1218 171 1218 182 Q1218 194 1219 205 Q1219 217 1219 228 Q1220 240 1220 251 Q1220 263 1221 274 Q1221 286 1221 297 Q1222 309 1222 320 Q1222 332 1222 343 Q1223 355 1223 367 Q1223 378 1224 390 Q1224 401 1224 413 Q1225 424 1225 436 Q1225 447 1226 459 Q1226 470 1226 482 Q1227 493 1227 505 Q1227 516 1227 528 Q1228 539 1228 551 Q1228 563 1229 574 Q1229 586 1229 597 Q1229 609 1230 620 Q1230 632 1230 643 Q1231 655 1231 666 Q1231 678 1231 689 Q1232 701 1232 712 Q1232 724 1232 735" stroke="#EFE6D2" stroke-width="1.56" stroke-opacity="0.49" fill="none" stroke-linecap="round"/><path d="M783 80 Q783 103 783 114 Q783 126 783 137 Q783 149 783 160 Q783 171 783 183 Q784 194 784 205 Q784 217 784 228 Q784 240 784 251 Q784 262 784 274 Q784 285 784 297 Q784 308 785 319 Q785 331 785 342 Q785 353 785 365 Q785 376 785 388 Q786 399 786 410 Q786 422 786 433 Q786 444 786 456 Q787 467 787 479 Q787 490 787 501 Q787 513 788 524 Q788 536 788 547 Q788 558 788 570 Q789 581 789 592 Q789 604 789 615 Q790 627 790 638 Q790 649 790 661 Q791 672 791 683 Q791 695 792 706" stroke="#D8C08E" stroke-width="1.99" stroke-opacity="0.49" fill="none" stroke-linecap="round"/><path d="M427 78 Q427 101 427 112 Q427 124 427 135 Q428 147 428 158 Q428 170 428 181 Q428 193 429 204 Q429 216 429 228 Q429 239 430 251 Q430 262 430 274 Q430 285 431 297 Q431 308 431 320 Q431 331 432 343 Q432 354 432 366 Q433 377 433 389 Q433 400 433 412 Q434 423 434 435 Q434 446 435 458 Q435 469 435 481 Q436 492 436 504 Q436 515 437 527 Q437 538 437 550 Q437 562 438 573 Q438 585 438 596 Q439 608 439 619 Q439 631 440 642 Q440 654 440 665 Q441 677 441 688 Q441 700 442 711" stroke="#EFE6D2" stroke-width="1.08" stroke-opacity="0.56" fill="none" stroke-linecap="round"/><path d="M-84 98 Q-84 120 -84 131 Q-84 141 -84 152 Q-83 163 -83 174 Q-83 185 -83 195 Q-83 206 -83 217 Q-83 228 -83 239 Q-83 249 -83 260 Q-82 271 -82 282 Q-82 293 -82 303 Q-82 314 -82 325 Q-82 336 -81 347 Q-81 357 -81 368 Q-81 379 -81 390 Q-81 401 -80 411 Q-80 422 -80 433 Q-80 444 -80 455 Q-79 465 -79 476 Q-79 487 -79 498 Q-78 509 -78 519 Q-78 530 -78 541 Q-77 552 -77 563 Q-77 574 -77 584 Q-76 595 -76 606 Q-76 617 -76 628 Q-75 638 -75 649 Q-75 660 -74 671 Q-74 682 -74 692" stroke="#EFE6D2" stroke-width="1.08" stroke-opacity="0.73" fill="none" stroke-linecap="round"/><path d="M55 79 Q55 100 55 111 Q55 122 55 133 Q55 143 55 154 Q55 165 55 176 Q56 187 56 197 Q56 208 56 219 Q56 230 56 241 Q56 251 56 262 Q56 273 56 284 Q56 295 56 305 Q56 316 56 327 Q56 338 56 349 Q56 359 57 370 Q57 381 57 392 Q57 403 57 413 Q57 424 57 435 Q57 446 57 457 Q58 467 58 478 Q58 489 58 500 Q58 511 58 521 Q58 532 59 543 Q59 554 59 565 Q59 575 59 586 Q59 597 60 608 Q60 619 60 629 Q60 640 60 651 Q61 662 61 673" stroke="#EFE6D2" stroke-width="1.45" stroke-opacity="0.70" fill="none" stroke-linecap="round"/><path d="M203 103 Q204 130 204 143 Q204 157 205 170 Q205 184 205 197 Q205 211 206 224 Q206 238 206 251 Q207 264 207 278 Q207 291 207 305 Q208 318 208 332 Q208 345 209 359 Q209 372 209 386 Q210 399 210 412 Q210 426 211 439 Q211 453 211 466 Q212 480 212 493 Q212 507 213 520 Q213 534 213 547 Q214 560 214 574 Q214 587 214 601 Q215 614 215 628 Q215 641 216 655 Q216 668 216 682 Q217 695 217 708 Q217 722 217 735 Q218 749 218 762 Q218 776 219 789 Q219 803 219 816 Q219 830 220 843" stroke="#D8C08E" stroke-width="1.08" stroke-opacity="0.43" fill="none" stroke-linecap="round"/><path d="M298 78 Q299 101 299 112 Q299 124 299 135 Q300 147 300 158 Q300 170 300 181 Q301 193 301 204 Q301 215 301 227 Q302 238 302 250 Q302 261 302 273 Q303 284 303 296 Q303 307 304 319 Q304 330 304 342 Q304 353 305 365 Q305 376 305 388 Q306 399 306 411 Q306 422 307 434 Q307 445 307 457 Q308 468 308 480 Q308 491 308 503 Q309 514 309 526 Q309 537 310 549 Q310 560 310 572 Q311 583 311 594 Q311 606 312 617 Q312 629 312 640 Q313 652 313 663 Q313 675 314 686 Q314 698 314 709" stroke="#EFE6D2" stroke-width="1.61" stroke-opacity="0.32" fill="none" stroke-linecap="round"/><path d="M-77 104 Q-77 126 -76 138 Q-76 149 -76 161 Q-75 172 -75 183 Q-75 195 -75 206 Q-74 217 -74 229 Q-74 240 -74 251 Q-73 263 -73 274 Q-73 285 -73 297 Q-72 308 -72 319 Q-72 331 -72 342 Q-72 353 -71 365 Q-71 376 -71 388 Q-71 399 -71 410 Q-70 422 -70 433 Q-70 444 -70 456 Q-70 467 -70 478 Q-70 490 -69 501 Q-69 512 -69 524 Q-69 535 -69 546 Q-69 558 -69 569 Q-69 580 -68 592 Q-68 603 -68 614 Q-68 626 -68 637 Q-68 649 -68 660 Q-68 671 -68 683 Q-68 694 -68 705 Q-68 717 -68 728" stroke="#D8C08E" stroke-width="1.29" stroke-opacity="0.83" fill="none" stroke-linecap="round"/><path d="M855 73 Q856 96 856 107 Q856 119 857 130 Q857 142 857 153 Q858 165 858 176 Q858 188 858 199 Q859 211 859 222 Q859 234 860 246 Q860 257 860 269 Q860 280 861 292 Q861 303 861 315 Q861 326 862 338 Q862 349 862 361 Q862 372 862 384 Q863 395 863 407 Q863 418 863 430 Q864 441 864 453 Q864 465 864 476 Q864 488 864 499 Q865 511 865 522 Q865 534 865 545 Q865 557 865 568 Q865 580 866 591 Q866 603 866 614 Q866 626 866 637 Q866 649 866 661 Q866 672 866 684 Q867 695 867 707" stroke="#EFE6D2" stroke-width="1.39" stroke-opacity="0.28" fill="none" stroke-linecap="round"/><path d="M882 90 Q882 115 882 128 Q882 140 882 153 Q883 165 883 178 Q883 190 883 203 Q883 215 883 228 Q883 240 883 252 Q883 265 883 277 Q883 290 884 302 Q884 315 884 327 Q884 340 884 352 Q884 365 884 377 Q884 390 884 402 Q884 415 884 427 Q884 440 884 452 Q884 465 884 477 Q884 490 884 502 Q884 515 884 527 Q884 540 884 552 Q884 565 884 577 Q885 589 885 602 Q885 614 885 627 Q885 639 885 652 Q885 664 885 677 Q885 689 885 702 Q885 714 885 727 Q885 739 885 752 Q885 764 885 777" stroke="#D8C08E" stroke-width="1.84" stroke-opacity="0.40" fill="none" stroke-linecap="round"/><path d="M591 102 Q591 123 591 133 Q591 143 591 154 Q591 164 592 174 Q592 185 592 195 Q592 205 592 216 Q592 226 592 236 Q592 247 592 257 Q592 267 593 278 Q593 288 593 298 Q593 309 593 319 Q593 329 593 340 Q593 350 594 360 Q594 371 594 381 Q594 391 594 402 Q594 412 595 422 Q595 433 595 443 Q595 453 595 464 Q596 474 596 484 Q596 495 596 505 Q597 515 597 525 Q597 536 597 546 Q598 556 598 567 Q598 577 598 587 Q599 598 599 608 Q599 618 599 629 Q600 639 600 649 Q600 660 601 670" stroke="#EFE6D2" stroke-width="0.99" stroke-opacity="0.46" fill="none" stroke-linecap="round"/><path d="M117 65 Q117 89 117 101 Q117 113 117 125 Q117 137 118 149 Q118 161 118 173 Q118 185 118 197 Q118 208 118 220 Q118 232 118 244 Q118 256 119 268 Q119 280 119 292 Q119 304 119 316 Q119 328 119 340 Q119 352 119 364 Q119 375 119 387 Q119 399 119 411 Q119 423 119 435 Q119 447 119 459 Q119 471 119 483 Q119 495 120 507 Q120 519 120 531 Q120 542 120 554 Q120 566 120 578 Q120 590 120 602 Q120 614 120 626 Q120 638 120 650 Q120 662 120 674 Q120 686 120 697 Q120 709 120 721" stroke="#EFE6D2" stroke-width="0.90" stroke-opacity="0.69" fill="none" stroke-linecap="round"/><path d="M851 104 Q852 128 852 140 Q853 152 853 164 Q853 176 854 189 Q854 201 854 213 Q855 225 855 237 Q855 249 856 261 Q856 274 856 286 Q857 298 857 310 Q857 322 858 334 Q858 346 858 358 Q858 371 859 383 Q859 395 859 407 Q860 419 860 431 Q860 443 860 456 Q861 468 861 480 Q861 492 862 504 Q862 516 862 528 Q862 540 863 553 Q863 565 863 577 Q863 589 864 601 Q864 613 864 625 Q864 637 864 650 Q865 662 865 674 Q865 686 865 698 Q865 710 866 722 Q866 735 866 747 Q866 759 866 771" stroke="#EFE6D2" stroke-width="2.11" stroke-opacity="0.74" fill="none" stroke-linecap="round"/><path d="M230 96 Q231 117 231 127 Q231 138 231 148 Q232 159 232 169 Q232 179 232 190 Q233 200 233 211 Q233 221 234 232 Q234 242 234 252 Q234 263 235 273 Q235 284 235 294 Q236 305 236 315 Q236 325 236 336 Q237 346 237 357 Q237 367 238 378 Q238 388 238 399 Q239 409 239 419 Q239 430 240 440 Q240 451 240 461 Q241 472 241 482 Q241 492 242 503 Q242 513 242 524 Q242 534 243 545 Q243 555 243 565 Q244 576 244 586 Q244 597 245 607 Q245 618 245 628 Q246 639 246 649 Q246 659 246 670" stroke="#EFE6D2" stroke-width="1.39" stroke-opacity="0.35" fill="none" stroke-linecap="round"/><path d="M907 91 Q907 117 908 130 Q908 143 908 155 Q909 168 909 181 Q909 194 910 207 Q910 220 910 233 Q911 246 911 259 Q911 272 912 285 Q912 297 912 310 Q913 323 913 336 Q913 349 913 362 Q914 375 914 388 Q914 401 915 414 Q915 426 915 439 Q916 452 916 465 Q916 478 916 491 Q917 504 917 517 Q917 530 917 543 Q918 555 918 568 Q918 581 918 594 Q919 607 919 620 Q919 633 919 646 Q920 659 920 672 Q920 684 920 697 Q920 710 921 723 Q921 736 921 749 Q921 762 921 775 Q922 788 922 801" stroke="#EFE6D2" stroke-width="1.20" stroke-opacity="0.66" fill="none" stroke-linecap="round"/><path d="M415 74 Q416 97 416 108 Q416 119 416 130 Q416 141 416 152 Q416 163 417 174 Q417 185 417 196 Q417 207 417 218 Q417 229 418 240 Q418 252 418 263 Q418 274 418 285 Q419 296 419 307 Q419 318 419 329 Q419 340 420 351 Q420 362 420 373 Q420 384 421 395 Q421 406 421 418 Q421 429 422 440 Q422 451 422 462 Q423 473 423 484 Q423 495 423 506 Q424 517 424 528 Q424 539 425 550 Q425 561 425 572 Q425 584 426 595 Q426 606 426 617 Q427 628 427 639 Q427 650 428 661 Q428 672 428 683" stroke="#D8C08E" stroke-width="1.87" stroke-opacity="0.82" fill="none" stroke-linecap="round"/><path d="M156 75 Q157 98 157 110 Q157 122 157 134 Q157 146 157 158 Q157 170 158 182 Q158 193 158 205 Q158 217 158 229 Q158 241 159 253 Q159 265 159 277 Q159 288 159 300 Q160 312 160 324 Q160 336 160 348 Q160 360 161 372 Q161 383 161 395 Q161 407 162 419 Q162 431 162 443 Q162 455 163 467 Q163 479 163 490 Q163 502 164 514 Q164 526 164 538 Q164 550 165 562 Q165 574 165 585 Q166 597 166 609 Q166 621 167 633 Q167 645 167 657 Q167 669 168 680 Q168 692 168 704 Q169 716 169 728" stroke="#D8C08E" stroke-width="1.26" stroke-opacity="0.29" fill="none" stroke-linecap="round"/><path d="M-99 78 Q-99 105 -99 119 Q-99 132 -99 146 Q-99 159 -99 172 Q-99 186 -99 199 Q-98 213 -98 226 Q-98 240 -98 253 Q-98 266 -98 280 Q-98 293 -98 307 Q-98 320 -98 334 Q-98 347 -98 360 Q-98 374 -98 387 Q-98 401 -98 414 Q-98 428 -98 441 Q-98 454 -98 468 Q-97 481 -97 495 Q-97 508 -97 522 Q-97 535 -97 548 Q-97 562 -97 575 Q-97 589 -97 602 Q-97 616 -96 629 Q-96 643 -96 656 Q-96 669 -96 683 Q-96 696 -96 710 Q-96 723 -95 737 Q-95 750 -95 763 Q-95 777 -95 790 Q-94 804 -94 817" stroke="#EFE6D2" stroke-width="0.64" stroke-opacity="0.49" fill="none" stroke-linecap="round"/><path d="M173 84 Q174 107 174 119 Q174 131 174 142 Q174 154 174 166 Q174 177 175 189 Q175 201 175 212 Q175 224 175 236 Q175 247 175 259 Q175 271 175 282 Q175 294 176 306 Q176 318 176 329 Q176 341 176 353 Q176 364 176 376 Q176 388 176 399 Q176 411 176 423 Q176 434 176 446 Q176 458 176 469 Q176 481 176 493 Q176 504 177 516 Q177 528 177 539 Q177 551 177 563 Q177 574 177 586 Q177 598 177 609 Q177 621 177 633 Q177 644 177 656 Q177 668 177 679 Q177 691 177 703 Q177 714 177 726" stroke="#EFE6D2" stroke-width="2.04" stroke-opacity="0.74" fill="none" stroke-linecap="round"/><path d="M883 83 Q884 110 884 123 Q884 136 885 149 Q885 163 885 176 Q885 189 886 202 Q886 216 886 229 Q887 242 887 255 Q887 269 888 282 Q888 295 888 308 Q889 322 889 335 Q889 348 890 361 Q890 375 890 388 Q890 401 891 414 Q891 428 891 441 Q892 454 892 467 Q892 481 893 494 Q893 507 893 520 Q894 534 894 547 Q894 560 895 573 Q895 587 895 600 Q896 613 896 626 Q896 640 896 653 Q897 666 897 679 Q897 693 898 706 Q898 719 898 732 Q898 746 899 759 Q899 772 899 785 Q899 799 900 812" stroke="#EFE6D2" stroke-width="1.39" stroke-opacity="0.82" fill="none" stroke-linecap="round"/><path d="M336 95 Q337 119 337 130 Q337 142 338 153 Q338 165 338 177 Q338 188 339 200 Q339 212 339 223 Q339 235 340 247 Q340 258 340 270 Q341 281 341 293 Q341 305 341 316 Q341 328 342 340 Q342 351 342 363 Q342 375 343 386 Q343 398 343 410 Q343 421 343 433 Q344 444 344 456 Q344 468 344 479 Q344 491 344 503 Q345 514 345 526 Q345 538 345 549 Q345 561 345 572 Q345 584 346 596 Q346 607 346 619 Q346 631 346 642 Q346 654 346 666 Q346 677 346 689 Q346 701 346 712 Q347 724 347 735" stroke="#EFE6D2" stroke-width="0.99" stroke-opacity="0.51" fill="none" stroke-linecap="round"/><path d="M110 70 Q111 92 111 103 Q111 114 111 126 Q112 137 112 148 Q112 159 113 170 Q113 181 113 192 Q114 203 114 214 Q114 225 115 236 Q115 247 115 258 Q115 269 116 280 Q116 291 116 302 Q117 313 117 324 Q117 335 118 346 Q118 357 118 368 Q119 380 119 391 Q119 402 120 413 Q120 424 120 435 Q121 446 121 457 Q121 468 121 479 Q122 490 122 501 Q122 512 123 523 Q123 534 123 545 Q124 556 124 567 Q124 578 124 589 Q125 600 125 611 Q125 622 125 634 Q126 645 126 656 Q126 667 126 678" stroke="#EFE6D2" stroke-width="1.73" stroke-opacity="0.70" fill="none" stroke-linecap="round"/><path d="M1061 94 Q1061 119 1061 132 Q1061 145 1061 157 Q1062 170 1062 183 Q1062 196 1062 208 Q1062 221 1062 234 Q1062 247 1063 259 Q1063 272 1063 285 Q1063 298 1063 310 Q1063 323 1063 336 Q1063 349 1063 361 Q1063 374 1064 387 Q1064 400 1064 412 Q1064 425 1064 438 Q1064 451 1064 463 Q1064 476 1064 489 Q1064 502 1064 514 Q1064 527 1064 540 Q1064 553 1064 565 Q1064 578 1064 591 Q1064 604 1064 616 Q1064 629 1065 642 Q1065 655 1065 667 Q1065 680 1065 693 Q1065 706 1065 718 Q1065 731 1065 744 Q1065 757 1065 769 Q1065 782 1065 795" stroke="#D8C08E" stroke-width="1.33" stroke-opacity="0.28" fill="none" stroke-linecap="round"/><path d="M602 88 Q602 114 602 127 Q603 140 603 152 Q603 165 603 178 Q604 191 604 204 Q604 217 604 230 Q605 243 605 256 Q605 268 605 281 Q606 294 606 307 Q606 320 607 333 Q607 346 607 359 Q608 372 608 385 Q608 397 608 410 Q609 423 609 436 Q609 449 610 462 Q610 475 610 488 Q611 501 611 513 Q611 526 612 539 Q612 552 612 565 Q613 578 613 591 Q613 604 614 617 Q614 630 614 642 Q614 655 615 668 Q615 681 615 694 Q616 707 616 720 Q616 733 617 746 Q617 758 617 771 Q618 784 618 797" stroke="#D8C08E" stroke-width="0.69" stroke-opacity="0.72" fill="none" stroke-linecap="round"/><path d="M1256 92 Q1257 116 1257 127 Q1257 139 1257 151 Q1258 163 1258 174 Q1258 186 1259 198 Q1259 209 1259 221 Q1260 233 1260 245 Q1260 256 1261 268 Q1261 280 1261 291 Q1262 303 1262 315 Q1262 327 1263 338 Q1263 350 1263 362 Q1264 373 1264 385 Q1264 397 1264 409 Q1265 420 1265 432 Q1265 444 1266 455 Q1266 467 1266 479 Q1266 490 1267 502 Q1267 514 1267 526 Q1267 537 1268 549 Q1268 561 1268 572 Q1268 584 1269 596 Q1269 608 1269 619 Q1269 631 1270 643 Q1270 654 1270 666 Q1270 678 1270 690 Q1271 701 1271 713 Q1271 725 1271 736" stroke="#D8C08E" stroke-width="0.69" stroke-opacity="0.84" fill="none" stroke-linecap="round"/><path d="M135 91 Q135 114 135 126 Q135 138 135 150 Q135 161 135 173 Q135 185 135 197 Q135 209 135 221 Q135 232 135 244 Q135 256 135 268 Q135 280 135 292 Q135 303 136 315 Q136 327 136 339 Q136 351 136 363 Q136 374 136 386 Q136 398 136 410 Q136 422 136 433 Q136 445 136 457 Q137 469 137 481 Q137 493 137 504 Q137 516 137 528 Q137 540 137 552 Q138 564 138 575 Q138 587 138 599 Q138 611 138 623 Q138 635 139 646 Q139 658 139 670 Q139 682 139 694 Q140 705 140 717 Q140 729 140 741" stroke="#EFE6D2" stroke-width="1.62" stroke-opacity="0.72" fill="none" stroke-linecap="round"/><path d="M-24 90 Q-23 116 -23 129 Q-23 142 -23 155 Q-22 169 -22 182 Q-22 195 -21 208 Q-21 221 -21 234 Q-21 247 -20 260 Q-20 273 -20 286 Q-20 299 -19 312 Q-19 325 -19 338 Q-19 351 -18 364 Q-18 377 -18 391 Q-18 404 -18 417 Q-17 430 -17 443 Q-17 456 -17 469 Q-17 482 -16 495 Q-16 508 -16 521 Q-16 534 -16 547 Q-16 560 -15 573 Q-15 586 -15 599 Q-15 613 -15 626 Q-15 639 -15 652 Q-14 665 -14 678 Q-14 691 -14 704 Q-14 717 -14 730 Q-14 743 -14 756 Q-14 769 -14 782 Q-14 795 -14 808" stroke="#D8C08E" stroke-width="1.87" stroke-opacity="0.72" fill="none" stroke-linecap="round"/><path d="M1147 83 Q1147 105 1147 116 Q1148 127 1148 138 Q1148 149 1148 160 Q1148 171 1148 182 Q1148 193 1148 203 Q1148 214 1148 225 Q1148 236 1148 247 Q1148 258 1148 269 Q1148 280 1148 291 Q1148 302 1148 313 Q1148 324 1148 335 Q1148 346 1148 357 Q1148 368 1148 379 Q1148 390 1149 401 Q1149 412 1149 423 Q1149 434 1149 445 Q1149 456 1149 467 Q1149 478 1149 489 Q1149 500 1149 511 Q1149 522 1149 533 Q1149 544 1150 555 Q1150 566 1150 577 Q1150 588 1150 598 Q1150 609 1150 620 Q1150 631 1151 642 Q1151 653 1151 664 Q1151 675 1151 686" stroke="#EFE6D2" stroke-width="1.41" stroke-opacity="0.33" fill="none" stroke-linecap="round"/><path d="M735 65 Q735 87 735 98 Q735 108 736 119 Q736 130 736 141 Q736 152 737 162 Q737 173 737 184 Q737 195 738 206 Q738 216 738 227 Q738 238 739 249 Q739 260 739 270 Q739 281 740 292 Q740 303 740 314 Q741 324 741 335 Q741 346 741 357 Q742 367 742 378 Q742 389 743 400 Q743 411 743 421 Q744 432 744 443 Q744 454 745 465 Q745 475 745 486 Q746 497 746 508 Q746 519 746 529 Q747 540 747 551 Q747 562 748 573 Q748 583 748 594 Q749 605 749 616 Q749 626 750 637 Q750 648 750 659" stroke="#EFE6D2" stroke-width="1.28" stroke-opacity="0.73" fill="none" stroke-linecap="round"/><path d="M1068 65 Q1068 92 1068 105 Q1069 119 1069 132 Q1069 146 1069 159 Q1070 172 1070 186 Q1070 199 1070 213 Q1070 226 1070 240 Q1071 253 1071 266 Q1071 280 1071 293 Q1071 307 1072 320 Q1072 334 1072 347 Q1072 360 1072 374 Q1072 387 1072 401 Q1072 414 1073 427 Q1073 441 1073 454 Q1073 468 1073 481 Q1073 495 1073 508 Q1073 521 1073 535 Q1073 548 1074 562 Q1074 575 1074 589 Q1074 602 1074 615 Q1074 629 1074 642 Q1074 656 1074 669 Q1074 683 1074 696 Q1074 709 1074 723 Q1074 736 1074 750 Q1074 763 1074 776 Q1074 790 1074 803" stroke="#EFE6D2" stroke-width="1.64" stroke-opacity="0.38" fill="none" stroke-linecap="round"/><rect width="1200" height="800" fill="url(#v)"/>
<g transform="translate(1104 704) scale(0.3076923076923077) translate(-20 -20)" opacity="0.9">
<path fill="#D8C08E" d="M34 30H58V33C54 34 53 36 53 40V160C53 164 54 166 58 167V170H34V167C38 166 39 164 39 160V40C39 36 38 34 34 33Z"/>
<path fill="#D8C08E" d="M142 30H166V33C162 34 161 36 161 40V160C161 164 162 166 166 167V170H142V167C146 166 147 164 147 160V40C147 36 146 34 142 33Z"/>
<path fill="#D8C08E" d="M160 60C168 62 172 70 171 80L171 84C172 88 176 92 177 96C176 98 173 99 172 100C173 103 172 105 171 106C173 108 172 111 170 112C170 116 168 120 164 121C162 122 161 126 160 132Z"/>
<g fill="none" stroke="#D8C08E" stroke-linecap="round"><path stroke-width="4" d="M149 72C132 64 116 71 104 83C94 93 80 98 68 92C62 89 62 82 68 80"/><path stroke-width="5" d="M149 90C130 84 114 95 100 105C86 115 70 116 53 108"/><path stroke-width="3.5" d="M149 106C134 104 122 115 112 127C104 137 92 141 82 135C76 131 78 124 85 124"/><path stroke-width="3" d="M149 118C140 130 137 143 145 150"/></g></g>
</svg>