<svg xmlns="http://www.w3.org/2000/svg" viewBox="0 0 1200 800" width="1200" height="800" preserveAspectRatio="xMidYMid slice">
<defs><linearGradient id="g" x1="0" y1="0" x2="0.4" y2="1"><stop offset="0" stop-color="#EFE6D2"/><stop offset="1" stop-color="#E8DCC2"/></linearGradient>
<radialGradient id="v" cx="0.5" cy="0.35" r="0.8"><stop offset="0.5" stop-color="#000" stop-opacity="0"/><stop offset="1" stop-color="#000" stop-opacity="0.18"/></radialGradient></defs>
<rect width="1200" height="800" fill="url(#g)"/><path d="M265 103 Q283 124 292 135 Q301 145 308 156 Q315 166 319 177 Q323 187 322 198 Q322 208 317 218 Q312 229 304 239 Q295 250 285 260 Q274 271 264 281 Q254 292 246 302 Q238 313 234 323 Q230 334 231 344 Q232 354 238 365 Q244 375 254 386 Q264 396 275 407 Q287 417 299 428 Q311 438 319 449 Q328 459 332 469 Q336 480 335 490 Q333 501 326 511 Q319 522 307 532 Q296 543 282 553 Q269 564 256 574 Q243 585 234 595 Q224 605 220 616 Q216 626 219 637 Q221 647 229 658 Q238 668 251 679" stroke="#2B1D14" stroke-width="1.34" stroke-opacity="0.65" fill="none" stroke-linecap="round"/><path d="M920 78 Q931 98 937 108 Q943 119 948 129 Q952 139 955 149 Q957 160 957 170 Q956 180 953 190 Q950 200 944 211 Q939 221 932 231 Q925 241 919 252 Q912 262 907 272 Q902 282 900 292 Q897 303 898 313 Q899 323 904 333 Q908 344 915 354 Q921 364 929 374 Q937 384 944 395 Q952 405 957 415 Q962 425 964 436 Q966 446 964 456 Q962 466 957 476 Q952 487 944 497 Q936 507 927 517 Q918 528 910 538 Q902 548 897 558 Q892 568 890 579 Q889 589 892 599 Q894 609 901 620 Q907 630 916 640" stroke="#2B1D14" stroke-width="1.22" stroke-opacity="0.31" fill="none" stroke-linecap="round"/><path d="M387 85 Q398 109 401 121 Q404 132 404 144 Q405 156 402 168 Q399 179 394 191 Q389 203 381 215 Q374 227 365 238 Q356 250 347 262 Q338 274 330 285 Q322 297 316 309 Q310 321 307 333 Q304 344 304 356 Q305 368 308 380 Q312 391 319 403 Q326 415 335 427 Q345 439 355 450 Q366 462 376 474 Q387 486 396 497 Q405 509 411 521 Q417 533 420 545 Q423 556 422 568 Q421 580 416 592 Q411 603 402 615 Q393 627 382 639 Q371 651 359 662 Q347 674 335 686 Q323 698 313 709 Q303 721 297 733" stroke="#2B1D14" stroke-width="1.52" stroke-opacity="0.57" fill="none" stroke-linecap="round"/><path d="M894 68 Q885 90 879 101 Q873 112 866 122 Q860 133 854 144 Q849 155 846 166 Q842 176 842 187 Q841 198 844 209 Q846 220 852 230 Q857 241 864 252 Q871 263 878 274 Q885 284 892 295 Q898 306 903 317 Q907 328 908 339 Q909 349 906 360 Q904 371 898 382 Q892 393 885 403 Q877 414 868 425 Q860 436 852 447 Q845 457 840 468 Q835 479 833 490 Q832 501 834 511 Q836 522 842 533 Q848 544 857 555 Q865 566 875 576 Q884 587 893 598 Q902 609 908 620 Q914 630 916 641 Q918 652 916 663" stroke="#2B1D14" stroke-width="1.02" stroke-opacity="0.56" fill="none" stroke-linecap="round"/><path d="M231 69 Q230 90 232 101 Q234 111 238 122 Q243 132 249 143 Q255 153 262 164 Q269 175 275 185 Q281 196 285 206 Q290 217 291 227 Q293 238 291 248 Q289 259 284 270 Q280 280 273 291 Q266 301 258 312 Q250 322 242 333 Q235 343 230 354 Q224 365 222 375 Q220 386 221 396 Q223 407 228 417 Q233 428 240 438 Q248 449 257 460 Q266 470 274 481 Q283 491 289 502 Q296 512 299 523 Q302 533 301 544 Q300 555 295 565 Q290 576 282 586 Q274 597 264 607 Q254 618 244 628 Q235 639 227 649" stroke="#5A3E2B" stroke-width="1.35" stroke-opacity="0.47" fill="none" stroke-linecap="round"/><path d="M-7 87 Q1 113 4 126 Q6 139 7 152 Q7 165 5 178 Q4 191 -0 204 Q-4 217 -10 230 Q-15 242 -21 255 Q-27 268 -33 281 Q-39 294 -43 307 Q-48 320 -50 333 Q-53 346 -53 359 Q-53 372 -50 385 Q-47 398 -42 411 Q-37 424 -30 437 Q-24 450 -16 463 Q-9 476 -3 489 Q4 502 8 515 Q13 528 15 541 Q17 554 16 567 Q15 579 11 592 Q7 605 1 618 Q-5 631 -13 644 Q-21 657 -29 670 Q-37 683 -44 696 Q-51 709 -55 722 Q-60 735 -62 748 Q-63 761 -61 774 Q-59 787 -54 800" stroke="#2B1D14" stroke-width="0.86" stroke-opacity="0.43" fill="none" stroke-linecap="round"/><path d="M1150 88 Q1164 113 1168 126 Q1171 138 1169 151 Q1167 163 1160 176 Q1154 189 1143 201 Q1133 214 1121 226 Q1108 239 1097 251 Q1086 264 1078 276 Q1070 289 1067 301 Q1064 314 1068 326 Q1071 339 1079 351 Q1088 364 1101 376 Q1113 389 1127 401 Q1141 414 1153 427 Q1166 439 1174 452 Q1182 464 1184 477 Q1186 489 1181 502 Q1177 514 1166 527 Q1155 539 1141 552 Q1126 564 1110 577 Q1095 589 1082 602 Q1068 614 1060 627 Q1052 639 1051 652 Q1050 665 1057 677 Q1063 690 1076 702 Q1089 715 1106 727 Q1122 740 1139 752 Q1157 765 1171 777" stroke="#2B1D14" stroke-width="1.23" stroke-opacity="0.63" fill="none" stroke-linecap="round"/><path d="M-11 72 Q-2 97 3 110 Q7 122 10 135 Q13 148 14 160 Q16 173 16 185 Q15 198 13 210 Q11 223 7 236 Q3 248 -2 261 Q-7 273 -12 286 Q-18 299 -23 311 Q-28 324 -31 336 Q-35 349 -36 361 Q-38 374 -38 387 Q-37 399 -34 412 Q-32 424 -27 437 Q-22 449 -17 462 Q-11 475 -5 487 Q2 500 7 512 Q13 525 17 538 Q21 550 23 563 Q25 575 24 588 Q23 600 20 613 Q17 626 12 638 Q6 651 -0 663 Q-7 676 -14 688 Q-21 701 -27 714 Q-34 726 -38 739 Q-43 751 -45 764" stroke="#2B1D14" stroke-width="2.05" stroke-opacity="0.83" fill="none" stroke-linecap="round"/><path d="M-75 84 Q-90 110 -99 123 Q-107 136 -114 149 Q-122 162 -126 175 Q-131 188 -131 201 Q-132 214 -128 227 Q-125 240 -118 253 Q-111 266 -101 279 Q-92 292 -82 305 Q-73 318 -65 331 Q-57 344 -52 357 Q-48 370 -48 383 Q-48 396 -53 409 Q-58 422 -67 435 Q-75 448 -86 461 Q-97 474 -108 487 Q-119 500 -127 513 Q-135 526 -139 539 Q-143 552 -142 565 Q-141 578 -135 591 Q-129 604 -118 617 Q-108 630 -96 643 Q-83 657 -72 670 Q-60 683 -51 696 Q-43 709 -39 722 Q-35 735 -38 748 Q-40 761 -48 774 Q-56 787 -68 800" stroke="#2B1D14" stroke-width="1.79" stroke-opacity="0.56" fill="none" stroke-linecap="round"/><path d="M1231 99 Q1247 124 1255 137 Q1264 149 1272 162 Q1280 175 1286 187 Q1292 200 1295 213 Q1298 225 1298 238 Q1297 251 1293 263 Q1289 276 1281 288 Q1274 301 1264 314 Q1255 326 1245 339 Q1235 352 1225 364 Q1216 377 1209 389 Q1202 402 1198 415 Q1195 427 1195 440 Q1196 453 1201 465 Q1206 478 1214 490 Q1223 503 1234 516 Q1245 528 1257 541 Q1269 554 1279 566 Q1290 579 1298 591 Q1306 604 1310 617 Q1314 629 1313 642 Q1313 655 1307 667 Q1301 680 1292 692 Q1282 705 1269 718 Q1257 730 1243 743 Q1230 756 1218 768 Q1205 781 1196 793" stroke="#2B1D14" stroke-width="1.28" stroke-opacity="0.30" fill="none" stroke-linecap="round"/><path d="M939 88 Q940 110 937 121 Q935 132 930 142 Q925 153 918 164 Q911 175 903 186 Q895 196 886 207 Q878 218 870 229 Q862 240 856 250 Q851 261 847 272 Q844 283 844 294 Q844 304 847 315 Q851 326 857 337 Q863 348 872 358 Q881 369 890 380 Q900 391 910 402 Q920 412 929 423 Q938 434 945 445 Q951 456 954 466 Q958 477 957 488 Q957 499 952 510 Q948 520 940 531 Q932 542 922 553 Q912 564 900 574 Q888 585 877 596 Q865 607 855 618 Q846 628 839 639 Q832 650 828 661 Q825 672 826 682" stroke="#5A3E2B" stroke-width="1.25" stroke-opacity="0.81" fill="none" stroke-linecap="round"/><path d="M811 95 Q814 116 813 126 Q812 137 809 147 Q806 158 801 169 Q796 179 789 190 Q783 200 775 211 Q768 221 761 232 Q754 242 748 253 Q742 264 737 274 Q733 285 731 295 Q730 306 731 316 Q732 327 735 337 Q739 348 745 359 Q752 369 759 380 Q767 390 776 401 Q785 411 793 422 Q801 432 809 443 Q816 454 821 464 Q825 475 827 485 Q829 496 828 506 Q827 517 822 527 Q818 538 811 549 Q804 559 794 570 Q785 580 775 591 Q765 601 755 612 Q746 622 738 633 Q729 644 724 654 Q718 665 716 675" stroke="#2B1D14" stroke-width="1.12" stroke-opacity="0.56" fill="none" stroke-linecap="round"/><path d="M1186 83 Q1203 108 1213 121 Q1223 134 1232 146 Q1242 159 1249 172 Q1257 185 1261 197 Q1265 210 1266 223 Q1266 236 1262 248 Q1258 261 1251 274 Q1243 287 1233 299 Q1223 312 1211 325 Q1200 338 1188 350 Q1177 363 1168 376 Q1159 389 1154 401 Q1149 414 1148 427 Q1147 440 1151 452 Q1156 465 1164 478 Q1173 491 1184 503 Q1196 516 1210 529 Q1223 542 1236 554 Q1249 567 1259 580 Q1270 593 1276 605 Q1283 618 1284 631 Q1285 644 1281 656 Q1276 669 1267 682 Q1257 695 1244 707 Q1231 720 1216 733 Q1201 746 1186 758 Q1171 771 1159 784" stroke="#5A3E2B" stroke-width="0.63" stroke-opacity="0.79" fill="none" stroke-linecap="round"/><path d="M778 103 Q769 125 760 136 Q751 147 740 159 Q728 170 717 181 Q705 192 696 203 Q686 215 681 226 Q675 237 675 248 Q675 259 681 270 Q687 282 697 293 Q707 304 720 315 Q734 326 747 337 Q760 349 771 360 Q782 371 788 382 Q794 393 794 404 Q794 416 787 427 Q781 438 769 449 Q757 460 742 471 Q727 483 712 494 Q697 505 685 516 Q672 527 666 538 Q659 550 659 561 Q660 572 667 583 Q675 594 688 605 Q702 617 718 628 Q735 639 752 650 Q769 661 782 672 Q796 684 803 695 Q810 706 810 717" stroke="#5A3E2B" stroke-width="1.65" stroke-opacity="0.65" fill="none" stroke-linecap="round"/><path d="M737 101 Q725 125 717 137 Q709 150 700 162 Q691 174 683 187 Q675 199 669 211 Q663 224 661 236 Q658 248 659 260 Q661 273 666 285 Q671 297 679 310 Q687 322 697 334 Q707 346 717 359 Q727 371 736 383 Q745 396 750 408 Q756 420 757 432 Q759 445 756 457 Q753 469 746 482 Q739 494 728 506 Q718 518 706 531 Q695 543 683 555 Q672 568 663 580 Q654 592 649 605 Q644 617 644 629 Q644 641 649 654 Q654 666 664 678 Q673 691 686 703 Q698 715 712 727 Q725 740 737 752 Q749 764 758 777" stroke="#5A3E2B" stroke-width="1.33" stroke-opacity="0.41" fill="none" stroke-linecap="round"/><path d="M892 92 Q904 115 906 126 Q908 138 906 149 Q904 161 897 172 Q890 184 880 195 Q870 206 859 218 Q848 229 837 241 Q826 252 818 264 Q810 275 806 286 Q802 298 803 309 Q804 321 810 332 Q817 344 827 355 Q838 366 850 378 Q863 389 876 401 Q889 412 900 424 Q910 435 916 447 Q923 458 923 469 Q924 481 918 492 Q913 504 902 515 Q892 527 878 538 Q864 549 849 561 Q834 572 821 584 Q808 595 799 607 Q790 618 787 629 Q785 641 789 652 Q793 664 803 675 Q814 687 828 698 Q843 709 860 721" stroke="#2B1D14" stroke-width="1.41" stroke-opacity="0.26" fill="none" stroke-linecap="round"/><path d="M-133 69 Q-134 91 -132 101 Q-129 112 -124 123 Q-119 134 -112 145 Q-105 155 -99 166 Q-92 177 -87 188 Q-82 199 -80 210 Q-78 220 -80 231 Q-81 242 -86 253 Q-91 264 -98 274 Q-105 285 -113 296 Q-121 307 -128 318 Q-134 329 -138 339 Q-142 350 -142 361 Q-142 372 -138 383 Q-134 393 -126 404 Q-119 415 -110 426 Q-102 437 -93 448 Q-85 458 -80 469 Q-74 480 -72 491 Q-70 502 -73 512 Q-76 523 -82 534 Q-89 545 -98 556 Q-108 566 -117 577 Q-127 588 -135 599 Q-142 610 -146 621 Q-150 631 -149 642 Q-148 653 -142 664" stroke="#5A3E2B" stroke-width="2.11" stroke-opacity="0.34" fill="none" stroke-linecap="round"/><path d="M990 103 Q1000 128 1007 140 Q1015 153 1024 165 Q1033 177 1041 190 Q1048 202 1054 214 Q1059 226 1059 239 Q1060 251 1057 263 Q1053 276 1045 288 Q1038 300 1028 312 Q1018 325 1008 337 Q999 349 991 362 Q984 374 980 386 Q977 398 979 411 Q981 423 987 435 Q994 448 1004 460 Q1015 472 1026 484 Q1037 497 1047 509 Q1057 521 1063 534 Q1069 546 1070 558 Q1071 570 1065 583 Q1060 595 1050 607 Q1040 620 1028 632 Q1016 644 1003 656 Q991 669 982 681 Q973 693 970 706 Q966 718 969 730 Q972 742 981 755 Q990 767 1002 779" stroke="#2B1D14" stroke-width="1.87" stroke-opacity="0.32" fill="none" stroke-linecap="round"/><path d="M1108 70 Q1106 96 1106 109 Q1107 122 1109 135 Q1112 148 1116 161 Q1120 175 1125 188 Q1130 201 1136 214 Q1142 227 1148 240 Q1154 253 1158 266 Q1163 279 1167 292 Q1170 305 1172 319 Q1173 332 1172 345 Q1172 358 1169 371 Q1166 384 1161 397 Q1156 410 1150 423 Q1144 436 1137 449 Q1130 462 1123 476 Q1116 489 1110 502 Q1105 515 1101 528 Q1097 541 1095 554 Q1093 567 1094 580 Q1095 593 1098 606 Q1101 620 1107 633 Q1112 646 1120 659 Q1127 672 1135 685 Q1143 698 1151 711 Q1159 724 1165 737 Q1172 750 1177 764 Q1181 777 1184 790" stroke="#5A3E2B" stroke-width="1.04" stroke-opacity="0.77" fill="none" stroke-linecap="round"/><path d="M1137 99 Q1134 121 1135 132 Q1137 143 1142 154 Q1147 165 1154 176 Q1161 187 1169 198 Q1177 209 1185 221 Q1193 232 1199 243 Q1205 254 1208 265 Q1211 276 1210 287 Q1209 298 1205 309 Q1200 320 1193 331 Q1185 342 1176 353 Q1166 364 1157 375 Q1148 386 1140 397 Q1132 408 1128 420 Q1123 431 1123 442 Q1122 453 1126 464 Q1130 475 1138 486 Q1146 497 1156 508 Q1166 519 1177 530 Q1188 541 1197 552 Q1207 563 1213 574 Q1219 585 1221 596 Q1223 607 1220 618 Q1217 630 1210 641 Q1202 652 1191 663 Q1181 674 1168 685 Q1156 696 1145 707" stroke="#2B1D14" stroke-width="0.63" stroke-opacity="0.40" fill="none" stroke-linecap="round"/><path d="M928 81 Q917 104 917 116 Q918 127 924 139 Q930 150 941 162 Q952 174 966 185 Q979 197 991 208 Q1004 220 1012 231 Q1021 243 1023 255 Q1025 266 1020 278 Q1015 289 1004 301 Q993 312 979 324 Q964 336 949 347 Q934 359 923 370 Q911 382 906 393 Q901 405 904 416 Q907 428 917 440 Q927 451 942 463 Q958 474 975 486 Q992 497 1006 509 Q1021 521 1029 532 Q1038 544 1038 555 Q1038 567 1029 578 Q1021 590 1005 602 Q990 613 971 625 Q952 636 935 648 Q917 659 905 671 Q893 683 890 694 Q886 706 893 717" stroke="#2B1D14" stroke-width="0.98" stroke-opacity="0.68" fill="none" stroke-linecap="round"/><path d="M-22 72 Q-40 96 -49 108 Q-58 120 -64 132 Q-71 144 -74 155 Q-78 167 -77 179 Q-76 191 -72 203 Q-67 215 -59 227 Q-51 239 -40 250 Q-30 262 -19 274 Q-8 286 2 298 Q12 310 19 322 Q26 334 29 345 Q32 357 30 369 Q28 381 22 393 Q15 405 5 417 Q-5 429 -18 440 Q-30 452 -42 464 Q-55 476 -66 488 Q-77 500 -84 512 Q-91 524 -93 536 Q-95 547 -92 559 Q-89 571 -80 583 Q-72 595 -59 607 Q-47 619 -33 631 Q-19 642 -5 654 Q9 666 21 678 Q32 690 39 702 Q46 714 47 726" stroke="#2B1D14" stroke-width="1.12" stroke-opacity="0.69" fill="none" stroke-linecap="round"/><path d="M387 74 Q380 96 381 107 Q383 118 389 129 Q396 140 406 151 Q416 162 427 172 Q438 183 448 194 Q458 205 463 216 Q468 227 468 238 Q468 249 462 260 Q456 271 445 281 Q434 292 422 303 Q409 314 397 325 Q386 336 378 347 Q371 358 369 369 Q368 379 373 390 Q378 401 389 412 Q400 423 414 434 Q428 445 442 456 Q455 467 465 478 Q475 488 478 499 Q482 510 478 521 Q474 532 463 543 Q453 554 438 565 Q423 576 407 587 Q392 597 379 608 Q367 619 361 630 Q356 641 358 652 Q360 663 370 674" stroke="#2B1D14" stroke-width="1.07" stroke-opacity="0.81" fill="none" stroke-linecap="round"/><path d="M219 104 Q214 128 216 140 Q218 152 224 164 Q230 176 240 188 Q249 200 260 212 Q271 224 282 236 Q292 248 301 260 Q309 272 314 284 Q319 296 319 308 Q319 320 314 332 Q309 344 299 356 Q290 368 278 380 Q266 392 253 404 Q240 416 229 428 Q217 440 210 452 Q202 464 200 476 Q197 488 201 500 Q204 512 213 524 Q222 536 234 548 Q247 560 262 572 Q276 584 290 596 Q304 608 315 620 Q325 632 331 644 Q336 656 335 668 Q334 680 327 692 Q320 704 307 716 Q294 728 279 740 Q263 752 247 764" stroke="#2B1D14" stroke-width="0.80" stroke-opacity="0.47" fill="none" stroke-linecap="round"/><path d="M541 65 Q525 90 518 103 Q512 115 508 128 Q504 141 504 153 Q504 166 508 179 Q512 192 519 204 Q527 217 536 230 Q545 242 554 255 Q563 268 570 280 Q576 293 580 306 Q583 318 582 331 Q580 344 575 357 Q569 369 560 382 Q551 395 541 407 Q530 420 520 433 Q511 445 504 458 Q497 471 495 484 Q492 496 495 509 Q498 522 505 534 Q513 547 524 560 Q534 572 546 585 Q558 598 568 611 Q578 623 585 636 Q591 649 593 661 Q594 674 589 687 Q585 699 575 712 Q565 725 553 738 Q540 750 528 763" stroke="#5A3E2B" stroke-width="2.14" stroke-opacity="0.29" fill="none" stroke-linecap="round"/><path d="M745 80 Q735 105 726 117 Q718 130 708 142 Q697 155 688 167 Q678 180 670 192 Q662 205 658 217 Q654 230 654 242 Q655 255 660 267 Q665 280 674 292 Q683 305 694 317 Q706 330 717 342 Q729 355 739 367 Q749 380 755 392 Q761 405 762 417 Q763 430 759 442 Q755 455 746 467 Q737 480 724 492 Q712 505 698 517 Q685 530 673 542 Q660 555 652 567 Q644 580 641 592 Q638 605 641 617 Q644 630 653 642 Q661 655 675 667 Q688 680 703 692 Q718 705 732 717 Q746 730 757 742 Q768 755 774 767" stroke="#5A3E2B" stroke-width="1.68" stroke-opacity="0.65" fill="none" stroke-linecap="round"/><path d="M19 74 Q13 96 14 107 Q15 118 20 129 Q25 139 34 150 Q43 161 53 172 Q63 183 72 194 Q82 205 89 216 Q96 227 99 238 Q102 249 99 260 Q97 270 90 281 Q84 292 73 303 Q63 314 51 325 Q40 336 29 347 Q18 358 11 369 Q4 380 2 390 Q-0 401 3 412 Q6 423 15 434 Q24 445 36 456 Q48 467 61 478 Q74 489 86 500 Q97 511 104 521 Q111 532 113 543 Q114 554 109 565 Q104 576 94 587 Q83 598 69 609 Q55 620 41 631 Q26 641 14 652 Q2 663 -5 674" stroke="#2B1D14" stroke-width="0.78" stroke-opacity="0.65" fill="none" stroke-linecap="round"/><path d="M364 100 Q347 121 341 131 Q334 142 331 152 Q327 162 328 173 Q328 183 332 194 Q336 204 344 214 Q351 225 361 235 Q371 246 382 256 Q393 266 403 277 Q413 287 421 298 Q428 308 432 319 Q437 329 436 339 Q436 350 431 360 Q426 371 418 381 Q409 391 398 402 Q386 412 374 423 Q361 433 349 443 Q338 454 329 464 Q320 475 315 485 Q310 495 310 506 Q310 516 315 527 Q321 537 331 548 Q340 558 354 568 Q367 579 381 589 Q395 600 408 610 Q422 620 432 631 Q443 641 448 652 Q454 662 454 672" stroke="#5A3E2B" stroke-width="1.63" stroke-opacity="0.72" fill="none" stroke-linecap="round"/><path d="M1038 92 Q1038 115 1040 126 Q1042 138 1045 149 Q1049 161 1054 172 Q1059 184 1064 195 Q1069 207 1074 218 Q1079 229 1083 241 Q1086 252 1088 264 Q1089 275 1089 287 Q1088 298 1085 309 Q1082 321 1077 332 Q1072 344 1066 355 Q1060 367 1054 378 Q1048 390 1043 401 Q1038 412 1034 424 Q1031 435 1030 447 Q1029 458 1031 470 Q1033 481 1037 492 Q1041 504 1047 515 Q1053 527 1060 538 Q1068 550 1074 561 Q1081 573 1086 584 Q1091 595 1094 607 Q1097 618 1097 630 Q1097 641 1094 653 Q1091 664 1085 675 Q1080 687 1072 698 Q1065 710 1057 721" stroke="#2B1D14" stroke-width="0.66" stroke-opacity="0.31" fill="none" stroke-linecap="round"/><path d="M757 66 Q747 90 742 102 Q736 114 731 126 Q726 137 723 149 Q720 161 720 173 Q719 185 722 197 Q725 208 730 220 Q735 232 741 244 Q747 256 753 268 Q759 279 764 291 Q768 303 769 315 Q771 327 769 339 Q767 351 762 362 Q757 374 750 386 Q743 398 736 410 Q729 422 724 433 Q718 445 715 457 Q713 469 714 481 Q715 493 719 504 Q724 516 731 528 Q738 540 746 552 Q754 564 761 576 Q768 587 772 599 Q776 611 776 623 Q776 635 772 647 Q769 658 761 670 Q754 682 746 694 Q737 706 729 718" stroke="#2B1D14" stroke-width="1.03" stroke-opacity="0.61" fill="none" stroke-linecap="round"/><path d="M453 74 Q462 99 462 112 Q462 124 458 137 Q453 150 445 162 Q437 175 427 188 Q417 200 408 213 Q398 225 392 238 Q385 251 383 263 Q380 276 383 289 Q386 301 394 314 Q402 327 412 339 Q423 352 434 365 Q445 377 455 390 Q464 403 469 415 Q474 428 473 441 Q472 453 466 466 Q459 479 449 491 Q438 504 425 517 Q412 529 401 542 Q389 555 381 567 Q373 580 371 593 Q369 605 374 618 Q378 631 388 643 Q398 656 412 669 Q425 681 439 694 Q453 707 464 719 Q475 732 480 745 Q485 757 484 770" stroke="#2B1D14" stroke-width="0.64" stroke-opacity="0.43" fill="none" stroke-linecap="round"/><path d="M1109 89 Q1102 114 1099 127 Q1097 139 1095 152 Q1093 164 1092 177 Q1092 190 1093 202 Q1094 215 1096 227 Q1098 240 1102 252 Q1105 265 1109 278 Q1114 290 1118 303 Q1123 315 1127 328 Q1131 340 1135 353 Q1138 365 1140 378 Q1143 391 1143 403 Q1144 416 1143 428 Q1142 441 1140 453 Q1137 466 1133 479 Q1129 491 1124 504 Q1119 516 1114 529 Q1109 541 1104 554 Q1099 567 1094 579 Q1090 592 1087 604 Q1085 617 1084 629 Q1082 642 1083 655 Q1084 667 1087 680 Q1090 692 1094 705 Q1099 717 1104 730 Q1110 743 1116 755 Q1122 768 1128 780" stroke="#5A3E2B" stroke-width="1.67" stroke-opacity="0.65" fill="none" stroke-linecap="round"/><path d="M927 68 Q931 95 935 109 Q939 122 944 136 Q948 149 954 163 Q959 176 964 190 Q970 204 974 217 Q979 231 982 244 Q985 258 987 271 Q988 285 987 299 Q986 312 984 326 Q981 339 976 353 Q971 366 965 380 Q959 393 953 407 Q946 421 940 434 Q934 448 929 461 Q924 475 920 488 Q917 502 916 516 Q915 529 916 543 Q918 556 921 570 Q925 583 931 597 Q937 611 944 624 Q951 638 959 651 Q966 665 973 678 Q980 692 986 706 Q991 719 995 733 Q998 746 999 760 Q1000 773 998 787 Q995 800 991 814" stroke="#5A3E2B" stroke-width="0.99" stroke-opacity="0.83" fill="none" stroke-linecap="round"/><path d="M448 69 Q433 92 424 103 Q416 114 408 125 Q399 136 392 148 Q385 159 380 170 Q375 181 373 192 Q371 203 372 215 Q373 226 378 237 Q382 248 389 259 Q396 270 405 282 Q414 293 424 304 Q435 315 444 326 Q454 337 463 349 Q471 360 477 371 Q483 382 485 393 Q488 404 487 416 Q485 427 480 438 Q475 449 467 460 Q459 471 448 483 Q437 494 425 505 Q413 516 402 527 Q390 539 380 550 Q371 561 364 572 Q357 583 354 594 Q351 606 352 617 Q354 628 360 639 Q366 650 375 661 Q385 673 397 684" stroke="#2B1D14" stroke-width="0.82" stroke-opacity="0.56" fill="none" stroke-linecap="round"/><path d="M1015 101 Q1008 126 1002 138 Q997 151 991 163 Q985 176 979 188 Q974 201 969 213 Q964 226 961 238 Q959 250 958 263 Q958 275 960 288 Q963 300 967 313 Q972 325 978 338 Q985 350 992 362 Q999 375 1006 387 Q1012 400 1018 412 Q1023 425 1026 437 Q1029 450 1029 462 Q1029 474 1026 487 Q1023 499 1017 512 Q1011 524 1004 537 Q996 549 988 561 Q980 574 973 586 Q965 599 959 611 Q953 624 951 636 Q948 649 948 661 Q948 673 952 686 Q956 698 963 711 Q969 723 978 736 Q986 748 996 761 Q1005 773 1013 785" stroke="#5A3E2B" stroke-width="2.04" stroke-opacity="0.29" fill="none" stroke-linecap="round"/><path d="M219 101 Q204 123 197 134 Q190 145 184 156 Q179 167 175 178 Q171 188 170 199 Q169 210 171 221 Q173 232 177 243 Q182 254 189 265 Q196 276 204 287 Q212 298 221 309 Q230 320 238 331 Q247 342 253 352 Q260 363 264 374 Q268 385 268 396 Q269 407 266 418 Q264 429 258 440 Q252 451 244 462 Q235 473 225 484 Q215 495 205 506 Q195 516 185 527 Q176 538 169 549 Q161 560 157 571 Q153 582 153 593 Q153 604 156 615 Q160 626 167 637 Q174 648 184 659 Q194 669 206 680 Q217 691 229 702" stroke="#5A3E2B" stroke-width="1.37" stroke-opacity="0.63" fill="none" stroke-linecap="round"/><path d="M652 100 Q667 125 675 138 Q683 150 690 163 Q697 175 701 188 Q706 200 707 213 Q707 225 704 237 Q701 250 694 262 Q688 275 679 287 Q670 300 661 312 Q652 325 645 337 Q637 350 634 362 Q630 374 631 387 Q631 399 637 412 Q642 424 651 437 Q659 449 670 462 Q680 474 690 487 Q699 499 706 512 Q713 524 716 536 Q718 549 715 561 Q713 574 705 586 Q698 599 687 611 Q676 624 665 636 Q653 649 643 661 Q633 673 627 686 Q621 698 620 711 Q620 723 625 736 Q630 748 640 761 Q649 773 662 786" stroke="#5A3E2B" stroke-width="1.25" stroke-opacity="0.85" fill="none" stroke-linecap="round"/><path d="M491 67 Q490 92 495 104 Q500 116 508 128 Q517 140 528 153 Q539 165 551 177 Q562 189 571 201 Q580 214 585 226 Q590 238 589 250 Q589 262 583 274 Q577 287 566 299 Q556 311 543 323 Q530 335 517 347 Q504 360 494 372 Q485 384 480 396 Q475 408 476 420 Q478 433 485 445 Q493 457 505 469 Q517 481 532 494 Q547 506 561 518 Q575 530 586 542 Q597 554 601 567 Q606 579 603 591 Q601 603 592 615 Q583 627 568 640 Q554 652 537 664 Q521 676 505 688 Q490 700 479 713 Q468 725 463 737" stroke="#5A3E2B" stroke-width="2.20" stroke-opacity="0.62" fill="none" stroke-linecap="round"/><path d="M1095 94 Q1099 119 1102 132 Q1105 144 1110 157 Q1115 170 1120 182 Q1125 195 1130 208 Q1136 220 1141 233 Q1145 246 1149 258 Q1153 271 1155 284 Q1156 296 1156 309 Q1156 321 1154 334 Q1152 347 1148 359 Q1144 372 1139 385 Q1133 397 1127 410 Q1121 423 1114 435 Q1108 448 1102 461 Q1097 473 1092 486 Q1088 499 1086 511 Q1083 524 1083 537 Q1083 549 1086 562 Q1088 575 1093 587 Q1098 600 1104 613 Q1110 625 1118 638 Q1125 651 1132 663 Q1140 676 1147 689 Q1153 701 1158 714 Q1163 727 1166 739 Q1168 752 1168 764 Q1168 777 1166 790" stroke="#2B1D14" stroke-width="0.96" stroke-opacity="0.45" fill="none" stroke-linecap="round"/><path d="M1077 76 Q1085 100 1088 112 Q1092 124 1094 136 Q1096 148 1096 160 Q1097 172 1096 184 Q1095 196 1093 208 Q1090 220 1087 232 Q1083 244 1078 256 Q1073 268 1068 280 Q1063 292 1058 304 Q1053 316 1049 328 Q1045 340 1042 352 Q1040 364 1039 376 Q1038 388 1039 400 Q1040 412 1042 424 Q1045 436 1049 448 Q1054 460 1059 472 Q1065 484 1071 496 Q1077 508 1083 520 Q1088 532 1093 544 Q1098 556 1102 568 Q1105 580 1106 592 Q1108 604 1107 616 Q1106 628 1103 640 Q1100 652 1095 664 Q1090 676 1084 688 Q1078 700 1071 712 Q1064 724 1057 736" stroke="#2B1D14" stroke-width="1.10" stroke-opacity="0.51" fill="none" stroke-linecap="round"/><path d="M-132 103 Q-125 125 -121 137 Q-116 148 -111 159 Q-106 171 -100 182 Q-95 193 -89 205 Q-84 216 -80 227 Q-76 239 -74 250 Q-71 261 -71 273 Q-70 284 -71 295 Q-73 306 -76 318 Q-80 329 -85 340 Q-90 352 -96 363 Q-103 374 -109 386 Q-116 397 -122 408 Q-129 420 -134 431 Q-139 442 -142 454 Q-146 465 -147 476 Q-148 487 -147 499 Q-146 510 -142 521 Q-139 533 -133 544 Q-128 555 -121 567 Q-113 578 -106 589 Q-98 601 -90 612 Q-83 623 -76 635 Q-70 646 -65 657 Q-61 669 -59 680 Q-57 691 -57 702 Q-58 714 -62 725" stroke="#5A3E2B" stroke-width="1.31" stroke-opacity="0.37" fill="none" stroke-linecap="round"/><path d="M1309 77 Q1294 102 1284 115 Q1274 128 1264 140 Q1254 153 1246 166 Q1239 179 1236 191 Q1232 204 1235 217 Q1237 230 1244 242 Q1251 255 1262 268 Q1272 280 1284 293 Q1296 306 1306 319 Q1316 331 1321 344 Q1327 357 1327 370 Q1326 382 1320 395 Q1314 408 1303 420 Q1292 433 1279 446 Q1266 459 1254 471 Q1241 484 1233 497 Q1225 510 1223 522 Q1220 535 1225 548 Q1230 560 1240 573 Q1251 586 1265 599 Q1279 611 1293 624 Q1308 637 1319 649 Q1330 662 1335 675 Q1340 688 1337 700 Q1335 713 1326 726 Q1316 739 1301 751 Q1287 764 1271 777" stroke="#5A3E2B" stroke-width="0.87" stroke-opacity="0.81" fill="none" stroke-linecap="round"/><path d="M1047 69 Q1024 96 1012 109 Q1001 122 992 136 Q983 149 980 162 Q976 176 979 189 Q982 203 991 216 Q1000 229 1012 243 Q1025 256 1038 269 Q1052 283 1063 296 Q1074 309 1080 323 Q1085 336 1084 350 Q1082 363 1074 376 Q1065 390 1052 403 Q1038 416 1023 430 Q1008 443 994 456 Q981 470 973 483 Q965 497 964 510 Q964 523 972 537 Q979 550 993 563 Q1007 577 1024 590 Q1041 603 1057 617 Q1073 630 1084 644 Q1094 657 1097 670 Q1099 684 1093 697 Q1087 710 1073 724 Q1059 737 1040 750 Q1022 764 1004 777 Q986 791 972 804" stroke="#5A3E2B" stroke-width="0.92" stroke-opacity="0.33" fill="none" stroke-linecap="round"/><path d="M1129 88 Q1114 115 1105 128 Q1097 142 1089 155 Q1081 169 1075 182 Q1069 196 1065 209 Q1062 222 1061 236 Q1061 249 1064 263 Q1067 276 1073 290 Q1079 303 1088 316 Q1097 330 1106 343 Q1116 357 1126 370 Q1135 383 1143 397 Q1152 410 1157 424 Q1162 437 1164 451 Q1166 464 1164 477 Q1162 491 1155 504 Q1149 518 1140 531 Q1131 545 1120 558 Q1109 571 1098 585 Q1086 598 1076 612 Q1066 625 1058 639 Q1051 652 1047 665 Q1044 679 1045 692 Q1046 706 1051 719 Q1057 732 1066 746 Q1076 759 1088 773 Q1100 786 1113 800 Q1126 813 1138 826" stroke="#2B1D14" stroke-width="2.09" stroke-opacity="0.81" fill="none" stroke-linecap="round"/><path d="M1318 102 Q1309 129 1304 142 Q1300 156 1295 169 Q1290 183 1287 196 Q1283 209 1281 223 Q1279 236 1279 250 Q1279 263 1281 277 Q1283 290 1287 303 Q1290 317 1295 330 Q1300 344 1306 357 Q1312 371 1317 384 Q1323 398 1328 411 Q1332 424 1335 438 Q1338 451 1339 465 Q1340 478 1338 492 Q1337 505 1333 518 Q1329 532 1324 545 Q1318 559 1312 572 Q1305 586 1299 599 Q1292 613 1286 626 Q1280 639 1276 653 Q1272 666 1271 680 Q1269 693 1270 707 Q1271 720 1274 734 Q1278 747 1284 760 Q1289 774 1297 787 Q1304 801 1311 814 Q1319 828 1326 841" stroke="#2B1D14" stroke-width="1.39" stroke-opacity="0.71" fill="none" stroke-linecap="round"/><path d="M552 79 Q542 103 539 116 Q536 128 536 141 Q535 153 538 166 Q540 178 545 191 Q550 203 557 215 Q565 228 573 240 Q581 253 589 265 Q596 278 603 290 Q610 303 614 315 Q619 327 621 340 Q622 352 620 365 Q619 377 614 390 Q609 402 601 415 Q594 427 585 439 Q576 452 566 464 Q557 477 548 489 Q539 502 533 514 Q527 527 524 539 Q520 551 521 564 Q521 576 526 589 Q530 601 537 614 Q545 626 555 639 Q565 651 576 663 Q587 676 597 688 Q607 701 616 713 Q624 726 629 738 Q635 751 636 763" stroke="#2B1D14" stroke-width="1.76" stroke-opacity="0.45" fill="none" stroke-linecap="round"/><path d="M1031 95 Q1038 121 1043 134 Q1048 147 1055 160 Q1061 173 1067 185 Q1074 198 1079 211 Q1085 224 1088 237 Q1092 250 1092 263 Q1093 276 1091 289 Q1089 302 1084 315 Q1079 328 1072 341 Q1066 354 1058 367 Q1050 380 1043 393 Q1036 406 1030 419 Q1024 432 1021 445 Q1018 458 1019 471 Q1019 484 1022 497 Q1026 510 1032 523 Q1039 535 1047 548 Q1055 561 1064 574 Q1073 587 1081 600 Q1088 613 1094 626 Q1100 639 1102 652 Q1104 665 1103 678 Q1101 691 1096 704 Q1091 717 1083 730 Q1075 743 1065 756 Q1056 769 1046 782 Q1036 795 1028 808" stroke="#2B1D14" stroke-width="0.81" stroke-opacity="0.78" fill="none" stroke-linecap="round"/><path d="M273 100 Q291 122 299 133 Q308 144 315 155 Q321 166 324 177 Q327 189 325 200 Q323 211 317 222 Q311 233 302 244 Q292 255 282 266 Q271 277 262 289 Q252 300 246 311 Q240 322 239 333 Q238 344 242 355 Q246 366 255 377 Q263 389 275 400 Q286 411 298 422 Q310 433 319 444 Q329 455 333 466 Q338 477 337 488 Q336 500 330 511 Q323 522 312 533 Q301 544 287 555 Q274 566 262 577 Q249 588 240 600 Q232 611 229 622 Q225 633 229 644 Q233 655 242 666 Q252 677 265 688 Q279 700 294 711" stroke="#5A3E2B" stroke-width="0.71" stroke-opacity="0.39" fill="none" stroke-linecap="round"/><path d="M671 76 Q678 98 684 109 Q690 121 698 132 Q705 143 713 154 Q720 166 726 177 Q732 188 735 200 Q738 211 737 222 Q737 233 733 245 Q729 256 722 267 Q715 278 706 290 Q697 301 689 312 Q680 323 673 335 Q666 346 663 357 Q659 368 659 380 Q659 391 664 402 Q668 414 676 425 Q684 436 694 447 Q703 459 713 470 Q723 481 731 492 Q739 504 744 515 Q748 526 748 537 Q748 549 743 560 Q739 571 730 582 Q722 594 711 605 Q700 616 689 627 Q678 639 669 650 Q660 661 654 673 Q649 684 649 695" stroke="#2B1D14" stroke-width="1.21" stroke-opacity="0.44" fill="none" stroke-linecap="round"/><path d="M268 77 Q272 103 272 116 Q273 129 271 142 Q270 154 267 167 Q264 180 260 193 Q255 206 251 219 Q246 232 241 245 Q236 258 231 271 Q227 284 224 297 Q220 310 219 323 Q218 335 218 348 Q219 361 221 374 Q224 387 228 400 Q232 413 237 426 Q243 439 249 452 Q255 465 260 478 Q266 491 271 504 Q275 516 278 529 Q281 542 282 555 Q283 568 281 581 Q279 594 276 607 Q272 620 266 633 Q261 646 254 659 Q247 672 241 685 Q234 698 228 710 Q222 723 217 736 Q213 749 210 762 Q208 775 208 788" stroke="#2B1D14" stroke-width="1.82" stroke-opacity="0.70" fill="none" stroke-linecap="round"/><path d="M943 97 Q955 121 961 133 Q967 145 974 157 Q980 169 986 181 Q992 193 996 205 Q1001 217 1003 229 Q1006 241 1006 253 Q1006 265 1004 277 Q1001 289 997 301 Q992 313 985 325 Q979 336 971 348 Q964 360 956 372 Q948 384 941 396 Q934 408 928 420 Q922 432 919 444 Q915 456 915 468 Q914 480 916 492 Q918 504 923 516 Q929 528 936 540 Q943 552 952 564 Q961 576 970 588 Q979 600 988 612 Q996 624 1003 636 Q1011 647 1015 659 Q1020 671 1021 683 Q1023 695 1021 707 Q1019 719 1014 731 Q1008 743 1000 755" stroke="#2B1D14" stroke-width="1.45" stroke-opacity="0.84" fill="none" stroke-linecap="round"/><path d="M157 100 Q155 127 159 140 Q162 154 169 167 Q175 180 184 194 Q192 207 201 221 Q210 234 216 247 Q223 261 226 274 Q229 287 227 301 Q226 314 220 327 Q214 341 205 354 Q196 367 186 381 Q176 394 167 408 Q158 421 152 434 Q147 448 146 461 Q145 474 149 488 Q153 501 162 514 Q170 528 181 541 Q192 554 203 568 Q215 581 223 595 Q232 608 235 621 Q239 635 238 648 Q236 661 229 675 Q222 688 210 701 Q199 715 187 728 Q174 742 163 755 Q151 768 144 782 Q137 795 136 808 Q134 822 139 835" stroke="#5A3E2B" stroke-width="0.85" stroke-opacity="0.32" fill="none" stroke-linecap="round"/><path d="M1173 102 Q1164 127 1159 140 Q1154 152 1149 165 Q1144 178 1139 190 Q1135 203 1131 215 Q1128 228 1127 241 Q1125 253 1125 266 Q1126 279 1128 291 Q1131 304 1135 316 Q1139 329 1145 342 Q1151 354 1157 367 Q1163 380 1169 392 Q1175 405 1180 418 Q1185 430 1189 443 Q1192 455 1193 468 Q1195 481 1193 493 Q1192 506 1189 519 Q1185 531 1180 544 Q1174 557 1168 569 Q1161 582 1154 594 Q1146 607 1140 620 Q1133 632 1127 645 Q1122 658 1118 670 Q1115 683 1114 695 Q1113 708 1115 721 Q1117 733 1122 746 Q1127 759 1133 771 Q1140 784 1148 797" stroke="#2B1D14" stroke-width="2.15" stroke-opacity="0.84" fill="none" stroke-linecap="round"/><path d="M24 84 Q22 107 23 119 Q24 131 27 143 Q30 155 34 166 Q38 178 43 190 Q48 202 54 214 Q59 226 65 237 Q70 249 75 261 Q79 273 83 285 Q86 297 87 308 Q89 320 88 332 Q87 344 84 356 Q81 367 77 379 Q72 391 66 403 Q60 415 53 427 Q47 438 40 450 Q34 462 28 474 Q22 486 18 498 Q14 509 12 521 Q10 533 10 545 Q11 557 14 569 Q16 580 21 592 Q26 604 33 616 Q40 628 48 639 Q55 651 63 663 Q71 675 77 687 Q84 699 90 710 Q95 722 98 734" stroke="#2B1D14" stroke-width="1.75" stroke-opacity="0.32" fill="none" stroke-linecap="round"/><path d="M1032 77 Q1022 99 1013 110 Q1004 122 993 133 Q982 144 971 155 Q961 166 954 177 Q947 189 946 200 Q944 211 948 222 Q953 233 962 244 Q971 255 983 267 Q995 278 1008 289 Q1020 300 1029 311 Q1039 322 1043 334 Q1047 345 1044 356 Q1041 367 1033 378 Q1024 389 1011 400 Q998 412 984 423 Q970 434 958 445 Q946 456 939 467 Q933 479 933 490 Q933 501 941 512 Q949 523 962 534 Q975 545 991 557 Q1006 568 1021 579 Q1035 590 1045 601 Q1054 612 1057 624 Q1059 635 1053 646 Q1047 657 1035 668 Q1022 679 1005 690" stroke="#2B1D14" stroke-width="1.68" stroke-opacity="0.72" fill="none" stroke-linecap="round"/><path d="M645 82 Q635 107 631 119 Q626 131 623 143 Q620 155 618 168 Q617 180 618 192 Q619 204 623 216 Q626 229 631 241 Q636 253 642 265 Q647 277 653 290 Q658 302 662 314 Q666 326 668 338 Q670 351 669 363 Q668 375 664 387 Q661 399 655 411 Q649 424 643 436 Q636 448 630 460 Q624 472 619 485 Q614 497 612 509 Q610 521 611 533 Q611 546 615 558 Q619 570 625 582 Q631 594 638 606 Q646 619 653 631 Q660 643 665 655 Q671 667 674 680 Q677 692 676 704 Q676 716 672 728 Q668 741 661 753" stroke="#2B1D14" stroke-width="0.60" stroke-opacity="0.31" fill="none" stroke-linecap="round"/><path d="M121 94 Q110 117 104 128 Q97 139 92 151 Q86 162 82 173 Q78 185 77 196 Q76 207 78 218 Q81 230 86 241 Q91 252 98 264 Q105 275 112 286 Q119 298 125 309 Q131 320 134 331 Q137 343 136 354 Q135 365 131 377 Q127 388 119 399 Q112 410 104 422 Q96 433 88 444 Q81 456 76 467 Q71 478 69 489 Q68 501 71 512 Q74 523 80 535 Q87 546 96 557 Q105 568 114 580 Q123 591 130 602 Q137 614 141 625 Q145 636 144 648 Q143 659 137 670 Q132 681 123 693 Q115 704 104 715" stroke="#2B1D14" stroke-width="1.13" stroke-opacity="0.62" fill="none" stroke-linecap="round"/><path d="M310 70 Q312 93 315 104 Q319 115 325 126 Q330 138 337 149 Q343 160 350 171 Q356 182 361 193 Q365 205 367 216 Q369 227 368 238 Q367 249 363 260 Q359 272 352 283 Q346 294 338 305 Q331 316 324 327 Q316 339 311 350 Q306 361 303 372 Q301 383 302 395 Q303 406 308 417 Q312 428 320 439 Q327 450 336 462 Q344 473 352 484 Q360 495 367 506 Q373 517 376 529 Q378 540 377 551 Q376 562 371 573 Q366 584 358 596 Q349 607 340 618 Q330 629 321 640 Q312 652 305 663 Q298 674 295 685" stroke="#2B1D14" stroke-width="0.67" stroke-opacity="0.33" fill="none" stroke-linecap="round"/><path d="M-80 75 Q-65 102 -59 115 Q-52 129 -48 142 Q-44 155 -42 169 Q-41 182 -42 196 Q-44 209 -48 222 Q-53 236 -60 249 Q-67 263 -76 276 Q-85 289 -95 303 Q-104 316 -113 330 Q-121 343 -128 356 Q-135 370 -139 383 Q-142 397 -143 410 Q-143 424 -139 437 Q-136 450 -129 464 Q-122 477 -113 491 Q-103 504 -93 517 Q-82 531 -71 544 Q-60 558 -51 571 Q-42 584 -35 598 Q-29 611 -26 625 Q-23 638 -25 651 Q-26 665 -32 678 Q-38 692 -47 705 Q-56 718 -68 732 Q-79 745 -92 759 Q-105 772 -116 785 Q-128 799 -138 812" stroke="#5A3E2B" stroke-width="1.44" stroke-opacity="0.76" fill="none" stroke-linecap="round"/><path d="M1004 92 Q994 117 988 130 Q982 143 977 155 Q971 168 967 180 Q962 193 959 205 Q956 218 956 230 Q955 243 956 256 Q958 268 962 281 Q966 293 971 306 Q977 318 983 331 Q990 343 997 356 Q1004 369 1009 381 Q1015 394 1020 406 Q1024 419 1026 431 Q1028 444 1027 457 Q1026 469 1023 482 Q1019 494 1014 507 Q1008 519 1001 532 Q993 544 985 557 Q977 570 970 582 Q963 595 957 607 Q951 620 948 632 Q944 645 944 658 Q943 670 946 683 Q949 695 954 708 Q960 720 968 733 Q976 745 984 758 Q993 771 1002 783" stroke="#2B1D14" stroke-width="1.06" stroke-opacity="0.63" fill="none" stroke-linecap="round"/><path d="M686 94 Q700 120 705 133 Q711 146 713 159 Q716 172 714 185 Q713 198 709 211 Q704 223 696 236 Q689 249 680 262 Q672 275 664 288 Q657 301 651 314 Q646 327 645 340 Q644 353 647 365 Q650 378 657 391 Q663 404 672 417 Q682 430 691 443 Q701 456 708 469 Q716 482 721 494 Q725 507 724 520 Q724 533 719 546 Q714 559 705 572 Q696 585 686 598 Q675 611 665 623 Q655 636 647 649 Q640 662 637 675 Q634 688 636 701 Q639 714 646 727 Q653 740 664 753 Q675 765 687 778 Q699 791 709 804" stroke="#2B1D14" stroke-width="1.72" stroke-opacity="0.45" fill="none" stroke-linecap="round"/><path d="M1242 102 Q1251 123 1259 133 Q1266 144 1274 154 Q1281 164 1288 175 Q1294 185 1298 195 Q1301 206 1300 216 Q1299 227 1295 237 Q1290 247 1282 258 Q1274 268 1265 279 Q1256 289 1248 299 Q1241 310 1236 320 Q1231 331 1231 341 Q1231 351 1235 362 Q1240 372 1248 383 Q1256 393 1266 403 Q1276 414 1285 424 Q1295 435 1301 445 Q1307 455 1308 466 Q1310 476 1306 487 Q1302 497 1294 507 Q1286 518 1275 528 Q1264 539 1253 549 Q1243 559 1235 570 Q1227 580 1224 590 Q1221 601 1224 611 Q1227 622 1235 632 Q1243 642 1255 653 Q1266 663 1278 674" stroke="#2B1D14" stroke-width="1.76" stroke-opacity="0.72" fill="none" stroke-linecap="round"/><path d="M1265 79 Q1273 103 1273 115 Q1273 127 1270 138 Q1266 150 1259 162 Q1252 174 1244 186 Q1236 198 1228 210 Q1220 222 1214 234 Q1208 245 1207 257 Q1205 269 1207 281 Q1210 293 1217 305 Q1223 317 1233 329 Q1242 341 1251 352 Q1261 364 1268 376 Q1276 388 1280 400 Q1283 412 1282 424 Q1281 436 1275 448 Q1269 459 1259 471 Q1250 483 1239 495 Q1228 507 1219 519 Q1209 531 1203 543 Q1197 555 1197 566 Q1196 578 1201 590 Q1206 602 1215 614 Q1225 626 1236 638 Q1248 650 1260 662 Q1271 673 1279 685 Q1287 697 1290 709 Q1293 721 1290 733" stroke="#2B1D14" stroke-width="1.02" stroke-opacity="0.60" fill="none" stroke-linecap="round"/><path d="M752 100 Q742 121 735 131 Q729 142 722 152 Q715 163 709 173 Q702 184 697 194 Q692 205 689 215 Q686 226 686 236 Q686 247 688 258 Q691 268 696 279 Q701 289 708 300 Q715 310 723 321 Q732 331 740 342 Q748 352 755 363 Q761 373 766 384 Q771 394 772 405 Q774 416 772 426 Q771 437 766 447 Q761 458 753 468 Q746 479 737 489 Q728 500 718 510 Q709 521 700 531 Q692 542 685 552 Q679 563 675 574 Q672 584 672 595 Q672 605 676 616 Q680 626 688 637 Q695 647 705 658 Q715 668 725 679" stroke="#2B1D14" stroke-width="2.18" stroke-opacity="0.46" fill="none" stroke-linecap="round"/><path d="M1264 89 Q1273 113 1275 125 Q1276 136 1274 148 Q1272 160 1267 172 Q1261 184 1253 195 Q1246 207 1237 219 Q1229 231 1222 243 Q1215 254 1210 266 Q1206 278 1205 290 Q1204 302 1208 313 Q1212 325 1219 337 Q1226 349 1235 360 Q1244 372 1253 384 Q1263 396 1270 408 Q1278 419 1282 431 Q1286 443 1285 455 Q1285 467 1280 478 Q1274 490 1266 502 Q1257 514 1246 526 Q1236 537 1225 549 Q1215 561 1208 573 Q1200 585 1197 596 Q1194 608 1196 620 Q1198 632 1205 643 Q1212 655 1222 667 Q1233 679 1245 691 Q1257 702 1267 714 Q1278 726 1285 738" stroke="#2B1D14" stroke-width="1.56" stroke-opacity="0.73" fill="none" stroke-linecap="round"/><path d="M-115 75 Q-131 100 -135 113 Q-140 126 -139 138 Q-138 151 -132 164 Q-127 177 -117 190 Q-107 202 -96 215 Q-85 228 -75 241 Q-64 253 -58 266 Q-51 279 -50 292 Q-49 304 -54 317 Q-59 330 -68 343 Q-78 355 -91 368 Q-103 381 -115 394 Q-128 406 -137 419 Q-146 432 -149 445 Q-153 458 -149 470 Q-146 483 -137 496 Q-127 509 -114 521 Q-101 534 -87 547 Q-72 560 -61 572 Q-49 585 -43 598 Q-37 611 -38 623 Q-39 636 -48 649 Q-56 662 -70 674 Q-83 687 -99 700 Q-115 713 -129 726 Q-143 738 -152 751 Q-161 764 -163 777" stroke="#5A3E2B" stroke-width="1.35" stroke-opacity="0.50" fill="none" stroke-linecap="round"/><path d="M378 70 Q380 96 384 109 Q389 122 397 135 Q404 148 413 161 Q423 174 432 187 Q441 200 448 213 Q455 226 459 239 Q462 252 462 265 Q461 278 456 291 Q451 304 443 317 Q435 330 424 343 Q414 356 403 369 Q392 382 384 395 Q375 408 370 421 Q365 434 365 447 Q365 460 370 473 Q375 486 384 499 Q393 512 405 525 Q417 538 429 551 Q441 564 451 577 Q461 590 468 603 Q474 616 475 629 Q476 642 471 655 Q466 668 457 681 Q447 694 434 707 Q421 720 408 733 Q394 746 382 759 Q370 772 363 785" stroke="#2B1D14" stroke-width="2.01" stroke-opacity="0.76" fill="none" stroke-linecap="round"/><path d="M143 70 Q142 95 147 107 Q153 120 163 132 Q174 145 187 157 Q200 169 213 182 Q225 194 235 207 Q244 219 247 232 Q250 244 246 256 Q242 269 232 281 Q222 294 208 306 Q193 318 178 331 Q163 343 151 356 Q139 368 133 381 Q127 393 128 405 Q130 418 139 430 Q148 443 163 455 Q177 468 194 480 Q212 492 227 505 Q242 517 252 530 Q261 542 263 555 Q264 567 257 579 Q250 592 235 604 Q221 617 202 629 Q184 641 165 654 Q147 666 134 679 Q121 691 116 704 Q111 716 115 728 Q120 741 133 753" stroke="#2B1D14" stroke-width="0.96" stroke-opacity="0.42" fill="none" stroke-linecap="round"/><path d="M729 66 Q715 88 710 99 Q704 110 701 121 Q698 132 697 143 Q697 154 700 165 Q703 176 708 187 Q714 198 721 209 Q729 220 738 231 Q747 242 755 253 Q764 264 771 275 Q779 286 783 297 Q788 308 790 319 Q792 330 790 341 Q788 352 782 363 Q777 374 768 385 Q760 396 750 407 Q740 418 730 429 Q720 440 710 451 Q701 462 694 473 Q688 484 684 495 Q681 506 682 517 Q683 528 688 539 Q692 550 701 561 Q709 572 720 583 Q731 594 743 605 Q755 616 766 627 Q777 638 786 649 Q795 660 800 671" stroke="#5A3E2B" stroke-width="1.78" stroke-opacity="0.51" fill="none" stroke-linecap="round"/><path d="M1196 93 Q1209 114 1213 125 Q1217 136 1218 146 Q1218 157 1215 168 Q1212 179 1206 189 Q1199 200 1190 211 Q1181 221 1170 232 Q1160 243 1149 253 Q1139 264 1130 275 Q1121 286 1115 296 Q1109 307 1107 318 Q1105 328 1107 339 Q1110 350 1116 361 Q1123 371 1132 382 Q1142 393 1154 403 Q1166 414 1179 425 Q1191 436 1202 446 Q1213 457 1222 468 Q1230 478 1234 489 Q1238 500 1237 511 Q1236 521 1230 532 Q1224 543 1214 553 Q1204 564 1191 575 Q1178 585 1163 596 Q1149 607 1136 618 Q1122 628 1112 639 Q1101 650 1094 660 Q1088 671 1087 682" stroke="#2B1D14" stroke-width="1.36" stroke-opacity="0.73" fill="none" stroke-linecap="round"/><path d="M947 99 Q935 120 926 131 Q917 141 906 152 Q896 163 886 174 Q876 184 869 195 Q862 206 860 216 Q857 227 859 238 Q862 249 869 259 Q876 270 887 281 Q897 291 910 302 Q922 313 933 323 Q944 334 952 345 Q960 356 963 366 Q966 377 963 388 Q960 398 951 409 Q943 420 931 431 Q919 441 905 452 Q891 463 878 473 Q866 484 857 495 Q848 506 845 516 Q842 527 846 538 Q849 548 859 559 Q868 570 882 581 Q896 591 911 602 Q926 613 940 623 Q954 634 964 645 Q974 655 977 666 Q980 677 976 688" stroke="#2B1D14" stroke-width="1.33" stroke-opacity="0.71" fill="none" stroke-linecap="round"/><path d="M1000 83 Q1016 106 1023 117 Q1029 129 1031 140 Q1034 152 1033 163 Q1032 175 1028 186 Q1023 198 1015 209 Q1007 221 997 232 Q987 244 977 255 Q966 267 958 278 Q949 290 943 301 Q937 312 935 324 Q933 335 936 347 Q938 358 945 370 Q952 381 962 393 Q972 404 984 416 Q996 427 1008 439 Q1019 450 1028 462 Q1038 473 1043 485 Q1049 496 1049 507 Q1050 519 1045 530 Q1040 542 1031 553 Q1022 565 1009 576 Q997 588 983 599 Q970 611 957 622 Q945 634 935 645 Q926 657 922 668 Q917 680 919 691 Q920 703 927 714" stroke="#2B1D14" stroke-width="0.62" stroke-opacity="0.66" fill="none" stroke-linecap="round"/><path d="M484 98 Q474 124 470 137 Q467 150 466 163 Q465 176 467 190 Q469 203 473 216 Q478 229 484 242 Q490 255 496 268 Q503 281 508 294 Q513 307 516 321 Q519 334 519 347 Q519 360 515 373 Q512 386 506 399 Q499 412 492 425 Q485 438 478 452 Q471 465 466 478 Q461 491 459 504 Q457 517 459 530 Q461 543 467 556 Q472 569 479 583 Q487 596 495 609 Q504 622 511 635 Q518 648 522 661 Q526 674 526 687 Q526 700 523 714 Q519 727 512 740 Q505 753 496 766 Q487 779 478 792 Q469 805 462 818" stroke="#2B1D14" stroke-width="1.27" stroke-opacity="0.66" fill="none" stroke-linecap="round"/><path d="M52 85 Q64 107 72 118 Q80 129 89 140 Q97 151 104 162 Q112 173 116 185 Q120 196 121 207 Q121 218 117 229 Q113 240 105 251 Q98 262 88 273 Q78 284 69 295 Q59 306 52 317 Q44 328 40 339 Q37 350 38 361 Q39 372 45 383 Q51 394 60 405 Q70 416 81 427 Q92 438 103 450 Q113 461 120 472 Q128 483 130 494 Q133 505 130 516 Q127 527 119 538 Q111 549 100 560 Q88 571 76 582 Q63 593 53 604 Q42 615 35 626 Q28 637 27 648 Q26 659 31 670 Q36 681 46 692" stroke="#2B1D14" stroke-width="0.82" stroke-opacity="0.47" fill="none" stroke-linecap="round"/><path d="M1089 99 Q1081 124 1075 137 Q1070 150 1063 163 Q1057 176 1052 189 Q1046 202 1042 214 Q1039 227 1037 240 Q1036 253 1037 266 Q1039 279 1043 292 Q1047 304 1053 317 Q1060 330 1067 343 Q1074 356 1081 369 Q1088 381 1093 394 Q1098 407 1101 420 Q1103 433 1103 446 Q1102 459 1098 471 Q1094 484 1088 497 Q1082 510 1074 523 Q1066 536 1058 549 Q1049 561 1043 574 Q1036 587 1032 600 Q1028 613 1027 626 Q1027 639 1030 651 Q1033 664 1039 677 Q1045 690 1054 703 Q1063 716 1072 729 Q1081 741 1089 754 Q1097 767 1103 780 Q1109 793 1111 806" stroke="#5A3E2B" stroke-width="0.92" stroke-opacity="0.40" fill="none" stroke-linecap="round"/><path d="M442 99 Q436 124 429 136 Q423 148 414 161 Q405 173 395 186 Q385 198 376 211 Q367 223 360 235 Q353 248 350 260 Q346 273 347 285 Q348 298 354 310 Q359 322 368 335 Q377 347 388 360 Q399 372 410 385 Q422 397 432 409 Q442 422 448 434 Q455 447 456 459 Q458 472 455 484 Q452 496 444 509 Q436 521 425 534 Q413 546 400 559 Q387 571 374 583 Q362 596 352 608 Q342 621 336 633 Q331 645 331 658 Q331 670 337 683 Q343 695 354 708 Q365 720 379 732 Q392 745 407 757 Q422 770 435 782" stroke="#2B1D14" stroke-width="2.17" stroke-opacity="0.61" fill="none" stroke-linecap="round"/><path d="M475 101 Q483 124 483 136 Q484 147 481 159 Q479 171 473 182 Q467 194 458 206 Q450 217 440 229 Q431 240 421 252 Q411 264 404 275 Q396 287 391 299 Q386 310 384 322 Q383 334 386 345 Q389 357 396 368 Q402 380 412 392 Q421 403 433 415 Q444 427 455 438 Q466 450 476 461 Q485 473 491 485 Q498 496 500 508 Q501 520 499 531 Q496 543 489 555 Q481 566 471 578 Q460 589 447 601 Q434 613 421 624 Q409 636 397 648 Q386 659 379 671 Q371 682 369 694 Q366 706 368 717 Q371 729 379 741" stroke="#5A3E2B" stroke-width="1.64" stroke-opacity="0.82" fill="none" stroke-linecap="round"/><path d="M943 75 Q944 101 948 114 Q951 126 957 139 Q963 152 971 165 Q978 178 985 190 Q993 203 999 216 Q1005 229 1008 241 Q1012 254 1012 267 Q1013 280 1009 292 Q1006 305 1000 318 Q994 331 986 343 Q978 356 969 369 Q960 382 953 394 Q945 407 940 420 Q935 433 933 445 Q932 458 934 471 Q937 484 943 496 Q949 509 958 522 Q967 535 977 547 Q987 560 996 573 Q1005 586 1012 599 Q1019 611 1021 624 Q1024 637 1023 650 Q1021 662 1015 675 Q1009 688 1000 701 Q991 713 980 726 Q969 739 958 752 Q948 764 939 777" stroke="#5A3E2B" stroke-width="0.91" stroke-opacity="0.54" fill="none" stroke-linecap="round"/><path d="M419 96 Q411 118 408 129 Q405 141 404 152 Q403 163 403 174 Q404 185 407 196 Q410 208 414 219 Q418 230 423 241 Q429 252 434 263 Q440 274 445 286 Q449 297 453 308 Q456 319 458 330 Q459 341 458 353 Q457 364 454 375 Q451 386 446 397 Q441 408 434 420 Q428 431 422 442 Q415 453 410 464 Q404 475 400 486 Q397 498 395 509 Q394 520 395 531 Q396 542 400 553 Q403 565 409 576 Q415 587 422 598 Q429 609 436 620 Q444 631 450 643 Q456 654 461 665 Q465 676 467 687 Q468 698 467 710" stroke="#5A3E2B" stroke-width="1.20" stroke-opacity="0.59" fill="none" stroke-linecap="round"/><path d="M315 75 Q321 99 328 111 Q334 123 341 135 Q349 147 356 159 Q363 171 368 184 Q373 196 375 208 Q377 220 374 232 Q372 244 366 256 Q360 268 352 280 Q344 292 335 304 Q327 316 320 328 Q313 340 309 352 Q305 364 306 376 Q306 388 311 400 Q316 412 324 424 Q333 436 343 448 Q352 460 361 472 Q370 484 376 496 Q382 508 384 520 Q386 532 382 545 Q379 557 371 569 Q363 581 353 593 Q342 605 332 617 Q321 629 312 641 Q304 653 300 665 Q296 677 297 689 Q298 701 305 713 Q312 725 322 737" stroke="#2B1D14" stroke-width="0.69" stroke-opacity="0.57" fill="none" stroke-linecap="round"/><path d="M-17 90 Q-15 111 -17 122 Q-19 132 -23 143 Q-28 154 -35 164 Q-41 175 -50 185 Q-58 196 -67 207 Q-75 217 -84 228 Q-92 238 -99 249 Q-105 260 -109 270 Q-114 281 -115 291 Q-116 302 -114 313 Q-112 323 -106 334 Q-101 344 -93 355 Q-85 366 -75 376 Q-65 387 -55 397 Q-44 408 -34 419 Q-25 429 -17 440 Q-9 450 -4 461 Q1 472 2 482 Q4 493 1 503 Q-2 514 -8 525 Q-14 535 -24 546 Q-33 556 -44 567 Q-56 578 -68 588 Q-80 599 -91 609 Q-103 620 -112 631 Q-121 641 -127 652 Q-132 662 -134 673" stroke="#2B1D14" stroke-width="0.89" stroke-opacity="0.83" fill="none" stroke-linecap="round"/><path d="M101 91 Q95 112 91 122 Q86 133 81 143 Q76 154 70 164 Q64 175 59 185 Q53 196 49 206 Q45 217 42 227 Q39 238 38 248 Q37 258 39 269 Q40 279 43 290 Q47 300 52 311 Q57 321 63 332 Q70 342 76 353 Q83 363 90 374 Q96 384 102 395 Q107 405 111 416 Q115 426 116 437 Q118 447 116 458 Q115 468 112 479 Q108 489 103 500 Q97 510 90 520 Q82 531 74 541 Q66 552 59 562 Q51 573 44 583 Q38 594 33 604 Q28 615 26 625 Q24 636 25 646 Q25 657 29 667" stroke="#5A3E2B" stroke-width="0.68" stroke-opacity="0.65" fill="none" stroke-linecap="round"/><path d="M1078 65 Q1064 86 1057 97 Q1051 107 1046 118 Q1041 128 1038 139 Q1035 149 1034 160 Q1033 170 1036 181 Q1038 191 1042 202 Q1047 212 1053 223 Q1060 233 1068 244 Q1076 254 1085 265 Q1093 275 1101 286 Q1110 296 1116 307 Q1123 317 1127 328 Q1131 338 1133 349 Q1134 359 1133 370 Q1131 380 1126 391 Q1121 401 1114 412 Q1107 422 1097 433 Q1088 443 1078 454 Q1068 464 1058 475 Q1049 485 1040 496 Q1032 506 1026 517 Q1020 527 1018 538 Q1015 548 1016 559 Q1017 569 1022 580 Q1027 590 1035 601 Q1042 611 1053 622 Q1063 632 1074 643" stroke="#5A3E2B" stroke-width="1.49" stroke-opacity="0.43" fill="none" stroke-linecap="round"/><path d="M-93 103 Q-88 124 -84 135 Q-80 145 -75 156 Q-69 167 -64 177 Q-58 188 -53 198 Q-49 209 -46 219 Q-43 230 -42 241 Q-41 251 -43 262 Q-44 272 -48 283 Q-52 293 -58 304 Q-64 315 -70 325 Q-77 336 -83 346 Q-89 357 -94 367 Q-98 378 -101 389 Q-103 399 -103 410 Q-102 420 -99 431 Q-96 441 -90 452 Q-85 463 -78 473 Q-70 484 -63 494 Q-56 505 -49 515 Q-43 526 -39 537 Q-35 547 -33 558 Q-32 568 -34 579 Q-36 589 -41 600 Q-46 611 -53 621 Q-60 632 -69 642 Q-77 653 -85 663 Q-93 674 -99 685" stroke="#5A3E2B" stroke-width="1.54" stroke-opacity="0.68" fill="none" stroke-linecap="round"/><path d="M460 66 Q444 90 438 102 Q432 114 428 126 Q425 138 425 150 Q425 163 429 175 Q432 187 439 199 Q446 211 455 223 Q464 235 475 247 Q486 259 496 271 Q507 283 516 295 Q525 308 531 320 Q537 332 539 344 Q542 356 540 368 Q538 380 532 392 Q526 404 517 416 Q507 428 496 441 Q484 453 471 465 Q459 477 447 489 Q435 501 426 513 Q417 525 411 537 Q406 549 405 561 Q404 573 408 586 Q412 598 421 610 Q430 622 442 634 Q454 646 468 658 Q482 670 496 682 Q511 694 523 706 Q535 718 544 731" stroke="#2B1D14" stroke-width="0.79" stroke-opacity="0.58" fill="none" stroke-linecap="round"/><path d="M841 99 Q826 124 816 137 Q806 149 795 162 Q784 174 774 187 Q765 199 758 212 Q751 224 749 237 Q746 250 749 262 Q751 275 759 287 Q766 300 777 312 Q788 325 800 337 Q813 350 825 362 Q837 375 846 387 Q856 400 860 412 Q865 425 864 438 Q864 450 857 463 Q851 475 840 488 Q829 500 815 513 Q801 525 786 538 Q772 550 760 563 Q748 575 740 588 Q733 601 731 613 Q730 626 735 638 Q739 651 750 663 Q761 676 776 688 Q791 701 807 713 Q823 726 838 738 Q853 751 863 763 Q874 776 879 789" stroke="#2B1D14" stroke-width="1.03" stroke-opacity="0.82" fill="none" stroke-linecap="round"/><path d="M299 79 Q309 101 311 111 Q313 122 312 133 Q311 143 307 154 Q303 165 296 176 Q290 186 282 197 Q273 208 265 218 Q256 229 247 240 Q239 250 233 261 Q227 272 223 283 Q220 293 220 304 Q220 315 223 325 Q227 336 234 347 Q241 357 250 368 Q259 379 270 389 Q280 400 290 411 Q300 422 308 432 Q316 443 321 454 Q326 464 328 475 Q329 486 326 496 Q323 507 316 518 Q309 529 299 539 Q289 550 277 561 Q266 571 254 582 Q242 593 232 603 Q222 614 215 625 Q208 635 205 646 Q203 657 205 668" stroke="#5A3E2B" stroke-width="2.19" stroke-opacity="0.46" fill="none" stroke-linecap="round"/><path d="M78 75 Q87 98 90 110 Q93 122 94 134 Q94 145 93 157 Q91 169 87 180 Q82 192 77 204 Q71 215 65 227 Q59 239 54 250 Q49 262 46 274 Q44 285 43 297 Q43 309 46 320 Q48 332 53 344 Q58 355 65 367 Q71 379 78 390 Q85 402 90 414 Q95 425 98 437 Q101 449 101 460 Q101 472 97 484 Q94 495 88 507 Q82 519 74 530 Q67 542 60 554 Q52 565 47 577 Q41 589 38 600 Q35 612 36 624 Q37 635 41 647 Q46 659 53 670 Q60 682 68 694 Q77 705 85 717" stroke="#5A3E2B" stroke-width="1.45" stroke-opacity="0.75" fill="none" stroke-linecap="round"/><path d="M896 98 Q874 120 864 131 Q853 143 846 154 Q839 165 837 176 Q834 188 838 199 Q842 210 851 221 Q859 233 871 244 Q884 255 896 266 Q909 277 920 289 Q930 300 936 311 Q941 322 940 334 Q939 345 932 356 Q925 367 912 379 Q900 390 886 401 Q871 412 858 424 Q844 435 835 446 Q826 457 823 469 Q820 480 825 491 Q830 502 841 514 Q852 525 868 536 Q883 547 899 558 Q915 570 928 581 Q941 592 948 603 Q955 615 954 626 Q953 637 944 648 Q935 660 919 671 Q904 682 886 693 Q868 705 852 716" stroke="#5A3E2B" stroke-width="2.10" stroke-opacity="0.28" fill="none" stroke-linecap="round"/><path d="M385 101 Q380 126 381 139 Q382 151 386 164 Q390 177 397 189 Q404 202 413 215 Q422 227 432 240 Q442 252 450 265 Q459 278 466 290 Q472 303 476 316 Q479 328 479 341 Q478 353 473 366 Q469 379 461 391 Q453 404 442 416 Q432 429 421 442 Q410 454 399 467 Q389 480 381 492 Q373 505 368 517 Q364 530 364 543 Q364 555 369 568 Q374 581 383 593 Q392 606 403 618 Q415 631 428 644 Q441 656 453 669 Q465 681 475 694 Q484 707 490 719 Q495 732 495 745 Q496 757 491 770 Q486 782 476 795" stroke="#2B1D14" stroke-width="1.53" stroke-opacity="0.78" fill="none" stroke-linecap="round"/><rect width="1200" height="800" fill="url(#v)"/>
<g transform="translate(1104 704) scale(0.3076923076923077) translate(-20 -20)" opacity="0.9">
<path fill="#B0925C" d="M34 30H58V33C54 34 53 36 53 40V160C53 164 54 166 58 167V170H34V167C38 166 39 164 39 160V40C39 36 38 34 34 33Z"/>
<path fill="#B0925C" d="M142 30H166V33C162 34 161 36 161 40V160C161 164 162 166 166 167V170H142V167C146 166 147 164 147 160V40C147 36 146 34 142 33Z"/>
<path fill="#B0925C" d="M160 60C168 62 172 70 171 80L171 84C172 88 176 92 177 96C176 98 173 99 172 100C173 103 172 105 171 106C173 108 172 111 170 112C170 116 168 120 164 121C162 122 161 126 160 132Z"/>
<g fill="none" stroke="#B0925C" stroke-linecap="round"><path stroke-width="4" d="M149 72C132 64 116 71 104 83C94 93 80 98 68 92C62 89 62 82 68 80"/><path stroke-width="5" d="M149 90C130 84 114 95 100 105C86 115 70 116 53 108"/><path stroke-width="3.5" d="M149 106C134 104 122 115 112 127C104 137 92 141 82 135C76 131 78 124 85 124"/><path stroke-width="3" d="M149 118C140 130 137 143 145 150"/></g></g>
</svg>