<svg xmlns="http://www.w3.org/2000/svg" viewBox="0 0 800 1000" width="800" height="1000" preserveAspectRatio="xMidYMid slice">
<defs><linearGradient id="g" x1="0" y1="0" x2="0.4" y2="1"><stop offset="0" stop-color="#3b2a1f"/><stop offset="1" stop-color="#2B1D14"/></linearGradient>
<radialGradient id="v" cx="0.5" cy="0.35" r="0.8"><stop offset="0.5" stop-color="#000" stop-opacity="0"/><stop offset="1" stop-color="#000" stop-opacity="0.18"/></radialGradient></defs>
<rect width="800" height="1000" fill="url(#g)"/><path d="M280 130 Q293 158 293 173 Q293 187 287 201 Q281 216 286 230 Q291 244 294 258 Q298 273 289 287 Q280 301 284 315 Q288 330 294 344 Q299 358 290 372 Q280 387 283 401 Q285 415 292 429 Q299 444 291 458 Q283 472 283 486 Q283 501 292 515 Q300 529 293 543 Q286 558 283 572 Q280 586 291 600 Q302 615 295 629 Q289 643 284 657 Q278 672 289 686 Q299 700 297 714 Q294 729 285 743 Q276 757 286 771 Q296 786 296 800 Q296 814 286 828 Q276 843 285 857 Q293 871 296 885 Q299 900 288 914" stroke="#8a6a45" stroke-width="1.04" stroke-opacity="0.32" fill="none" stroke-linecap="round"/><path d="M590 128 Q596 155 589 169 Q581 182 585 196 Q588 209 594 223 Q600 237 592 250 Q583 264 584 277 Q586 291 593 304 Q600 318 594 332 Q587 345 584 359 Q581 372 590 386 Q599 399 593 413 Q587 427 584 440 Q580 454 590 467 Q599 481 595 494 Q592 508 584 522 Q577 535 586 549 Q596 562 595 576 Q594 589 584 603 Q575 617 584 630 Q593 644 596 657 Q598 671 587 684 Q576 698 583 712 Q591 725 595 739 Q599 752 588 766 Q577 780 583 793 Q589 807 595 820 Q602 834 590 847 Q579 861 582 875" stroke="#D8C08E" stroke-width="0.92" stroke-opacity="0.33" fill="none" stroke-linecap="round"/><path d="M572 127 Q583 154 583 167 Q582 180 577 194 Q571 207 580 220 Q589 234 583 247 Q576 260 575 273 Q574 287 582 300 Q589 313 580 327 Q571 340 576 353 Q581 366 583 380 Q586 393 577 406 Q568 420 578 433 Q588 446 583 459 Q579 473 575 486 Q571 499 581 513 Q592 526 582 539 Q572 552 575 566 Q577 579 583 592 Q589 606 579 619 Q569 632 577 645 Q585 659 586 672 Q586 685 576 699 Q566 712 579 725 Q591 738 584 752 Q577 765 573 778 Q569 792 582 805 Q595 818 582 831 Q570 845 574 858" stroke="#D8C08E" stroke-width="0.90" stroke-opacity="0.43" fill="none" stroke-linecap="round"/><path d="M373 120 Q368 151 373 167 Q379 182 374 198 Q370 213 370 229 Q370 244 374 260 Q378 275 373 291 Q367 306 370 322 Q373 337 374 353 Q376 368 372 384 Q368 399 372 415 Q376 430 377 446 Q377 461 372 477 Q367 492 372 508 Q377 523 375 539 Q373 554 370 570 Q367 585 373 601 Q378 616 374 632 Q370 647 370 663 Q370 678 375 694 Q380 709 373 725 Q367 740 369 756 Q372 771 375 787 Q379 802 373 818 Q367 833 372 849 Q377 864 376 880 Q375 895 370 911 Q365 926 371 942 Q378 957 376 973" stroke="#D8C08E" stroke-width="0.69" stroke-opacity="0.54" fill="none" stroke-linecap="round"/><path d="M441 87 Q450 119 448 135 Q447 151 442 168 Q438 184 443 200 Q449 216 449 232 Q448 249 443 265 Q438 281 443 297 Q447 314 448 330 Q449 346 444 362 Q438 378 443 395 Q447 411 450 427 Q453 443 445 459 Q438 476 441 492 Q443 508 448 524 Q452 540 446 557 Q439 573 441 589 Q443 605 449 622 Q454 638 448 654 Q441 670 440 686 Q439 703 446 719 Q454 735 448 751 Q443 767 440 784 Q438 800 446 816 Q454 832 450 849 Q445 865 441 881 Q436 897 443 913 Q450 930 450 946 Q450 962 442 978" stroke="#D8C08E" stroke-width="1.65" stroke-opacity="0.26" fill="none" stroke-linecap="round"/><path d="M189 81 Q178 111 181 125 Q184 140 185 155 Q186 170 182 184 Q177 199 183 214 Q190 228 185 243 Q180 258 182 272 Q184 287 185 302 Q185 317 181 331 Q177 346 182 361 Q187 375 183 390 Q178 405 180 419 Q182 434 184 449 Q187 464 182 478 Q177 493 184 508 Q191 522 185 537 Q179 552 180 566 Q182 581 185 596 Q188 611 182 625 Q175 640 183 655 Q191 669 186 684 Q180 699 181 713 Q183 728 185 743 Q187 758 181 772 Q176 787 183 802 Q189 816 184 831 Q179 846 180 860 Q182 875 184 890" stroke="#8a6a45" stroke-width="0.78" stroke-opacity="0.67" fill="none" stroke-linecap="round"/><path d="M318 92 Q328 120 326 133 Q324 147 320 161 Q317 175 320 188 Q324 202 325 216 Q327 229 322 243 Q318 257 319 270 Q320 284 325 298 Q330 312 325 325 Q319 339 318 353 Q317 366 323 380 Q328 394 327 408 Q325 421 320 435 Q316 449 320 462 Q325 476 326 490 Q328 504 322 517 Q316 531 317 545 Q317 558 324 572 Q330 586 325 600 Q320 613 317 627 Q315 641 322 654 Q329 668 328 682 Q328 696 321 709 Q314 723 318 737 Q323 750 326 764 Q330 778 323 791 Q316 805 316 819 Q316 833 324 846" stroke="#8a6a45" stroke-width="1.26" stroke-opacity="0.50" fill="none" stroke-linecap="round"/><path d="M547 120 Q561 150 555 165 Q549 181 547 196 Q546 211 555 226 Q564 241 556 257 Q549 272 549 287 Q548 302 556 318 Q564 333 557 348 Q550 363 548 378 Q546 394 554 409 Q563 424 555 439 Q548 454 548 470 Q547 485 556 500 Q564 515 557 531 Q549 546 548 561 Q548 576 556 591 Q565 607 556 622 Q548 637 547 652 Q547 668 556 683 Q565 698 556 713 Q547 728 547 744 Q547 759 557 774 Q566 789 556 805 Q547 820 548 835 Q549 850 557 865 Q566 881 556 896 Q545 911 546 926 Q547 941 557 957" stroke="#D8C08E" stroke-width="0.61" stroke-opacity="0.38" fill="none" stroke-linecap="round"/><path d="M425 109 Q428 137 421 150 Q413 164 421 178 Q429 192 428 206 Q427 219 420 233 Q414 247 423 261 Q431 274 429 288 Q426 302 420 316 Q413 329 423 343 Q433 357 429 371 Q424 385 420 398 Q415 412 426 426 Q436 440 428 453 Q419 467 417 481 Q415 495 426 509 Q436 522 427 536 Q419 550 418 564 Q417 577 427 591 Q438 605 426 619 Q415 632 418 646 Q420 660 427 674 Q435 688 424 701 Q412 715 417 729 Q422 743 430 756 Q437 770 424 784 Q411 798 419 812 Q427 825 431 839 Q435 853 422 867" stroke="#D8C08E" stroke-width="1.37" stroke-opacity="0.33" fill="none" stroke-linecap="round"/><path d="M263 86 Q269 113 262 127 Q255 140 263 154 Q271 167 268 181 Q265 195 262 208 Q259 222 266 236 Q272 249 264 263 Q256 277 262 290 Q269 304 268 318 Q266 331 261 345 Q257 359 265 372 Q274 386 266 400 Q258 413 262 427 Q267 441 268 454 Q269 468 262 481 Q255 495 265 509 Q275 522 266 536 Q258 550 261 563 Q264 577 267 591 Q270 604 262 618 Q254 632 263 645 Q273 659 266 673 Q259 686 260 700 Q262 714 268 727 Q274 741 263 755 Q252 768 263 782 Q273 795 267 809 Q261 823 259 836" stroke="#8a6a45" stroke-width="0.88" stroke-opacity="0.75" fill="none" stroke-linecap="round"/><path d="M344 102 Q339 135 337 151 Q334 168 337 184 Q340 201 341 217 Q343 234 338 250 Q333 266 334 283 Q336 299 340 316 Q343 332 340 348 Q336 365 335 381 Q334 398 339 414 Q344 431 342 447 Q340 463 336 480 Q332 496 337 513 Q343 529 343 545 Q342 562 337 578 Q331 595 335 611 Q338 627 342 644 Q345 660 339 677 Q334 693 334 710 Q334 726 340 742 Q347 759 343 775 Q339 792 334 808 Q330 824 336 841 Q343 857 344 874 Q345 890 338 906 Q330 923 334 939 Q338 956 342 972 Q346 989 340 1005" stroke="#D8C08E" stroke-width="1.40" stroke-opacity="0.68" fill="none" stroke-linecap="round"/><path d="M266 120 Q276 151 268 167 Q261 183 263 198 Q264 214 271 230 Q277 245 269 261 Q262 276 263 292 Q264 308 271 323 Q278 339 271 355 Q265 370 264 386 Q263 402 270 417 Q278 433 272 449 Q265 464 262 480 Q259 496 269 511 Q278 527 272 543 Q266 558 263 574 Q259 590 269 605 Q278 621 275 637 Q271 652 263 668 Q256 684 266 699 Q276 715 274 731 Q273 746 264 762 Q255 777 266 793 Q276 809 275 824 Q275 840 264 856 Q254 871 264 887 Q273 903 275 918 Q278 934 266 950 Q254 965 262 981" stroke="#8a6a45" stroke-width="0.81" stroke-opacity="0.56" fill="none" stroke-linecap="round"/><path d="M197 89 Q190 122 186 138 Q182 154 187 171 Q192 187 195 203 Q199 219 193 236 Q186 252 185 268 Q183 285 191 301 Q198 317 197 333 Q196 350 189 366 Q182 382 184 399 Q187 415 194 431 Q201 447 196 464 Q191 480 186 496 Q181 512 187 529 Q193 545 196 561 Q200 578 193 594 Q185 610 184 626 Q183 643 191 659 Q199 675 197 691 Q196 708 189 724 Q182 740 184 757 Q187 773 194 789 Q200 805 196 822 Q192 838 186 854 Q179 871 185 887 Q191 903 197 919 Q203 936 194 952 Q185 968 182 984" stroke="#D8C08E" stroke-width="2.03" stroke-opacity="0.58" fill="none" stroke-linecap="round"/><path d="M567 113 Q562 143 559 158 Q556 173 560 189 Q563 204 565 219 Q566 234 561 249 Q556 264 557 280 Q559 295 564 310 Q570 325 565 340 Q560 355 557 371 Q554 386 560 401 Q567 416 567 431 Q566 447 560 462 Q553 477 557 492 Q560 507 565 522 Q569 538 564 553 Q559 568 556 583 Q553 598 560 613 Q566 629 566 644 Q567 659 560 674 Q553 689 556 705 Q560 720 566 735 Q572 750 565 765 Q558 780 556 796 Q554 811 561 826 Q568 841 568 856 Q568 871 560 887 Q553 902 558 917 Q562 932 568 947" stroke="#8a6a45" stroke-width="0.63" stroke-opacity="0.43" fill="none" stroke-linecap="round"/><path d="M248 122 Q241 153 243 168 Q244 184 246 199 Q247 214 243 230 Q238 245 244 261 Q249 276 246 291 Q243 307 242 322 Q241 338 246 353 Q251 368 245 384 Q239 399 244 414 Q249 430 247 445 Q246 461 242 476 Q238 491 245 507 Q252 522 246 538 Q240 553 242 568 Q245 584 246 599 Q247 615 242 630 Q238 645 244 661 Q249 676 246 691 Q242 707 242 722 Q242 738 246 753 Q251 768 244 784 Q236 799 243 815 Q249 830 246 845 Q244 861 242 876 Q240 891 246 907 Q252 922 245 938 Q238 953 242 968" stroke="#D8C08E" stroke-width="1.37" stroke-opacity="0.49" fill="none" stroke-linecap="round"/><path d="M381 127 Q366 156 368 170 Q370 185 376 199 Q382 214 372 228 Q362 243 368 257 Q375 272 377 286 Q380 301 369 315 Q359 330 368 344 Q378 359 376 373 Q374 388 368 402 Q361 417 371 431 Q381 446 375 460 Q369 475 367 489 Q364 504 374 518 Q385 533 376 547 Q367 562 366 576 Q366 591 375 605 Q384 620 372 634 Q360 649 366 663 Q372 678 378 692 Q384 707 371 721 Q359 736 369 750 Q378 765 379 779 Q379 794 368 808 Q356 823 370 837 Q383 852 378 866 Q373 881 366 895 Q359 910 373 924" stroke="#D8C08E" stroke-width="1.73" stroke-opacity="0.45" fill="none" stroke-linecap="round"/><path d="M355 111 Q349 144 353 161 Q356 177 358 194 Q360 210 356 227 Q352 243 351 260 Q350 276 354 293 Q358 309 359 326 Q359 342 353 359 Q348 375 350 392 Q353 408 358 425 Q364 441 359 458 Q354 474 350 491 Q347 507 352 524 Q356 540 360 557 Q363 573 357 590 Q350 606 350 623 Q350 639 356 656 Q362 672 360 689 Q357 705 352 722 Q347 738 350 755 Q352 771 359 788 Q365 804 358 821 Q352 837 348 854 Q345 870 352 887 Q360 903 361 920 Q363 936 355 953 Q348 969 349 986 Q350 1002 357 1019" stroke="#8a6a45" stroke-width="0.97" stroke-opacity="0.37" fill="none" stroke-linecap="round"/><path d="M233 107 Q245 139 245 155 Q245 171 239 187 Q232 202 237 218 Q242 234 246 250 Q249 266 241 282 Q232 298 236 314 Q239 329 245 345 Q252 361 244 377 Q237 393 236 409 Q234 425 243 441 Q251 457 246 472 Q240 488 235 504 Q231 520 240 536 Q249 552 247 568 Q245 584 237 600 Q230 615 238 631 Q246 647 248 663 Q251 679 239 695 Q228 711 234 727 Q240 742 247 758 Q253 774 243 790 Q232 806 233 822 Q234 838 245 854 Q256 870 245 885 Q235 901 233 917 Q231 933 243 949 Q255 965 248 981" stroke="#D8C08E" stroke-width="1.94" stroke-opacity="0.60" fill="none" stroke-linecap="round"/><path d="M318 117 Q318 147 323 163 Q327 178 321 193 Q315 208 322 224 Q329 239 325 254 Q320 270 319 285 Q318 300 324 315 Q329 331 321 346 Q314 361 322 377 Q330 392 325 407 Q320 422 320 438 Q320 453 325 468 Q329 483 320 499 Q311 514 320 529 Q329 545 324 560 Q319 575 319 590 Q319 606 325 621 Q331 636 320 651 Q310 667 321 682 Q331 697 324 713 Q317 728 318 743 Q319 758 324 774 Q330 789 319 804 Q309 820 320 835 Q332 850 326 865 Q319 881 319 896 Q319 911 325 926 Q332 942 320 957" stroke="#D8C08E" stroke-width="1.11" stroke-opacity="0.41" fill="none" stroke-linecap="round"/><path d="M310 102 Q317 130 316 144 Q315 158 313 172 Q311 186 314 201 Q317 215 317 229 Q317 243 313 257 Q310 271 313 285 Q316 299 317 313 Q318 327 313 342 Q308 356 311 370 Q314 384 317 398 Q320 412 315 426 Q311 440 310 454 Q310 469 315 483 Q320 497 317 511 Q314 525 312 539 Q309 553 315 567 Q320 581 318 595 Q315 610 311 624 Q307 638 313 652 Q319 666 319 680 Q318 694 313 708 Q308 722 312 736 Q315 751 318 765 Q321 779 314 793 Q307 807 310 821 Q314 835 318 849 Q323 863 317 878" stroke="#D8C08E" stroke-width="1.38" stroke-opacity="0.30" fill="none" stroke-linecap="round"/><path d="M575 90 Q571 120 568 135 Q566 150 571 165 Q576 180 571 195 Q566 210 568 224 Q570 239 573 254 Q575 269 570 284 Q566 299 571 314 Q576 329 574 344 Q572 359 569 374 Q566 388 571 403 Q576 418 572 433 Q567 448 568 463 Q569 478 573 493 Q577 508 571 523 Q564 538 568 552 Q573 567 573 582 Q574 597 569 612 Q564 627 571 642 Q577 657 573 672 Q569 687 567 702 Q565 716 573 731 Q580 746 572 761 Q564 776 567 791 Q570 806 575 821 Q579 836 570 851 Q562 866 569 880 Q576 895 575 910" stroke="#D8C08E" stroke-width="1.61" stroke-opacity="0.40" fill="none" stroke-linecap="round"/><path d="M239 93 Q244 125 246 141 Q248 158 243 174 Q237 190 241 206 Q245 222 247 238 Q248 254 242 270 Q237 287 242 303 Q246 319 248 335 Q250 351 243 367 Q236 383 241 400 Q246 416 248 432 Q251 448 244 464 Q238 480 241 496 Q245 512 248 529 Q252 545 243 561 Q235 577 240 593 Q246 609 249 625 Q252 641 244 658 Q237 674 240 690 Q244 706 248 722 Q253 738 244 754 Q236 771 240 787 Q243 803 247 819 Q251 835 244 851 Q236 867 240 883 Q245 900 248 916 Q252 932 243 948 Q234 964 239 980" stroke="#D8C08E" stroke-width="1.10" stroke-opacity="0.57" fill="none" stroke-linecap="round"/><path d="M480 122 Q488 153 485 168 Q482 184 481 199 Q480 215 483 230 Q487 246 485 261 Q482 277 480 292 Q478 308 483 323 Q487 339 486 354 Q484 370 481 385 Q477 401 481 416 Q484 432 484 447 Q483 463 479 478 Q475 494 480 509 Q485 525 486 540 Q487 555 482 571 Q476 586 480 602 Q483 617 485 633 Q486 648 481 664 Q476 679 479 695 Q481 710 485 726 Q489 741 482 757 Q475 772 479 788 Q482 803 486 819 Q490 834 483 850 Q476 865 478 881 Q480 896 486 912 Q491 927 484 943 Q477 958 478 974" stroke="#D8C08E" stroke-width="1.39" stroke-opacity="0.58" fill="none" stroke-linecap="round"/><path d="M502 89 Q496 115 493 129 Q490 142 496 156 Q502 169 498 182 Q494 196 492 209 Q491 222 497 236 Q502 249 497 262 Q491 276 494 289 Q496 302 499 316 Q503 329 496 342 Q489 356 494 369 Q499 383 500 396 Q501 409 495 423 Q488 436 495 449 Q501 463 501 476 Q500 489 495 503 Q489 516 497 529 Q505 543 500 556 Q495 569 493 583 Q491 596 498 609 Q505 623 499 636 Q492 650 492 663 Q492 676 499 690 Q506 703 498 716 Q490 730 494 743 Q498 756 502 770 Q505 783 496 796 Q486 810 492 823" stroke="#D8C08E" stroke-width="1.31" stroke-opacity="0.53" fill="none" stroke-linecap="round"/><path d="M608 99 Q606 132 602 149 Q598 165 603 182 Q609 199 608 215 Q607 232 603 249 Q599 266 604 282 Q610 299 608 316 Q607 332 603 349 Q598 366 603 382 Q608 399 607 416 Q606 432 602 449 Q598 466 603 483 Q608 499 608 516 Q608 533 602 549 Q597 566 603 583 Q608 599 609 616 Q610 633 603 650 Q596 666 602 683 Q608 700 609 716 Q609 733 603 750 Q597 766 602 783 Q607 800 609 816 Q611 833 604 850 Q597 867 602 883 Q606 900 608 917 Q610 933 603 950 Q596 967 601 983 Q606 1000 609 1017" stroke="#D8C08E" stroke-width="0.81" stroke-opacity="0.74" fill="none" stroke-linecap="round"/><path d="M600 96 Q592 127 595 142 Q598 157 600 173 Q601 188 598 203 Q594 218 595 233 Q595 249 599 264 Q602 279 600 294 Q598 309 595 325 Q593 340 597 355 Q600 370 600 386 Q600 401 595 416 Q591 431 595 446 Q598 462 601 477 Q603 492 598 507 Q592 523 594 538 Q596 553 600 568 Q605 583 600 599 Q596 614 594 629 Q593 644 598 660 Q604 675 602 690 Q600 705 595 720 Q591 736 596 751 Q601 766 603 781 Q604 796 597 812 Q590 827 593 842 Q596 857 601 873 Q606 888 600 903 Q594 918 593 933" stroke="#D8C08E" stroke-width="1.43" stroke-opacity="0.74" fill="none" stroke-linecap="round"/><path d="M573 103 Q573 131 581 144 Q589 158 584 172 Q579 185 575 199 Q571 213 579 226 Q587 240 584 254 Q582 268 576 281 Q570 295 576 309 Q583 322 585 336 Q586 350 578 363 Q569 377 574 391 Q579 404 585 418 Q591 432 581 446 Q571 459 572 473 Q572 487 581 500 Q590 514 582 528 Q575 541 573 555 Q570 569 579 582 Q588 596 585 610 Q582 624 573 637 Q565 651 575 665 Q586 678 587 692 Q587 706 578 719 Q568 733 573 747 Q579 760 585 774 Q591 788 580 801 Q570 815 571 829 Q572 843 583 856" stroke="#D8C08E" stroke-width="0.88" stroke-opacity="0.25" fill="none" stroke-linecap="round"/><path d="M461 107 Q473 141 472 157 Q470 174 465 191 Q459 208 467 224 Q476 241 472 258 Q467 275 464 292 Q461 308 469 325 Q477 342 471 359 Q465 375 464 392 Q463 409 470 426 Q478 443 470 459 Q462 476 463 493 Q464 510 472 526 Q479 543 469 560 Q459 577 462 594 Q466 610 473 627 Q480 644 469 661 Q459 678 464 694 Q469 711 473 728 Q478 745 467 761 Q457 778 465 795 Q474 812 474 829 Q475 845 465 862 Q456 879 466 896 Q476 912 475 929 Q474 946 465 963 Q456 980 467 996 Q477 1013 474 1030" stroke="#D8C08E" stroke-width="1.32" stroke-opacity="0.25" fill="none" stroke-linecap="round"/><path d="M542 86 Q556 114 553 128 Q551 142 546 157 Q542 171 548 185 Q555 199 554 213 Q554 227 547 241 Q540 255 548 269 Q556 284 555 298 Q554 312 548 326 Q541 340 546 354 Q551 368 554 382 Q557 396 549 411 Q541 425 546 439 Q550 453 555 467 Q560 481 551 495 Q541 509 545 524 Q549 538 554 552 Q559 566 551 580 Q543 594 544 608 Q544 622 553 636 Q561 651 552 665 Q543 679 542 693 Q541 707 552 721 Q563 735 555 749 Q546 763 544 778 Q541 792 550 806 Q559 820 555 834 Q550 848 544 862" stroke="#D8C08E" stroke-width="1.18" stroke-opacity="0.81" fill="none" stroke-linecap="round"/><path d="M611 84 Q609 114 604 130 Q599 145 609 160 Q618 175 610 191 Q601 206 603 221 Q604 237 610 252 Q616 267 606 283 Q596 298 604 313 Q611 329 612 344 Q612 359 605 375 Q598 390 608 405 Q618 421 610 436 Q602 451 603 466 Q603 482 612 497 Q621 512 609 528 Q597 543 605 558 Q612 574 613 589 Q613 604 604 620 Q594 635 607 650 Q621 666 612 681 Q604 696 602 712 Q600 727 611 742 Q621 757 608 773 Q595 788 603 803 Q610 819 614 834 Q617 849 605 865 Q593 880 607 895 Q621 911 613 926" stroke="#8a6a45" stroke-width="2.18" stroke-opacity="0.39" fill="none" stroke-linecap="round"/><path d="M313 111 Q307 142 303 158 Q300 174 306 190 Q313 206 310 222 Q308 238 303 254 Q298 269 306 285 Q314 301 310 317 Q306 333 302 349 Q298 365 306 380 Q313 396 309 412 Q304 428 302 444 Q300 460 307 476 Q314 491 309 507 Q305 523 302 539 Q299 555 306 571 Q314 587 309 602 Q305 618 302 634 Q299 650 308 666 Q316 682 310 698 Q304 713 302 729 Q299 745 308 761 Q317 777 311 793 Q304 809 302 824 Q299 840 308 856 Q317 872 309 888 Q302 904 299 920 Q297 935 307 951 Q317 967 310 983" stroke="#8a6a45" stroke-width="2.13" stroke-opacity="0.46" fill="none" stroke-linecap="round"/><path d="M464 110 Q452 138 458 152 Q463 167 465 181 Q468 195 461 209 Q454 224 457 238 Q460 252 464 266 Q469 281 462 295 Q456 309 456 323 Q457 338 463 352 Q470 366 465 380 Q461 395 456 409 Q451 423 459 437 Q467 452 466 466 Q465 480 458 494 Q451 509 457 523 Q462 537 465 551 Q468 566 459 580 Q450 594 455 608 Q459 623 465 637 Q471 651 464 665 Q457 680 454 694 Q452 708 462 722 Q472 737 466 751 Q461 765 454 779 Q448 794 459 808 Q469 822 468 836 Q466 851 457 865 Q447 879 455 893" stroke="#D8C08E" stroke-width="0.79" stroke-opacity="0.58" fill="none" stroke-linecap="round"/><path d="M188 88 Q186 116 194 129 Q201 143 197 157 Q193 171 188 184 Q184 198 191 212 Q198 225 198 239 Q197 253 190 267 Q182 280 187 294 Q192 308 197 321 Q202 335 193 349 Q184 362 185 376 Q186 390 194 404 Q202 417 196 431 Q190 445 186 458 Q182 472 191 486 Q200 500 199 513 Q198 527 190 541 Q181 554 188 568 Q194 582 198 595 Q201 609 192 623 Q183 637 186 650 Q188 664 197 678 Q205 691 197 705 Q188 719 186 733 Q183 746 193 760 Q202 774 198 787 Q193 801 186 815 Q178 828 188 842" stroke="#D8C08E" stroke-width="1.94" stroke-opacity="0.83" fill="none" stroke-linecap="round"/><path d="M187 115 Q177 141 181 154 Q185 167 184 180 Q183 192 180 205 Q178 218 182 231 Q187 244 183 257 Q180 270 181 283 Q182 296 185 309 Q187 322 182 335 Q177 348 182 361 Q187 374 185 387 Q183 400 181 413 Q179 425 184 438 Q188 451 184 464 Q179 477 181 490 Q183 503 185 516 Q187 529 181 542 Q175 555 182 568 Q188 581 185 594 Q182 607 180 620 Q178 633 183 645 Q188 658 182 671 Q177 684 180 697 Q182 710 184 723 Q187 736 181 749 Q175 762 182 775 Q189 788 185 801 Q181 814 179 827" stroke="#D8C08E" stroke-width="1.86" stroke-opacity="0.72" fill="none" stroke-linecap="round"/><path d="M439 118 Q449 148 450 163 Q452 178 444 193 Q437 207 448 222 Q459 237 449 252 Q439 267 443 282 Q446 297 450 312 Q454 327 444 341 Q434 356 446 371 Q457 386 448 401 Q440 416 442 431 Q444 446 449 460 Q455 475 444 490 Q433 505 446 520 Q459 535 450 550 Q441 565 442 580 Q443 594 451 609 Q459 624 446 639 Q434 654 446 669 Q458 684 451 699 Q443 714 441 728 Q439 743 450 758 Q460 773 446 788 Q431 803 444 818 Q456 833 452 847 Q447 862 443 877 Q439 892 451 907 Q464 922 448 937" stroke="#8a6a45" stroke-width="0.79" stroke-opacity="0.25" fill="none" stroke-linecap="round"/><path d="M523 108 Q521 140 518 156 Q515 172 520 188 Q525 204 520 220 Q516 236 518 252 Q521 268 523 284 Q526 300 520 316 Q514 332 519 348 Q525 364 523 380 Q521 396 519 412 Q516 428 521 445 Q526 461 520 477 Q515 493 519 509 Q524 525 523 541 Q522 557 518 573 Q513 589 520 605 Q528 621 522 637 Q516 653 517 669 Q519 685 522 701 Q526 717 520 733 Q514 749 520 765 Q526 781 522 797 Q519 813 518 829 Q517 845 523 861 Q529 877 521 893 Q513 909 518 925 Q522 941 522 957 Q521 973 518 989" stroke="#D8C08E" stroke-width="1.63" stroke-opacity="0.57" fill="none" stroke-linecap="round"/><path d="M593 128 Q597 158 600 173 Q603 188 600 203 Q597 217 596 232 Q595 247 599 262 Q602 277 603 292 Q604 307 599 322 Q594 337 595 352 Q595 367 599 382 Q603 397 602 412 Q601 427 597 442 Q592 457 595 472 Q597 487 600 502 Q604 517 601 532 Q599 547 596 562 Q594 577 597 592 Q600 607 603 622 Q605 637 600 652 Q595 667 594 682 Q593 697 598 712 Q603 727 603 742 Q602 757 597 772 Q592 787 594 802 Q596 817 601 831 Q607 846 604 861 Q601 876 596 891 Q591 906 595 921 Q600 936 603 951" stroke="#8a6a45" stroke-width="1.78" stroke-opacity="0.35" fill="none" stroke-linecap="round"/><path d="M521 114 Q520 146 523 162 Q526 179 522 195 Q518 211 520 227 Q523 243 524 259 Q524 275 520 292 Q516 308 521 324 Q527 340 522 356 Q518 372 520 389 Q521 405 524 421 Q526 437 521 453 Q516 469 520 486 Q524 502 523 518 Q523 534 520 550 Q517 566 523 582 Q528 599 522 615 Q516 631 519 647 Q521 663 523 679 Q525 696 520 712 Q516 728 521 744 Q527 760 524 776 Q521 792 520 809 Q518 825 523 841 Q527 857 521 873 Q514 889 520 906 Q525 922 524 938 Q524 954 519 970 Q514 986 522 1002" stroke="#D8C08E" stroke-width="1.64" stroke-opacity="0.61" fill="none" stroke-linecap="round"/><path d="M192 107 Q182 135 181 149 Q181 163 188 176 Q194 190 192 204 Q189 218 183 232 Q178 246 183 260 Q189 274 192 288 Q196 301 188 315 Q180 329 182 343 Q184 357 190 371 Q197 385 193 399 Q189 412 183 426 Q178 440 184 454 Q190 468 193 482 Q196 496 188 510 Q180 524 181 537 Q183 551 190 565 Q196 579 191 593 Q185 607 181 621 Q177 635 185 649 Q192 662 194 676 Q195 690 186 704 Q176 718 179 732 Q182 746 190 760 Q197 773 191 787 Q184 801 179 815 Q174 829 184 843 Q193 857 193 871" stroke="#D8C08E" stroke-width="1.38" stroke-opacity="0.30" fill="none" stroke-linecap="round"/><path d="M335 112 Q327 144 335 160 Q344 176 334 192 Q325 208 330 224 Q336 240 336 256 Q337 272 332 288 Q326 304 335 320 Q344 336 335 352 Q326 368 330 384 Q334 400 336 416 Q338 432 330 447 Q322 463 334 479 Q345 495 336 511 Q328 527 331 543 Q334 559 337 575 Q341 591 331 607 Q322 623 334 639 Q346 655 337 671 Q328 687 329 703 Q331 719 337 735 Q342 751 332 767 Q322 783 334 799 Q346 815 337 831 Q328 847 329 863 Q331 879 339 895 Q347 911 332 927 Q318 943 332 959 Q345 975 338 991" stroke="#8a6a45" stroke-width="1.82" stroke-opacity="0.81" fill="none" stroke-linecap="round"/><path d="M463 102 Q454 136 455 153 Q455 170 460 187 Q465 204 460 221 Q455 238 455 255 Q456 271 460 288 Q464 305 459 322 Q454 339 455 356 Q456 373 459 390 Q462 407 457 424 Q452 441 455 458 Q457 475 460 491 Q464 508 458 525 Q451 542 456 559 Q461 576 463 593 Q465 610 458 627 Q451 644 456 661 Q461 678 461 694 Q461 711 456 728 Q451 745 456 762 Q461 779 462 796 Q463 813 457 830 Q451 847 456 864 Q461 881 461 898 Q461 914 455 931 Q449 948 457 965 Q465 982 463 999 Q461 1016 455 1033" stroke="#D8C08E" stroke-width="1.08" stroke-opacity="0.64" fill="none" stroke-linecap="round"/><path d="M225 103 Q212 134 211 149 Q211 165 219 180 Q227 195 218 211 Q209 226 210 241 Q212 257 220 272 Q227 287 217 303 Q207 318 209 333 Q211 349 219 364 Q226 379 217 395 Q207 410 210 426 Q212 441 221 456 Q229 472 218 487 Q207 502 210 518 Q212 533 221 548 Q229 564 218 579 Q207 594 209 610 Q212 625 220 640 Q228 656 216 671 Q204 686 209 702 Q213 717 220 732 Q228 748 215 763 Q202 778 209 794 Q216 809 222 825 Q229 840 215 855 Q202 871 209 886 Q215 901 223 917 Q231 932 216 947" stroke="#8a6a45" stroke-width="0.90" stroke-opacity="0.60" fill="none" stroke-linecap="round"/><path d="M623 90 Q605 117 612 131 Q620 145 618 159 Q616 172 611 186 Q606 200 616 214 Q625 228 618 241 Q610 255 611 269 Q612 283 619 297 Q625 310 615 324 Q606 338 614 352 Q622 366 620 379 Q619 393 612 407 Q605 421 615 435 Q626 448 619 462 Q613 476 612 490 Q610 504 619 517 Q629 531 617 545 Q605 559 612 573 Q619 586 622 600 Q624 614 612 628 Q601 642 614 655 Q628 669 621 683 Q614 697 611 711 Q607 724 619 738 Q630 752 618 766 Q606 780 611 793 Q616 807 622 821 Q627 835 614 849" stroke="#8a6a45" stroke-width="1.97" stroke-opacity="0.74" fill="none" stroke-linecap="round"/><path d="M615 82 Q625 112 620 126 Q616 141 616 156 Q617 170 622 185 Q628 199 621 214 Q615 229 617 243 Q619 258 623 273 Q627 287 620 302 Q614 316 616 331 Q619 346 622 360 Q625 375 618 390 Q610 404 616 419 Q622 433 624 448 Q625 463 619 477 Q612 492 617 507 Q621 521 623 536 Q625 550 617 565 Q609 580 618 594 Q626 609 624 624 Q622 638 616 653 Q610 667 617 682 Q625 697 622 711 Q619 726 615 741 Q612 755 620 770 Q628 784 623 799 Q618 814 614 828 Q611 843 621 858 Q630 872 623 887" stroke="#D8C08E" stroke-width="1.72" stroke-opacity="0.44" fill="none" stroke-linecap="round"/><path d="M366 118 Q367 147 361 161 Q354 175 362 189 Q369 204 366 218 Q364 232 358 246 Q353 260 362 275 Q370 289 367 303 Q364 317 358 331 Q353 346 363 360 Q373 374 367 388 Q361 402 358 417 Q355 431 365 445 Q374 459 366 474 Q358 488 357 502 Q355 516 365 530 Q374 545 365 559 Q355 573 357 587 Q359 601 367 616 Q375 630 364 644 Q353 658 357 672 Q361 687 368 701 Q376 715 364 729 Q351 743 356 758 Q362 772 368 786 Q374 800 361 814 Q348 829 357 843 Q366 857 370 871 Q374 885 360 900" stroke="#D8C08E" stroke-width="1.84" stroke-opacity="0.67" fill="none" stroke-linecap="round"/><path d="M395 104 Q388 132 387 145 Q386 159 391 173 Q395 186 391 200 Q387 214 387 227 Q387 241 390 255 Q394 269 389 282 Q383 296 387 310 Q390 323 392 337 Q394 351 388 364 Q383 378 387 392 Q391 405 392 419 Q393 433 388 447 Q383 460 388 474 Q393 488 393 501 Q392 515 387 529 Q381 542 388 556 Q395 570 392 583 Q390 597 387 611 Q383 625 390 638 Q397 652 392 666 Q388 679 386 693 Q384 707 390 720 Q396 734 391 748 Q385 762 386 775 Q386 789 391 803 Q396 816 390 830 Q385 844 386 857" stroke="#D8C08E" stroke-width="0.87" stroke-opacity="0.29" fill="none" stroke-linecap="round"/><path d="M340 123 Q334 155 335 171 Q336 187 339 203 Q342 219 339 235 Q335 251 334 267 Q334 283 339 299 Q343 315 341 331 Q338 348 336 364 Q333 380 337 396 Q342 412 342 428 Q342 444 338 460 Q333 476 336 492 Q339 508 341 524 Q344 540 339 556 Q335 572 334 588 Q332 604 338 620 Q344 636 341 652 Q338 668 335 685 Q331 701 336 717 Q340 733 341 749 Q342 765 337 781 Q332 797 334 813 Q336 829 341 845 Q345 861 339 877 Q333 893 333 909 Q333 925 338 941 Q344 957 341 973 Q339 989 335 1005" stroke="#D8C08E" stroke-width="2.14" stroke-opacity="0.35" fill="none" stroke-linecap="round"/><path d="M361 107 Q371 140 367 157 Q363 173 363 190 Q362 206 365 223 Q367 240 364 256 Q361 273 365 289 Q369 306 367 323 Q365 339 363 356 Q361 373 366 389 Q370 406 365 422 Q360 439 362 456 Q365 472 366 489 Q367 506 362 522 Q357 539 363 555 Q369 572 367 589 Q364 605 363 622 Q362 639 366 655 Q371 672 364 688 Q358 705 361 722 Q365 738 366 755 Q367 772 362 788 Q358 805 365 821 Q372 838 367 855 Q363 871 363 888 Q363 905 367 921 Q371 938 365 954 Q359 971 363 988 Q368 1004 367 1021" stroke="#8a6a45" stroke-width="1.02" stroke-opacity="0.46" fill="none" stroke-linecap="round"/><path d="M525 112 Q520 146 528 163 Q536 180 529 196 Q522 213 521 230 Q520 247 529 264 Q537 281 529 298 Q521 315 521 332 Q521 349 529 366 Q537 383 529 400 Q521 417 520 433 Q519 450 529 467 Q539 484 529 501 Q519 518 520 535 Q522 552 531 569 Q540 586 528 603 Q517 620 520 637 Q524 654 532 670 Q540 687 528 704 Q516 721 520 738 Q523 755 531 772 Q538 789 526 806 Q515 823 520 840 Q525 857 531 874 Q538 890 525 907 Q513 924 521 941 Q529 958 533 975 Q538 992 524 1009 Q510 1026 521 1043" stroke="#8a6a45" stroke-width="2.06" stroke-opacity="0.40" fill="none" stroke-linecap="round"/><path d="M403 104 Q417 135 418 150 Q419 166 411 181 Q403 197 412 212 Q421 227 416 243 Q412 258 408 274 Q404 289 415 305 Q426 320 417 336 Q409 351 408 366 Q407 382 416 397 Q425 413 414 428 Q404 444 408 459 Q413 475 419 490 Q425 505 413 521 Q401 536 411 552 Q420 567 420 583 Q419 598 409 614 Q399 629 412 644 Q425 660 419 675 Q413 691 407 706 Q401 722 414 737 Q428 753 417 768 Q406 783 406 799 Q406 814 418 830 Q430 845 415 861 Q399 876 407 892 Q414 907 421 922 Q427 938 412 953" stroke="#D8C08E" stroke-width="1.99" stroke-opacity="0.27" fill="none" stroke-linecap="round"/><path d="M350 113 Q340 143 347 158 Q355 173 352 188 Q349 203 345 218 Q341 232 347 247 Q353 262 353 277 Q353 292 347 307 Q340 322 346 337 Q351 351 353 366 Q355 381 348 396 Q340 411 344 426 Q347 441 352 455 Q357 470 349 485 Q341 500 343 515 Q346 530 352 545 Q358 560 350 574 Q342 589 343 604 Q345 619 351 634 Q357 649 351 664 Q345 679 343 693 Q342 708 350 723 Q358 738 353 753 Q348 768 343 783 Q338 797 347 812 Q357 827 353 842 Q349 857 343 872 Q337 887 346 902 Q355 916 354 931" stroke="#8a6a45" stroke-width="2.20" stroke-opacity="0.77" fill="none" stroke-linecap="round"/><path d="M476 82 Q471 114 476 130 Q482 146 475 162 Q469 179 473 195 Q476 211 476 227 Q476 243 472 259 Q469 276 475 292 Q481 308 475 324 Q469 340 472 356 Q476 373 477 389 Q477 405 473 421 Q468 437 475 453 Q482 470 475 486 Q467 502 473 518 Q478 534 478 550 Q477 566 473 583 Q468 599 475 615 Q481 631 475 647 Q469 663 473 680 Q476 696 477 712 Q479 728 473 744 Q467 760 475 777 Q483 793 475 809 Q467 825 472 841 Q476 857 477 873 Q478 890 472 906 Q467 922 475 938 Q482 954 475 970" stroke="#D8C08E" stroke-width="2.07" stroke-opacity="0.49" fill="none" stroke-linecap="round"/><path d="M273 110 Q290 137 283 150 Q276 164 275 177 Q273 191 282 204 Q291 217 283 231 Q275 244 275 258 Q276 271 283 285 Q291 298 281 311 Q272 325 275 338 Q277 352 284 365 Q291 378 282 392 Q272 405 275 419 Q278 432 285 446 Q291 459 281 472 Q270 486 275 499 Q280 513 285 526 Q290 540 279 553 Q267 566 275 580 Q282 593 287 607 Q291 620 279 633 Q267 647 277 660 Q287 674 288 687 Q290 701 278 714 Q266 727 277 741 Q287 754 287 768 Q287 781 277 794 Q266 808 279 821 Q292 835 288 848" stroke="#8a6a45" stroke-width="0.67" stroke-opacity="0.78" fill="none" stroke-linecap="round"/><path d="M465 87 Q461 116 468 130 Q475 145 473 159 Q471 174 464 188 Q457 203 464 217 Q471 232 473 246 Q476 261 468 275 Q460 290 462 304 Q464 319 472 333 Q479 347 472 362 Q464 376 461 391 Q459 405 468 420 Q478 434 474 449 Q471 463 463 478 Q455 492 464 507 Q472 521 476 536 Q480 550 469 565 Q458 579 460 594 Q463 608 473 623 Q483 637 473 652 Q464 666 461 681 Q458 695 469 710 Q479 724 476 738 Q473 753 464 767 Q455 782 463 796 Q472 811 475 825 Q479 840 467 854 Q455 869 459 883" stroke="#D8C08E" stroke-width="1.28" stroke-opacity="0.45" fill="none" stroke-linecap="round"/><path d="M573 112 Q581 139 581 152 Q580 165 576 179 Q572 192 574 205 Q577 218 581 232 Q584 245 579 258 Q573 272 573 285 Q573 298 578 311 Q584 325 580 338 Q577 351 573 364 Q569 378 577 391 Q584 404 582 417 Q581 431 575 444 Q568 457 573 470 Q578 484 581 497 Q585 510 578 523 Q572 537 573 550 Q575 563 580 576 Q585 590 580 603 Q575 616 573 630 Q571 643 578 656 Q585 669 583 683 Q580 696 575 709 Q569 722 575 736 Q580 749 582 762 Q585 775 576 789 Q568 802 572 815 Q576 828 581 842" stroke="#D8C08E" stroke-width="1.79" stroke-opacity="0.63" fill="none" stroke-linecap="round"/><path d="M176 118 Q191 150 190 167 Q190 183 182 200 Q175 216 178 232 Q180 249 187 265 Q193 281 188 298 Q183 314 178 330 Q173 347 181 363 Q188 379 191 396 Q193 412 183 428 Q173 445 176 461 Q178 478 187 494 Q197 510 190 527 Q184 543 178 559 Q172 576 179 592 Q187 608 191 625 Q196 641 186 657 Q176 674 176 690 Q175 706 186 723 Q197 739 192 756 Q188 772 179 788 Q170 805 177 821 Q184 837 190 854 Q196 870 187 886 Q178 903 175 919 Q172 935 184 952 Q196 968 193 984 Q191 1001 180 1017" stroke="#D8C08E" stroke-width="0.62" stroke-opacity="0.75" fill="none" stroke-linecap="round"/><path d="M248 86 Q252 118 246 134 Q239 150 244 166 Q248 182 250 198 Q253 214 246 230 Q239 246 243 262 Q247 277 250 293 Q252 309 245 325 Q239 341 242 357 Q245 373 249 389 Q253 405 246 421 Q240 437 243 453 Q246 469 250 485 Q255 501 248 517 Q241 533 242 549 Q243 565 249 581 Q255 597 247 613 Q240 629 241 645 Q243 661 249 677 Q255 693 248 709 Q241 725 240 741 Q240 757 249 773 Q258 789 251 805 Q243 821 242 837 Q240 853 249 869 Q257 885 251 901 Q244 917 240 933 Q237 949 247 965" stroke="#D8C08E" stroke-width="1.73" stroke-opacity="0.83" fill="none" stroke-linecap="round"/><path d="M382 82 Q388 108 390 121 Q392 134 388 147 Q383 160 386 172 Q388 185 391 198 Q393 211 388 224 Q383 237 385 249 Q387 262 390 275 Q393 288 388 301 Q384 314 385 326 Q387 339 390 352 Q392 365 387 378 Q381 391 385 403 Q388 416 390 429 Q392 442 387 455 Q383 468 385 480 Q388 493 391 506 Q393 519 388 532 Q382 545 385 558 Q387 570 390 583 Q393 596 388 609 Q383 622 384 635 Q385 647 390 660 Q394 673 388 686 Q383 699 384 712 Q386 724 390 737 Q394 750 388 763 Q382 776 384 789" stroke="#8a6a45" stroke-width="1.12" stroke-opacity="0.62" fill="none" stroke-linecap="round"/><path d="M423 101 Q416 133 425 149 Q434 165 425 180 Q415 196 420 212 Q425 228 427 244 Q429 260 421 275 Q413 291 423 307 Q433 323 426 339 Q419 355 421 370 Q423 386 427 402 Q431 418 422 434 Q413 449 422 465 Q431 481 427 497 Q423 513 419 529 Q416 544 426 560 Q436 576 425 592 Q413 608 420 624 Q427 639 428 655 Q430 671 421 687 Q412 703 425 719 Q438 734 427 750 Q417 766 419 782 Q421 798 428 814 Q435 829 421 845 Q408 861 420 877 Q433 893 427 909 Q422 924 418 940 Q413 956 426 972" stroke="#D8C08E" stroke-width="0.92" stroke-opacity="0.78" fill="none" stroke-linecap="round"/><path d="M324 106 Q317 136 316 151 Q314 166 319 181 Q323 196 320 211 Q318 226 316 241 Q314 256 320 271 Q325 286 321 301 Q317 316 315 331 Q313 346 319 361 Q325 377 322 392 Q318 407 316 422 Q314 437 319 452 Q324 467 322 482 Q321 497 316 512 Q311 527 317 542 Q323 557 323 572 Q322 587 317 602 Q312 617 318 632 Q323 647 324 662 Q324 677 318 692 Q313 707 317 722 Q321 737 322 752 Q323 767 318 782 Q312 797 316 812 Q320 827 322 842 Q325 858 319 873 Q312 888 316 903 Q320 918 324 933" stroke="#8a6a45" stroke-width="2.16" stroke-opacity="0.31" fill="none" stroke-linecap="round"/><path d="M577 100 Q559 131 564 147 Q569 163 572 179 Q576 194 566 210 Q556 226 565 241 Q575 257 573 273 Q570 288 564 304 Q558 320 569 336 Q580 351 571 367 Q563 383 564 398 Q564 414 571 430 Q578 446 568 461 Q557 477 564 493 Q572 508 573 524 Q575 540 565 555 Q555 571 567 587 Q580 603 573 618 Q566 634 563 650 Q560 665 571 681 Q582 697 569 712 Q557 728 563 744 Q569 760 574 775 Q579 791 566 807 Q553 822 565 838 Q578 854 575 870 Q571 885 562 901 Q554 917 569 932 Q584 948 572 964" stroke="#D8C08E" stroke-width="1.95" stroke-opacity="0.36" fill="none" stroke-linecap="round"/><path d="M520 129 Q511 157 513 171 Q515 185 518 199 Q521 213 516 227 Q512 241 514 255 Q516 269 519 283 Q522 297 517 311 Q513 325 514 339 Q516 353 519 367 Q521 381 516 395 Q511 409 514 423 Q517 437 520 451 Q523 465 516 479 Q509 493 513 507 Q517 521 519 536 Q522 550 516 564 Q511 578 513 592 Q516 606 519 620 Q523 634 516 648 Q508 662 513 676 Q518 690 520 704 Q523 718 516 732 Q510 746 514 760 Q518 774 520 788 Q523 802 516 816 Q510 830 514 844 Q518 858 520 872 Q523 886 515 900" stroke="#D8C08E" stroke-width="2.09" stroke-opacity="0.35" fill="none" stroke-linecap="round"/><path d="M187 118 Q202 150 198 165 Q195 181 188 196 Q181 212 186 227 Q192 243 197 259 Q201 274 194 290 Q187 305 185 321 Q183 337 191 352 Q198 368 199 383 Q200 399 191 414 Q181 430 185 446 Q189 461 197 477 Q204 492 198 508 Q193 524 186 539 Q179 555 188 570 Q196 586 200 601 Q204 617 194 633 Q185 648 183 664 Q182 679 193 695 Q203 711 200 726 Q196 742 188 757 Q179 773 185 788 Q190 804 198 820 Q206 835 197 851 Q188 866 183 882 Q178 898 189 913 Q201 929 202 944 Q204 960 191 976" stroke="#8a6a45" stroke-width="1.95" stroke-opacity="0.58" fill="none" stroke-linecap="round"/><path d="M202 102 Q201 134 207 151 Q212 167 210 183 Q208 199 204 215 Q200 232 203 248 Q206 264 209 280 Q213 296 208 313 Q204 329 202 345 Q200 361 206 378 Q211 394 211 410 Q211 426 204 442 Q198 459 201 475 Q205 491 210 507 Q215 523 209 540 Q204 556 201 572 Q198 588 205 605 Q211 621 212 637 Q213 653 206 669 Q199 686 200 702 Q201 718 208 734 Q215 750 211 767 Q208 783 202 799 Q196 815 203 832 Q210 848 213 864 Q217 880 209 896 Q201 913 200 929 Q199 945 207 961 Q216 978 213 994" stroke="#8a6a45" stroke-width="1.61" stroke-opacity="0.67" fill="none" stroke-linecap="round"/><path d="M485 87 Q494 119 500 135 Q506 151 500 167 Q494 183 490 199 Q486 215 492 231 Q499 247 502 263 Q505 280 498 296 Q491 312 490 328 Q488 344 497 360 Q505 376 504 392 Q504 408 495 424 Q486 440 489 456 Q493 472 500 488 Q507 504 503 520 Q499 537 490 553 Q482 569 491 585 Q499 601 505 617 Q511 633 501 649 Q490 665 487 681 Q484 697 494 713 Q504 729 506 745 Q508 761 495 777 Q483 794 485 810 Q487 826 498 842 Q510 858 506 874 Q501 890 491 906 Q480 922 487 938 Q494 954 504 970" stroke="#8a6a45" stroke-width="1.48" stroke-opacity="0.44" fill="none" stroke-linecap="round"/><path d="M607 100 Q607 133 612 150 Q618 166 615 183 Q611 200 606 216 Q602 233 609 250 Q616 266 616 283 Q615 300 609 316 Q603 333 606 350 Q610 366 615 383 Q620 400 613 416 Q605 433 605 449 Q605 466 613 483 Q620 499 615 516 Q611 533 607 549 Q603 566 609 583 Q616 599 617 616 Q618 633 610 649 Q603 666 605 683 Q608 699 615 716 Q622 733 613 749 Q605 766 604 783 Q603 799 612 816 Q620 833 617 849 Q615 866 607 882 Q599 899 606 916 Q614 932 617 949 Q621 966 611 982 Q600 999 604 1016" stroke="#D8C08E" stroke-width="0.68" stroke-opacity="0.51" fill="none" stroke-linecap="round"/><path d="M367 126 Q356 152 356 164 Q356 177 362 190 Q368 203 362 215 Q356 228 356 241 Q357 254 363 267 Q369 279 363 292 Q357 305 356 318 Q355 330 362 343 Q370 356 363 369 Q357 381 356 394 Q356 407 363 420 Q370 432 363 445 Q356 458 355 471 Q353 484 362 496 Q371 509 366 522 Q360 535 357 547 Q354 560 362 573 Q370 586 364 598 Q358 611 355 624 Q352 637 361 650 Q370 662 366 675 Q361 688 356 701 Q351 713 361 726 Q371 739 366 752 Q361 764 356 777 Q351 790 361 803 Q372 815 367 828" stroke="#8a6a45" stroke-width="1.21" stroke-opacity="0.49" fill="none" stroke-linecap="round"/><path d="M549 125 Q556 157 548 174 Q541 190 547 207 Q553 223 554 240 Q554 256 546 272 Q539 289 547 305 Q555 322 556 338 Q556 355 548 371 Q539 388 548 404 Q557 420 555 437 Q552 453 545 470 Q537 486 548 503 Q559 519 556 535 Q552 552 545 568 Q538 585 549 601 Q560 618 554 634 Q548 651 544 667 Q540 683 551 700 Q561 716 554 733 Q548 749 544 766 Q540 782 552 798 Q563 815 554 831 Q544 848 543 864 Q541 881 552 897 Q563 914 552 930 Q540 946 542 963 Q544 979 554 996 Q565 1012 553 1029" stroke="#D8C08E" stroke-width="1.54" stroke-opacity="0.81" fill="none" stroke-linecap="round"/><path d="M204 128 Q194 155 200 169 Q206 183 201 196 Q196 210 197 224 Q198 237 202 251 Q205 265 200 278 Q195 292 199 306 Q204 319 202 333 Q200 347 197 360 Q194 374 201 388 Q208 401 201 415 Q194 429 198 443 Q202 456 202 470 Q203 484 197 497 Q192 511 199 525 Q205 538 201 552 Q198 566 198 579 Q198 593 203 607 Q208 620 200 634 Q193 648 198 661 Q203 675 201 689 Q200 702 196 716 Q192 730 200 743 Q207 757 201 771 Q194 784 197 798 Q200 812 202 825 Q204 839 197 853 Q191 866 200 880" stroke="#D8C08E" stroke-width="1.24" stroke-opacity="0.54" fill="none" stroke-linecap="round"/><path d="M306 102 Q320 136 312 152 Q304 169 308 186 Q313 202 314 219 Q315 236 308 253 Q301 269 310 286 Q318 303 315 319 Q312 336 309 353 Q306 370 313 386 Q320 403 312 420 Q305 437 309 453 Q313 470 315 487 Q317 503 308 520 Q300 537 310 554 Q320 570 316 587 Q313 604 308 620 Q303 637 313 654 Q323 671 313 687 Q303 704 307 721 Q311 737 315 754 Q320 771 310 788 Q300 804 309 821 Q319 838 316 854 Q313 871 307 888 Q300 905 312 921 Q323 938 314 955 Q305 972 307 988 Q309 1005 315 1022" stroke="#8a6a45" stroke-width="1.53" stroke-opacity="0.54" fill="none" stroke-linecap="round"/><rect width="800" height="1000" fill="url(#v)"/>
<g transform="translate(704 904) scale(0.3076923076923077) translate(-20 -20)" opacity="0.9">
<path fill="#D8C08E" d="M34 30H58V33C54 34 53 36 53 40V160C53 164 54 166 58 167V170H34V167C38 166 39 164 39 160V40C39 36 38 34 34 33Z"/>
<path fill="#D8C08E" d="M142 30H166V33C162 34 161 36 161 40V160C161 164 162 166 166 167V170H142V167C146 166 147 164 147 160V40C147 36 146 34 142 33Z"/>
<path fill="#D8C08E" d="M160 60C168 62 172 70 171 80L171 84C172 88 176 92 177 96C176 98 173 99 172 100C173 103 172 105 171 106C173 108 172 111 170 112C170 116 168 120 164 121C162 122 161 126 160 132Z"/>
<g fill="none" stroke="#D8C08E" stroke-linecap="round"><path stroke-width="4" d="M149 72C132 64 116 71 104 83C94 93 80 98 68 92C62 89 62 82 68 80"/><path stroke-width="5" d="M149 90C130 84 114 95 100 105C86 115 70 116 53 108"/><path stroke-width="3.5" d="M149 106C134 104 122 115 112 127C104 137 92 141 82 135C76 131 78 124 85 124"/><path stroke-width="3" d="M149 118C140 130 137 143 145 150"/></g></g>
</svg>