<svg xmlns="http://www.w3.org/2000/svg" viewBox="0 0 800 1000" width="800" height="1000" preserveAspectRatio="xMidYMid slice">
<defs><linearGradient id="g" x1="0" y1="0" x2="0.4" y2="1"><stop offset="0" stop-color="#EFE6D2"/><stop offset="1" stop-color="#E4D6B8"/></linearGradient>
<radialGradient id="v" cx="0.5" cy="0.35" r="0.8"><stop offset="0.5" stop-color="#000" stop-opacity="0"/><stop offset="1" stop-color="#000" stop-opacity="0.18"/></radialGradient></defs>
<rect width="800" height="1000" fill="url(#g)"/><path d="M296 116 Q284 144 283 158 Q282 172 290 186 Q298 201 293 215 Q288 229 284 243 Q280 257 287 271 Q295 285 293 299 Q291 313 285 327 Q280 341 287 355 Q295 369 294 383 Q293 397 285 411 Q277 425 285 439 Q293 453 294 467 Q296 481 286 495 Q277 509 283 523 Q289 537 293 551 Q297 565 287 579 Q278 593 282 607 Q286 621 293 635 Q299 649 290 663 Q281 677 282 691 Q283 705 291 719 Q300 733 291 747 Q283 761 282 775 Q281 790 291 804 Q302 818 294 832 Q286 846 282 860 Q278 874 289 888" stroke="#2B1D14" stroke-width="2.17" stroke-opacity="0.48" fill="none" stroke-linecap="round"/><path d="M279 106 Q287 132 284 144 Q281 157 280 170 Q280 182 284 195 Q288 208 283 221 Q279 233 281 246 Q283 259 285 272 Q288 284 283 297 Q278 310 282 323 Q286 335 286 348 Q286 361 282 373 Q277 386 283 399 Q290 412 286 424 Q283 437 281 450 Q280 463 285 475 Q289 488 284 501 Q279 514 280 526 Q281 539 285 552 Q288 565 283 577 Q278 590 283 603 Q287 615 286 628 Q286 641 280 654 Q275 666 283 679 Q291 692 287 705 Q284 717 281 730 Q278 743 284 756 Q290 768 285 781 Q279 794 280 806" stroke="#2B1D14" stroke-width="1.22" stroke-opacity="0.33" fill="none" stroke-linecap="round"/><path d="M402 99 Q402 125 407 139 Q411 152 408 165 Q404 178 403 191 Q402 205 407 218 Q412 231 408 244 Q403 257 401 270 Q399 284 405 297 Q410 310 408 323 Q406 336 403 350 Q399 363 405 376 Q410 389 407 402 Q404 415 401 429 Q398 442 405 455 Q413 468 410 481 Q407 495 403 508 Q398 521 405 534 Q412 547 410 560 Q407 574 402 587 Q396 600 403 613 Q410 626 409 640 Q409 653 403 666 Q397 679 403 692 Q409 705 410 719 Q410 732 403 745 Q396 758 404 771 Q411 785 411 798 Q410 811 402 824" stroke="#2B1D14" stroke-width="1.90" stroke-opacity="0.49" fill="none" stroke-linecap="round"/><path d="M469 109 Q471 142 463 159 Q456 176 463 192 Q470 209 472 226 Q473 242 464 259 Q456 276 463 292 Q470 309 471 326 Q472 342 463 359 Q454 376 463 392 Q472 409 471 426 Q471 442 462 459 Q454 476 464 492 Q474 509 472 526 Q471 542 462 559 Q454 576 464 592 Q473 609 471 626 Q469 642 460 659 Q452 676 464 692 Q476 709 472 726 Q467 742 459 759 Q451 776 464 792 Q477 809 472 826 Q466 842 459 859 Q452 876 466 892 Q479 909 472 926 Q465 943 458 959 Q452 976 465 993 Q479 1009 472 1026" stroke="#5A3E2B" stroke-width="0.95" stroke-opacity="0.62" fill="none" stroke-linecap="round"/><path d="M393 115 Q401 146 400 161 Q399 176 396 191 Q392 207 395 222 Q397 237 401 252 Q404 268 401 283 Q398 298 395 313 Q392 329 397 344 Q401 359 402 374 Q402 390 398 405 Q394 420 394 435 Q393 451 398 466 Q402 481 401 496 Q401 512 395 527 Q390 542 393 557 Q396 573 400 588 Q404 603 400 618 Q397 634 394 649 Q392 664 396 679 Q400 695 402 710 Q405 725 399 740 Q394 756 393 771 Q393 786 399 801 Q405 817 403 832 Q401 847 395 862 Q390 878 392 893 Q395 908 401 923 Q407 939 402 954" stroke="#5A3E2B" stroke-width="1.91" stroke-opacity="0.27" fill="none" stroke-linecap="round"/><path d="M196 112 Q190 145 198 162 Q206 179 198 195 Q189 212 193 229 Q197 245 201 262 Q204 278 195 295 Q187 312 195 328 Q204 345 199 362 Q194 378 192 395 Q190 411 199 428 Q208 445 198 461 Q188 478 193 494 Q199 511 201 528 Q202 544 193 561 Q185 578 195 594 Q206 611 199 627 Q193 644 193 661 Q193 677 201 694 Q208 711 197 727 Q186 744 194 760 Q202 777 201 794 Q200 810 193 827 Q185 843 197 860 Q209 877 199 893 Q190 910 192 927 Q194 943 202 960 Q209 976 196 993 Q183 1010 194 1026" stroke="#2B1D14" stroke-width="1.97" stroke-opacity="0.59" fill="none" stroke-linecap="round"/><path d="M398 88 Q397 118 392 132 Q387 147 392 162 Q396 177 397 192 Q399 207 394 222 Q389 237 392 252 Q395 266 396 281 Q398 296 393 311 Q389 326 391 341 Q394 356 397 371 Q400 386 394 400 Q388 415 390 430 Q392 445 396 460 Q400 475 394 490 Q388 505 390 520 Q392 534 397 549 Q403 564 396 579 Q390 594 389 609 Q389 624 395 639 Q401 654 397 669 Q393 683 391 698 Q388 713 395 728 Q401 743 397 758 Q394 773 390 788 Q386 803 393 817 Q401 832 398 847 Q395 862 390 877 Q385 892 392 907" stroke="#2B1D14" stroke-width="0.96" stroke-opacity="0.84" fill="none" stroke-linecap="round"/><path d="M418 119 Q421 153 414 170 Q408 187 414 204 Q420 221 421 238 Q423 255 415 272 Q407 289 413 306 Q420 322 421 339 Q422 356 415 373 Q409 390 415 407 Q422 424 421 441 Q421 458 414 475 Q406 492 414 509 Q421 526 421 542 Q422 559 414 576 Q406 593 415 610 Q423 627 421 644 Q419 661 412 678 Q405 695 414 712 Q424 729 422 746 Q420 762 412 779 Q404 796 414 813 Q424 830 421 847 Q418 864 411 881 Q404 898 415 915 Q427 932 423 949 Q419 966 413 982 Q407 999 417 1016 Q427 1033 421 1050" stroke="#2B1D14" stroke-width="1.77" stroke-opacity="0.29" fill="none" stroke-linecap="round"/><path d="M504 102 Q510 131 504 146 Q498 161 502 176 Q505 191 508 206 Q510 220 503 235 Q496 250 503 265 Q510 280 508 295 Q507 309 502 324 Q497 339 504 354 Q511 369 506 384 Q501 399 501 413 Q500 428 506 443 Q512 458 506 473 Q500 488 502 502 Q503 517 507 532 Q511 547 504 562 Q497 577 501 591 Q506 606 507 621 Q508 636 502 651 Q496 666 504 681 Q511 695 508 710 Q504 725 500 740 Q495 755 505 770 Q514 784 507 799 Q500 814 500 829 Q501 844 507 859 Q513 873 504 888 Q494 903 500 918" stroke="#2B1D14" stroke-width="1.17" stroke-opacity="0.54" fill="none" stroke-linecap="round"/><path d="M600 123 Q608 154 604 169 Q601 185 599 201 Q597 216 601 232 Q604 247 604 263 Q604 279 600 294 Q596 310 597 326 Q598 341 602 357 Q607 372 603 388 Q600 404 598 419 Q595 435 599 450 Q603 466 605 482 Q607 497 601 513 Q595 528 596 544 Q598 560 604 575 Q610 591 606 606 Q602 622 598 638 Q593 653 597 669 Q601 684 605 700 Q609 716 603 731 Q597 747 596 762 Q595 778 602 794 Q610 809 607 825 Q605 840 599 856 Q593 872 597 887 Q601 903 606 919 Q611 934 605 950 Q599 965 595 981" stroke="#5A3E2B" stroke-width="1.34" stroke-opacity="0.42" fill="none" stroke-linecap="round"/><path d="M250 86 Q250 113 254 126 Q258 140 257 153 Q256 166 253 180 Q249 193 253 206 Q256 220 258 233 Q261 246 255 259 Q249 273 250 286 Q251 299 255 313 Q259 326 256 339 Q253 353 251 366 Q248 379 253 393 Q257 406 259 419 Q260 433 254 446 Q249 459 250 472 Q251 486 257 499 Q263 512 258 526 Q253 539 250 552 Q247 566 253 579 Q259 592 259 606 Q260 619 252 632 Q245 645 250 659 Q255 672 259 685 Q262 699 256 712 Q250 725 249 739 Q247 752 254 765 Q261 779 259 792 Q257 805 251 818" stroke="#5A3E2B" stroke-width="1.52" stroke-opacity="0.82" fill="none" stroke-linecap="round"/><path d="M265 119 Q255 146 257 159 Q260 173 260 186 Q261 200 256 213 Q251 226 257 240 Q263 253 259 267 Q255 280 255 294 Q255 307 260 320 Q264 334 258 347 Q252 361 258 374 Q263 388 262 401 Q262 415 257 428 Q253 441 259 455 Q265 468 260 482 Q254 495 255 509 Q257 522 260 535 Q263 549 256 562 Q249 576 257 589 Q265 603 262 616 Q258 629 255 643 Q251 656 260 670 Q268 683 259 697 Q251 710 256 724 Q261 737 262 750 Q264 764 256 777 Q249 791 258 804 Q266 818 261 831 Q255 844 255 858" stroke="#2B1D14" stroke-width="1.64" stroke-opacity="0.48" fill="none" stroke-linecap="round"/><path d="M471 84 Q455 112 456 125 Q457 139 464 153 Q471 166 464 180 Q456 193 456 207 Q455 221 464 234 Q473 248 467 262 Q462 275 456 289 Q451 302 461 316 Q470 330 469 343 Q467 357 458 371 Q449 384 456 398 Q464 411 468 425 Q472 439 461 452 Q450 466 455 479 Q460 493 467 507 Q473 520 464 534 Q455 548 454 561 Q453 575 465 588 Q476 602 468 616 Q459 629 453 643 Q448 657 461 670 Q475 684 470 697 Q466 711 455 725 Q445 738 457 752 Q469 766 470 779 Q471 793 459 806 Q447 820 455 834" stroke="#2B1D14" stroke-width="1.99" stroke-opacity="0.71" fill="none" stroke-linecap="round"/><path d="M510 81 Q517 109 511 123 Q506 136 503 150 Q501 164 508 178 Q515 192 513 205 Q511 219 506 233 Q501 247 505 261 Q509 275 513 288 Q517 302 511 316 Q505 330 503 344 Q502 357 509 371 Q516 385 515 399 Q515 413 508 427 Q501 440 504 454 Q506 468 512 482 Q518 496 512 509 Q506 523 503 537 Q499 551 506 565 Q514 579 515 592 Q517 606 508 620 Q498 634 501 648 Q503 661 512 675 Q520 689 514 703 Q509 717 502 731 Q496 744 505 758 Q513 772 515 786 Q517 800 508 814 Q498 827 500 841" stroke="#2B1D14" stroke-width="0.89" stroke-opacity="0.84" fill="none" stroke-linecap="round"/><path d="M338 97 Q344 124 345 138 Q347 152 341 165 Q335 179 343 193 Q351 207 346 220 Q342 234 340 248 Q338 261 345 275 Q352 289 343 302 Q335 316 340 330 Q346 343 347 357 Q349 371 342 384 Q335 398 343 412 Q351 425 345 439 Q340 453 339 466 Q339 480 347 494 Q356 508 344 521 Q333 535 340 549 Q346 562 348 576 Q349 590 341 603 Q333 617 343 631 Q353 644 346 658 Q339 672 338 685 Q337 699 347 713 Q357 726 344 740 Q332 754 340 768 Q348 781 348 795 Q348 809 339 822 Q329 836 343 850" stroke="#2B1D14" stroke-width="1.67" stroke-opacity="0.49" fill="none" stroke-linecap="round"/><path d="M368 111 Q358 139 357 153 Q355 167 361 181 Q366 195 362 208 Q358 222 355 236 Q353 250 360 264 Q367 278 364 292 Q360 306 356 320 Q353 334 360 348 Q366 362 363 376 Q360 390 356 404 Q351 418 359 432 Q368 446 363 460 Q359 474 356 488 Q352 502 360 516 Q368 530 363 544 Q358 558 355 572 Q352 586 361 600 Q369 614 364 627 Q359 641 355 655 Q351 669 360 683 Q370 697 365 711 Q359 725 355 739 Q350 753 360 767 Q370 781 365 795 Q360 809 354 823 Q349 837 359 851 Q370 865 365 879" stroke="#5A3E2B" stroke-width="2.11" stroke-opacity="0.38" fill="none" stroke-linecap="round"/><path d="M353 121 Q357 149 352 164 Q347 178 349 192 Q352 207 355 221 Q359 235 352 250 Q346 264 348 278 Q351 293 354 307 Q357 321 351 336 Q346 350 348 364 Q349 379 354 393 Q359 407 353 422 Q347 436 348 450 Q348 465 354 479 Q359 493 353 508 Q347 522 348 536 Q349 551 354 565 Q360 579 354 594 Q348 608 348 622 Q348 637 355 651 Q361 665 356 680 Q350 694 349 708 Q347 723 353 737 Q359 751 354 766 Q349 780 347 794 Q344 809 353 823 Q361 837 357 852 Q353 866 349 880 Q346 895 352 909" stroke="#2B1D14" stroke-width="2.20" stroke-opacity="0.29" fill="none" stroke-linecap="round"/><path d="M425 115 Q422 143 426 157 Q429 172 430 186 Q430 200 425 215 Q421 229 424 243 Q426 257 428 272 Q430 286 426 300 Q422 315 422 329 Q423 343 426 357 Q430 372 428 386 Q427 400 423 415 Q420 429 425 443 Q430 457 429 472 Q428 486 423 500 Q418 515 423 529 Q427 543 430 557 Q432 572 427 586 Q421 600 422 615 Q423 629 427 643 Q431 657 429 672 Q426 686 422 700 Q418 715 425 729 Q431 743 430 757 Q430 772 425 786 Q420 800 423 815 Q426 829 429 843 Q432 857 427 872 Q422 886 422 900" stroke="#2B1D14" stroke-width="2.19" stroke-opacity="0.75" fill="none" stroke-linecap="round"/><path d="M221 91 Q235 121 234 136 Q232 150 226 165 Q221 180 229 195 Q237 210 234 224 Q231 239 227 254 Q222 269 230 284 Q237 298 232 313 Q227 328 224 343 Q222 358 231 373 Q241 387 233 402 Q224 417 224 432 Q224 447 233 461 Q241 476 233 491 Q225 506 224 521 Q223 535 233 550 Q242 565 231 580 Q221 595 223 609 Q225 624 233 639 Q241 654 229 669 Q218 683 223 698 Q229 713 235 728 Q242 743 230 758 Q218 772 224 787 Q231 802 236 817 Q241 832 228 846 Q215 861 223 876 Q232 891 235 906" stroke="#5A3E2B" stroke-width="0.88" stroke-opacity="0.61" fill="none" stroke-linecap="round"/><path d="M557 104 Q554 134 550 148 Q546 163 553 178 Q560 193 554 207 Q548 222 549 237 Q549 251 555 266 Q561 281 552 295 Q543 310 549 325 Q555 340 556 354 Q557 369 550 384 Q544 398 553 413 Q561 428 555 442 Q550 457 548 472 Q546 486 555 501 Q563 516 554 531 Q545 545 548 560 Q551 575 555 589 Q559 604 551 619 Q542 633 550 648 Q558 663 557 678 Q556 692 549 707 Q542 722 552 736 Q562 751 554 766 Q546 780 546 795 Q546 810 555 824 Q565 839 553 854 Q542 869 549 883 Q556 898 559 913" stroke="#5A3E2B" stroke-width="1.71" stroke-opacity="0.28" fill="none" stroke-linecap="round"/><path d="M356 122 Q351 152 352 168 Q353 183 356 198 Q358 214 355 229 Q352 244 351 259 Q350 275 354 290 Q358 305 357 321 Q357 336 354 351 Q351 367 352 382 Q354 397 357 412 Q361 428 356 443 Q351 458 350 474 Q350 489 354 504 Q359 520 357 535 Q356 550 352 566 Q349 581 353 596 Q356 611 358 627 Q359 642 355 657 Q352 673 351 688 Q351 703 356 719 Q361 734 359 749 Q357 765 353 780 Q349 795 353 810 Q358 826 359 841 Q359 856 354 872 Q349 887 351 902 Q353 918 357 933 Q361 948 358 963" stroke="#5A3E2B" stroke-width="1.33" stroke-opacity="0.29" fill="none" stroke-linecap="round"/><path d="M360 87 Q368 115 360 130 Q353 144 360 158 Q367 172 365 186 Q364 201 358 215 Q353 229 361 243 Q369 257 362 272 Q355 286 358 300 Q361 314 365 328 Q370 343 360 357 Q351 371 360 385 Q369 399 365 414 Q362 428 358 442 Q354 456 364 471 Q374 485 364 499 Q355 513 358 527 Q361 542 365 556 Q368 570 359 584 Q350 598 360 613 Q370 627 366 641 Q361 655 358 669 Q355 684 364 698 Q374 712 363 726 Q352 740 357 755 Q362 769 366 783 Q369 797 359 811 Q349 826 361 840 Q373 854 366 868" stroke="#5A3E2B" stroke-width="0.92" stroke-opacity="0.30" fill="none" stroke-linecap="round"/><path d="M490 130 Q501 158 503 172 Q504 186 498 200 Q492 213 492 227 Q493 241 498 255 Q503 269 502 283 Q500 297 496 311 Q492 325 494 339 Q497 353 502 367 Q506 381 501 395 Q496 409 494 423 Q491 436 498 450 Q504 464 503 478 Q502 492 497 506 Q491 520 494 534 Q497 548 502 562 Q507 576 502 590 Q497 604 494 618 Q490 632 495 645 Q500 659 502 673 Q504 687 497 701 Q490 715 491 729 Q493 743 500 757 Q507 771 504 785 Q500 799 494 813 Q488 827 493 841 Q498 855 503 868 Q508 882 500 896" stroke="#5A3E2B" stroke-width="1.41" stroke-opacity="0.55" fill="none" stroke-linecap="round"/><path d="M401 121 Q402 149 407 164 Q412 178 409 192 Q405 206 402 220 Q398 235 404 249 Q410 263 409 277 Q409 291 404 306 Q398 320 402 334 Q405 348 408 362 Q411 377 407 391 Q403 405 401 419 Q399 433 405 448 Q412 462 410 476 Q408 490 403 504 Q398 519 402 533 Q406 547 409 561 Q412 575 406 590 Q399 604 401 618 Q403 632 409 647 Q415 661 410 675 Q405 689 401 703 Q398 718 405 732 Q412 746 411 760 Q409 774 403 789 Q396 803 401 817 Q406 831 410 845 Q413 860 407 874 Q402 888 400 902" stroke="#2B1D14" stroke-width="1.20" stroke-opacity="0.54" fill="none" stroke-linecap="round"/><path d="M313 112 Q304 144 311 160 Q318 176 314 192 Q309 208 308 224 Q306 240 314 256 Q321 272 313 288 Q306 304 310 320 Q314 336 316 352 Q318 368 311 384 Q303 400 311 416 Q318 432 314 448 Q310 464 307 480 Q305 496 314 512 Q322 528 313 544 Q304 560 308 575 Q311 591 315 607 Q319 623 310 639 Q302 655 311 671 Q320 687 315 703 Q311 719 307 735 Q302 751 312 767 Q321 783 313 799 Q305 815 307 831 Q310 847 315 863 Q320 879 311 895 Q301 911 310 927 Q320 943 317 959 Q315 975 308 991" stroke="#5A3E2B" stroke-width="1.49" stroke-opacity="0.72" fill="none" stroke-linecap="round"/><path d="M385 80 Q390 109 392 123 Q395 137 391 152 Q388 166 386 180 Q384 195 388 209 Q392 223 393 238 Q394 252 389 266 Q383 281 385 295 Q386 309 392 323 Q397 338 394 352 Q391 366 387 381 Q383 395 387 409 Q390 424 393 438 Q396 452 390 467 Q384 481 383 495 Q383 509 389 524 Q395 538 393 552 Q392 567 387 581 Q382 595 384 610 Q387 624 392 638 Q397 653 392 667 Q387 681 383 695 Q380 710 387 724 Q395 738 395 753 Q396 767 389 781 Q382 796 384 810 Q385 824 391 839 Q397 853 393 867" stroke="#2B1D14" stroke-width="0.77" stroke-opacity="0.71" fill="none" stroke-linecap="round"/><path d="M292 87 Q297 117 300 132 Q303 147 296 162 Q289 178 294 193 Q300 208 300 223 Q301 238 294 253 Q287 268 296 283 Q306 298 300 313 Q294 329 293 344 Q291 359 299 374 Q308 389 299 404 Q289 419 294 434 Q298 449 300 464 Q303 480 295 495 Q287 510 295 525 Q303 540 300 555 Q297 570 293 585 Q289 600 298 615 Q308 630 300 646 Q293 661 293 676 Q294 691 300 706 Q306 721 297 736 Q287 751 293 766 Q299 781 301 797 Q303 812 293 827 Q284 842 294 857 Q305 872 301 887 Q297 902 293 917" stroke="#5A3E2B" stroke-width="1.42" stroke-opacity="0.53" fill="none" stroke-linecap="round"/><path d="M303 126 Q307 158 298 174 Q289 190 293 206 Q298 222 304 238 Q311 254 302 270 Q292 286 292 303 Q292 319 301 335 Q310 351 304 367 Q298 383 293 399 Q288 415 298 431 Q308 447 306 463 Q304 479 295 495 Q285 511 294 527 Q303 543 307 559 Q312 575 301 591 Q290 607 292 623 Q294 639 304 655 Q314 671 304 688 Q294 704 291 720 Q289 736 300 752 Q311 768 307 784 Q304 800 294 816 Q284 832 295 848 Q306 864 309 880 Q311 896 298 912 Q285 928 291 944 Q297 960 305 976 Q314 992 303 1008" stroke="#2B1D14" stroke-width="1.27" stroke-opacity="0.76" fill="none" stroke-linecap="round"/><path d="M308 91 Q313 118 313 131 Q314 144 311 157 Q308 171 310 184 Q311 197 313 210 Q316 224 312 237 Q308 250 309 263 Q310 276 314 290 Q317 303 312 316 Q307 329 308 343 Q310 356 313 369 Q316 382 312 395 Q308 409 309 422 Q310 435 313 448 Q317 462 312 475 Q308 488 308 501 Q309 515 313 528 Q318 541 313 554 Q308 567 308 581 Q309 594 314 607 Q319 620 314 634 Q308 647 308 660 Q307 673 313 686 Q320 700 315 713 Q310 726 308 739 Q305 753 313 766 Q320 779 316 792 Q312 805 309 819" stroke="#2B1D14" stroke-width="1.52" stroke-opacity="0.27" fill="none" stroke-linecap="round"/><path d="M244 104 Q250 138 243 154 Q237 171 244 188 Q251 205 246 222 Q241 238 242 255 Q242 272 246 289 Q250 305 244 322 Q237 339 244 356 Q251 373 246 389 Q240 406 242 423 Q244 440 248 456 Q251 473 243 490 Q235 507 245 524 Q254 540 247 557 Q240 574 243 591 Q245 607 248 624 Q251 641 243 658 Q234 675 244 691 Q254 708 247 725 Q239 742 242 758 Q245 775 248 792 Q251 809 243 826 Q234 842 245 859 Q256 876 247 893 Q238 910 242 926 Q246 943 250 960 Q253 977 243 993 Q234 1010 244 1027" stroke="#2B1D14" stroke-width="0.63" stroke-opacity="0.56" fill="none" stroke-linecap="round"/><path d="M289 125 Q298 156 304 171 Q311 186 301 202 Q292 217 293 233 Q295 248 303 264 Q310 279 304 295 Q297 310 294 326 Q291 341 300 357 Q310 372 305 388 Q300 403 295 418 Q289 434 298 449 Q307 465 307 480 Q306 496 297 511 Q287 527 295 542 Q304 558 308 573 Q311 589 300 604 Q288 620 293 635 Q298 650 305 666 Q313 681 301 697 Q289 712 290 728 Q292 743 303 759 Q313 774 303 790 Q293 805 292 821 Q290 836 303 852 Q315 867 307 882 Q299 898 292 913 Q285 929 299 944 Q312 960 310 975" stroke="#5A3E2B" stroke-width="2.13" stroke-opacity="0.80" fill="none" stroke-linecap="round"/><path d="M207 91 Q214 122 214 138 Q215 154 211 169 Q206 185 212 201 Q218 216 214 232 Q210 248 209 263 Q207 279 213 295 Q220 310 213 326 Q207 342 209 357 Q211 373 214 389 Q217 404 211 420 Q204 436 211 451 Q217 467 216 483 Q216 498 210 514 Q205 530 213 546 Q220 561 215 577 Q210 593 209 608 Q207 624 214 640 Q221 655 214 671 Q206 687 209 702 Q212 718 215 734 Q219 749 212 765 Q205 781 211 796 Q217 812 216 828 Q214 843 208 859 Q202 875 211 890 Q220 906 215 922 Q210 937 208 953" stroke="#2B1D14" stroke-width="0.76" stroke-opacity="0.67" fill="none" stroke-linecap="round"/><path d="M541 100 Q525 127 525 141 Q525 155 534 168 Q543 182 535 196 Q528 210 525 223 Q522 237 531 251 Q541 265 536 278 Q530 292 525 306 Q519 320 530 333 Q541 347 537 361 Q533 375 526 388 Q520 402 530 416 Q540 430 538 443 Q536 457 526 471 Q517 485 527 498 Q537 512 538 526 Q540 540 528 553 Q516 567 525 581 Q534 595 538 608 Q542 622 531 636 Q519 650 525 663 Q530 677 538 691 Q545 705 533 718 Q520 732 523 746 Q526 760 536 773 Q546 787 533 801 Q520 815 522 828 Q524 842 536 856" stroke="#5A3E2B" stroke-width="2.00" stroke-opacity="0.52" fill="none" stroke-linecap="round"/><path d="M606 84 Q609 116 611 132 Q614 148 609 164 Q604 180 609 196 Q614 212 610 228 Q607 245 607 261 Q607 277 611 293 Q615 309 608 325 Q601 341 608 357 Q615 373 611 389 Q607 405 607 421 Q607 437 611 453 Q615 469 609 485 Q603 501 609 517 Q616 533 612 549 Q608 565 606 581 Q605 597 611 613 Q618 629 609 645 Q600 662 607 678 Q615 694 611 710 Q608 726 606 742 Q604 758 612 774 Q619 790 609 806 Q599 822 607 838 Q615 854 613 870 Q611 886 607 902 Q603 918 612 934 Q620 950 611 966" stroke="#2B1D14" stroke-width="1.43" stroke-opacity="0.48" fill="none" stroke-linecap="round"/><path d="M528 123 Q526 156 523 172 Q519 188 523 205 Q527 221 529 237 Q531 254 526 270 Q520 286 520 303 Q519 319 525 335 Q531 352 528 368 Q525 384 522 401 Q518 417 522 433 Q526 450 529 466 Q532 482 526 499 Q520 515 519 531 Q519 548 526 564 Q533 580 529 596 Q525 613 521 629 Q517 645 522 662 Q527 678 529 694 Q531 711 525 727 Q519 743 520 760 Q520 776 527 792 Q533 809 529 825 Q524 841 520 858 Q516 874 522 890 Q527 907 529 923 Q531 939 524 956 Q517 972 519 988 Q522 1005 527 1021" stroke="#2B1D14" stroke-width="1.94" stroke-opacity="0.41" fill="none" stroke-linecap="round"/><path d="M182 82 Q191 111 190 125 Q188 139 185 153 Q182 167 189 182 Q195 196 188 210 Q181 224 185 238 Q190 252 191 267 Q193 281 185 295 Q178 309 186 323 Q195 338 188 352 Q182 366 184 380 Q186 394 191 408 Q195 423 186 437 Q177 451 186 465 Q195 479 191 493 Q187 508 184 522 Q181 536 189 550 Q196 564 186 579 Q176 593 186 607 Q195 621 192 635 Q189 649 185 664 Q181 678 190 692 Q199 706 188 720 Q178 734 184 749 Q190 763 192 777 Q194 791 185 805 Q177 819 188 834 Q199 848 189 862" stroke="#2B1D14" stroke-width="1.78" stroke-opacity="0.52" fill="none" stroke-linecap="round"/><path d="M340 86 Q331 118 328 134 Q324 150 331 166 Q339 182 336 198 Q333 214 328 231 Q322 247 330 263 Q338 279 339 295 Q340 311 331 327 Q322 343 326 359 Q331 375 337 391 Q342 408 334 424 Q326 440 326 456 Q326 472 334 488 Q343 504 336 520 Q329 536 326 552 Q323 569 332 585 Q342 601 339 617 Q337 633 328 649 Q320 665 329 681 Q338 697 340 713 Q342 729 332 746 Q321 762 326 778 Q330 794 337 810 Q345 826 335 842 Q325 858 324 874 Q323 890 334 907 Q345 923 338 939 Q330 955 326 971" stroke="#2B1D14" stroke-width="2.04" stroke-opacity="0.27" fill="none" stroke-linecap="round"/><path d="M336 127 Q341 160 343 176 Q346 193 342 209 Q339 225 338 242 Q338 258 342 274 Q346 290 344 307 Q342 323 338 339 Q333 356 337 372 Q341 388 344 405 Q347 421 342 437 Q337 453 336 470 Q335 486 340 502 Q346 519 343 535 Q341 551 337 568 Q333 584 338 600 Q342 616 344 633 Q346 649 340 665 Q334 682 335 698 Q335 714 341 731 Q347 747 343 763 Q340 779 337 796 Q334 812 338 828 Q342 845 344 861 Q347 877 340 894 Q333 910 335 926 Q337 942 343 959 Q348 975 345 991 Q341 1008 337 1024" stroke="#2B1D14" stroke-width="0.73" stroke-opacity="0.67" fill="none" stroke-linecap="round"/><path d="M490 112 Q497 145 493 161 Q490 178 488 194 Q486 210 492 227 Q497 243 496 259 Q494 276 490 292 Q485 308 489 325 Q492 341 494 357 Q497 374 492 390 Q487 406 487 423 Q487 439 493 455 Q499 471 496 488 Q492 504 487 520 Q483 537 489 553 Q494 569 495 586 Q495 602 490 618 Q484 635 486 651 Q488 667 494 684 Q501 700 494 716 Q488 733 486 749 Q483 765 490 782 Q497 798 495 814 Q493 831 487 847 Q480 863 486 879 Q491 896 495 912 Q499 928 491 945 Q482 961 484 977 Q485 994 494 1010" stroke="#5A3E2B" stroke-width="1.42" stroke-opacity="0.57" fill="none" stroke-linecap="round"/><path d="M275 129 Q285 162 279 178 Q272 194 276 211 Q280 227 281 243 Q282 260 277 276 Q272 292 278 309 Q284 325 279 341 Q273 358 276 374 Q278 390 281 407 Q283 423 277 439 Q272 456 279 472 Q287 488 281 505 Q274 521 276 537 Q278 554 281 570 Q284 586 277 603 Q270 619 278 635 Q286 652 281 668 Q277 684 276 701 Q276 717 280 733 Q285 749 278 766 Q271 782 278 798 Q285 815 281 831 Q278 847 276 864 Q274 880 280 896 Q287 913 278 929 Q269 945 276 962 Q283 978 281 994 Q280 1011 276 1027" stroke="#5A3E2B" stroke-width="0.95" stroke-opacity="0.25" fill="none" stroke-linecap="round"/><path d="M587 128 Q573 154 579 167 Q585 180 582 193 Q580 206 576 219 Q572 232 580 245 Q589 258 581 271 Q573 284 578 297 Q583 310 582 323 Q580 336 577 349 Q575 362 583 375 Q591 388 581 401 Q570 414 578 427 Q586 440 582 453 Q579 466 576 479 Q572 492 581 505 Q590 518 579 531 Q568 544 577 557 Q586 570 583 583 Q580 596 576 609 Q572 622 582 635 Q592 648 581 661 Q569 674 577 687 Q586 700 582 713 Q578 726 576 739 Q573 752 582 765 Q591 778 580 791 Q568 804 578 817 Q588 830 583 843" stroke="#2B1D14" stroke-width="2.12" stroke-opacity="0.43" fill="none" stroke-linecap="round"/><path d="M230 117 Q219 150 224 166 Q229 183 227 199 Q226 216 224 232 Q223 249 226 266 Q229 282 225 299 Q221 315 223 332 Q225 348 227 365 Q229 381 224 398 Q219 414 225 431 Q232 447 228 464 Q223 480 223 497 Q222 513 227 530 Q231 546 225 563 Q219 579 223 596 Q227 612 228 629 Q229 645 223 662 Q218 678 225 695 Q232 711 227 728 Q223 744 221 761 Q220 777 227 794 Q234 810 226 827 Q219 843 223 860 Q226 876 228 893 Q229 909 223 926 Q217 942 224 959 Q232 975 227 992 Q223 1008 222 1025" stroke="#2B1D14" stroke-width="2.18" stroke-opacity="0.30" fill="none" stroke-linecap="round"/><path d="M390 109 Q397 142 398 158 Q400 175 393 192 Q387 208 395 225 Q402 242 396 258 Q389 275 393 291 Q397 308 398 325 Q400 341 393 358 Q385 374 395 391 Q404 408 398 424 Q391 441 394 457 Q397 474 399 491 Q401 507 394 524 Q386 540 395 557 Q404 574 397 590 Q389 607 391 623 Q394 640 398 657 Q401 673 393 690 Q384 707 394 723 Q405 740 398 756 Q391 773 393 790 Q395 806 399 823 Q403 839 393 856 Q384 873 395 889 Q406 906 398 922 Q390 939 391 956 Q392 972 398 989 Q403 1005 393 1022" stroke="#5A3E2B" stroke-width="1.61" stroke-opacity="0.58" fill="none" stroke-linecap="round"/><path d="M411 119 Q406 145 411 158 Q416 171 414 184 Q411 197 409 210 Q408 223 411 236 Q414 249 413 262 Q412 275 408 288 Q405 301 410 314 Q415 327 414 340 Q412 353 409 366 Q407 379 411 392 Q416 405 414 418 Q412 431 409 444 Q406 457 411 470 Q417 483 415 496 Q413 509 409 522 Q406 535 411 548 Q417 561 415 574 Q413 587 408 600 Q403 613 410 626 Q417 639 414 652 Q411 665 407 678 Q403 691 410 704 Q417 717 415 730 Q413 743 408 756 Q403 769 410 782 Q417 795 415 808 Q414 821 409 834" stroke="#2B1D14" stroke-width="1.92" stroke-opacity="0.60" fill="none" stroke-linecap="round"/><path d="M365 109 Q381 138 378 152 Q374 166 370 180 Q366 194 373 209 Q381 223 377 237 Q373 251 371 266 Q369 280 375 294 Q382 308 375 323 Q369 337 369 351 Q369 365 376 380 Q383 394 375 408 Q366 422 368 436 Q371 451 378 465 Q384 479 374 493 Q364 508 370 522 Q375 536 379 550 Q383 565 373 579 Q363 593 370 607 Q377 622 380 636 Q382 650 372 664 Q362 678 371 693 Q379 707 379 721 Q379 735 371 750 Q363 764 373 778 Q384 792 380 807 Q375 821 368 835 Q361 849 373 864 Q385 878 380 892" stroke="#2B1D14" stroke-width="1.79" stroke-opacity="0.82" fill="none" stroke-linecap="round"/><path d="M486 83 Q495 110 499 124 Q503 137 496 151 Q489 165 489 178 Q489 192 496 205 Q503 219 498 233 Q494 246 489 260 Q485 273 493 287 Q502 301 500 314 Q498 328 491 341 Q484 355 490 369 Q495 382 500 396 Q505 409 495 423 Q486 437 488 450 Q490 464 497 477 Q505 491 497 504 Q489 518 488 532 Q486 545 495 559 Q505 572 501 586 Q497 600 489 613 Q482 627 491 640 Q500 654 501 668 Q503 681 492 695 Q482 708 488 722 Q495 736 501 749 Q507 763 496 776 Q484 790 485 804 Q486 817 496 831" stroke="#2B1D14" stroke-width="1.52" stroke-opacity="0.51" fill="none" stroke-linecap="round"/><path d="M221 102 Q230 135 224 152 Q218 169 217 185 Q217 202 223 219 Q230 236 226 252 Q223 269 219 286 Q215 303 222 319 Q228 336 228 353 Q228 370 221 386 Q215 403 219 420 Q223 436 226 453 Q230 470 222 487 Q214 503 216 520 Q218 537 226 554 Q233 570 226 587 Q220 604 216 621 Q213 637 222 654 Q231 671 228 688 Q224 704 219 721 Q213 738 221 755 Q229 771 229 788 Q229 805 220 822 Q212 838 217 855 Q222 872 227 889 Q232 905 224 922 Q215 939 216 956 Q216 972 225 989 Q235 1006 228 1023" stroke="#5A3E2B" stroke-width="2.03" stroke-opacity="0.61" fill="none" stroke-linecap="round"/><path d="M595 120 Q592 152 600 168 Q608 184 601 200 Q594 216 593 231 Q593 247 601 263 Q609 279 600 295 Q591 311 593 327 Q595 343 602 359 Q609 375 600 390 Q590 406 594 422 Q599 438 603 454 Q607 470 598 486 Q588 502 595 518 Q601 533 604 549 Q607 565 597 581 Q587 597 594 613 Q601 629 604 645 Q607 661 595 676 Q584 692 594 708 Q604 724 604 740 Q604 756 594 772 Q584 788 595 804 Q606 819 604 835 Q603 851 594 867 Q585 883 597 899 Q609 915 605 931 Q601 947 592 962 Q583 978 597 994" stroke="#5A3E2B" stroke-width="1.17" stroke-opacity="0.53" fill="none" stroke-linecap="round"/><path d="M528 95 Q520 121 519 135 Q517 148 523 161 Q529 175 522 188 Q514 201 518 215 Q522 228 525 241 Q527 255 520 268 Q512 281 519 295 Q526 308 524 322 Q522 335 518 348 Q514 362 521 375 Q529 388 523 402 Q517 415 517 428 Q517 442 524 455 Q530 468 521 482 Q512 495 519 508 Q526 522 525 535 Q525 548 517 562 Q509 575 520 589 Q530 602 525 615 Q519 629 518 642 Q516 655 525 669 Q533 682 523 695 Q512 709 516 722 Q520 735 525 749 Q530 762 520 775 Q510 789 519 802 Q528 815 525 829" stroke="#2B1D14" stroke-width="1.97" stroke-opacity="0.33" fill="none" stroke-linecap="round"/><path d="M441 104 Q452 135 446 151 Q440 166 442 182 Q445 198 447 213 Q448 229 444 244 Q439 260 446 275 Q453 291 447 306 Q442 322 443 337 Q445 353 449 368 Q452 384 445 399 Q437 415 444 430 Q452 446 447 461 Q443 477 443 492 Q442 508 447 523 Q452 539 445 554 Q437 570 442 585 Q448 601 448 616 Q447 632 443 647 Q438 663 446 679 Q454 694 446 710 Q438 725 442 741 Q445 756 448 772 Q450 787 444 803 Q438 818 445 834 Q453 849 447 865 Q441 880 443 896 Q444 911 448 927 Q452 942 443 958" stroke="#2B1D14" stroke-width="1.82" stroke-opacity="0.26" fill="none" stroke-linecap="round"/><path d="M311 97 Q318 125 320 139 Q323 153 317 167 Q310 181 315 195 Q320 209 322 223 Q323 237 315 251 Q308 265 315 279 Q322 293 321 307 Q320 321 314 335 Q308 349 317 363 Q326 377 321 391 Q317 405 314 420 Q310 434 318 448 Q327 462 321 476 Q315 490 313 504 Q310 518 318 532 Q326 546 319 560 Q312 574 312 588 Q313 602 321 616 Q329 630 319 644 Q309 658 312 672 Q315 686 321 700 Q328 714 318 728 Q308 742 313 756 Q318 770 322 784 Q327 798 316 812 Q305 826 313 840 Q321 854 322 868" stroke="#2B1D14" stroke-width="1.53" stroke-opacity="0.75" fill="none" stroke-linecap="round"/><path d="M208 87 Q209 112 203 125 Q197 138 199 151 Q200 164 205 176 Q210 189 208 202 Q207 215 202 228 Q197 240 200 253 Q204 266 207 279 Q211 292 205 304 Q200 317 198 330 Q197 343 203 355 Q209 368 209 381 Q210 394 203 407 Q197 419 199 432 Q200 445 206 458 Q212 471 208 483 Q203 496 198 509 Q193 522 199 535 Q205 547 209 560 Q213 573 205 586 Q197 599 196 611 Q194 624 203 637 Q212 650 210 663 Q209 675 202 688 Q194 701 197 714 Q200 727 207 739 Q214 752 209 765 Q203 778 198 791" stroke="#2B1D14" stroke-width="1.55" stroke-opacity="0.76" fill="none" stroke-linecap="round"/><path d="M549 112 Q532 139 540 152 Q548 165 550 179 Q551 192 542 205 Q533 218 539 231 Q545 245 549 258 Q553 271 543 284 Q533 298 538 311 Q543 324 549 337 Q555 350 545 364 Q535 377 538 390 Q541 403 548 417 Q555 430 546 443 Q538 456 538 469 Q537 483 547 496 Q557 509 548 522 Q538 536 536 549 Q535 562 546 575 Q557 588 549 602 Q542 615 536 628 Q530 641 543 655 Q556 668 550 681 Q545 694 537 707 Q529 721 542 734 Q555 747 552 760 Q549 774 539 787 Q529 800 541 813 Q552 827 552 840" stroke="#2B1D14" stroke-width="2.10" stroke-opacity="0.44" fill="none" stroke-linecap="round"/><path d="M197 86 Q189 113 189 126 Q189 139 193 152 Q198 166 192 179 Q185 192 190 205 Q194 218 195 232 Q196 245 191 258 Q186 271 192 284 Q198 298 194 311 Q191 324 189 337 Q187 350 192 364 Q197 377 192 390 Q187 403 188 416 Q188 430 192 443 Q197 456 190 469 Q184 483 189 496 Q193 509 194 522 Q194 535 188 549 Q183 562 190 575 Q197 588 194 601 Q190 615 188 628 Q185 641 193 654 Q201 667 192 681 Q184 694 187 707 Q190 720 194 733 Q198 747 190 760 Q182 773 189 786 Q195 799 195 813" stroke="#2B1D14" stroke-width="2.05" stroke-opacity="0.63" fill="none" stroke-linecap="round"/><path d="M332 111 Q324 141 327 155 Q330 170 331 185 Q331 200 329 214 Q326 229 329 244 Q332 258 331 273 Q331 288 328 303 Q325 317 330 332 Q334 347 332 361 Q330 376 327 391 Q324 405 329 420 Q334 435 331 450 Q328 464 326 479 Q324 494 329 508 Q334 523 332 538 Q329 553 327 567 Q325 582 331 597 Q337 611 332 626 Q327 641 326 655 Q326 670 331 685 Q335 700 330 714 Q324 729 325 744 Q327 758 331 773 Q335 788 330 803 Q325 817 327 832 Q329 847 333 861 Q337 876 329 891 Q322 905 327 920" stroke="#2B1D14" stroke-width="2.16" stroke-opacity="0.85" fill="none" stroke-linecap="round"/><path d="M194 85 Q190 112 185 126 Q181 139 184 153 Q188 166 192 180 Q196 193 191 207 Q187 220 185 233 Q182 247 188 260 Q195 274 195 287 Q196 301 189 314 Q182 328 182 341 Q183 355 189 368 Q195 382 194 395 Q192 409 186 422 Q180 436 183 449 Q187 463 193 476 Q199 490 193 503 Q187 517 184 530 Q180 544 186 557 Q192 571 195 584 Q199 598 191 611 Q183 625 182 638 Q181 652 190 665 Q198 679 197 692 Q195 706 187 719 Q180 733 183 746 Q187 760 194 773 Q200 787 195 800 Q189 814 183 827" stroke="#5A3E2B" stroke-width="0.70" stroke-opacity="0.75" fill="none" stroke-linecap="round"/><path d="M230 87 Q224 121 223 137 Q221 154 226 171 Q231 188 226 204 Q221 221 221 238 Q222 255 225 271 Q229 288 223 305 Q217 322 221 338 Q226 355 227 372 Q229 388 223 405 Q218 422 225 439 Q231 455 227 472 Q223 489 221 506 Q219 522 225 539 Q231 556 226 573 Q221 589 221 606 Q221 623 227 639 Q232 656 224 673 Q216 690 220 706 Q225 723 228 740 Q231 757 222 773 Q214 790 222 807 Q229 824 227 840 Q226 857 221 874 Q217 890 225 907 Q233 924 227 941 Q221 957 220 974 Q220 991 226 1008" stroke="#5A3E2B" stroke-width="1.73" stroke-opacity="0.58" fill="none" stroke-linecap="round"/><path d="M561 117 Q568 143 562 157 Q556 170 561 183 Q567 196 564 210 Q561 223 560 236 Q560 249 564 263 Q567 276 562 289 Q556 302 562 316 Q567 329 566 342 Q565 355 561 369 Q557 382 563 395 Q569 408 563 422 Q558 435 560 448 Q563 461 565 475 Q567 488 561 501 Q556 514 563 528 Q570 541 564 554 Q558 568 560 581 Q562 594 566 607 Q570 621 562 634 Q554 647 561 660 Q568 674 564 687 Q560 700 558 713 Q557 727 564 740 Q570 753 562 766 Q553 780 560 793 Q567 806 565 819 Q563 833 559 846" stroke="#2B1D14" stroke-width="2.20" stroke-opacity="0.72" fill="none" stroke-linecap="round"/><path d="M497 120 Q504 149 502 164 Q500 179 497 194 Q494 209 497 224 Q501 238 503 253 Q504 268 501 283 Q498 298 496 313 Q494 327 499 342 Q503 357 503 372 Q503 387 499 401 Q496 416 496 431 Q496 446 500 461 Q505 476 504 490 Q503 505 499 520 Q495 535 497 550 Q500 564 503 579 Q506 594 503 609 Q499 624 496 639 Q494 653 498 668 Q502 683 504 698 Q507 713 502 728 Q496 742 495 757 Q493 772 499 787 Q506 802 505 816 Q505 831 499 846 Q493 861 495 876 Q497 891 502 905 Q506 920 504 935" stroke="#2B1D14" stroke-width="1.41" stroke-opacity="0.78" fill="none" stroke-linecap="round"/><path d="M447 104 Q461 136 452 152 Q444 169 450 185 Q457 201 455 217 Q453 234 448 250 Q443 266 452 282 Q462 299 452 315 Q442 331 448 347 Q454 364 456 380 Q458 396 450 412 Q442 428 452 445 Q463 461 455 477 Q447 493 448 510 Q449 526 454 542 Q459 558 449 575 Q438 591 449 607 Q460 623 455 640 Q449 656 448 672 Q447 688 455 705 Q463 721 450 737 Q438 753 449 769 Q460 786 456 802 Q451 818 447 834 Q442 851 454 867 Q466 883 453 899 Q440 916 447 932 Q454 948 456 964 Q458 981 448 997" stroke="#2B1D14" stroke-width="0.75" stroke-opacity="0.44" fill="none" stroke-linecap="round"/><path d="M408 128 Q415 161 414 178 Q413 194 409 211 Q405 228 410 244 Q415 261 414 278 Q413 294 409 311 Q404 328 409 344 Q413 361 414 378 Q414 394 410 411 Q407 428 409 444 Q412 461 413 478 Q415 494 411 511 Q406 528 407 544 Q409 561 413 578 Q417 594 412 611 Q407 628 407 644 Q407 661 413 678 Q419 694 415 711 Q411 728 408 744 Q404 761 411 778 Q418 794 415 811 Q411 828 407 844 Q403 861 409 878 Q415 894 414 911 Q413 928 409 945 Q404 961 409 978 Q414 995 416 1011 Q417 1028 410 1045" stroke="#5A3E2B" stroke-width="1.91" stroke-opacity="0.56" fill="none" stroke-linecap="round"/><path d="M289 102 Q281 136 284 152 Q287 169 289 186 Q291 203 286 219 Q281 236 282 253 Q283 270 288 286 Q293 303 290 320 Q287 337 283 353 Q279 370 285 387 Q291 403 292 420 Q292 437 286 454 Q280 470 282 487 Q285 504 289 521 Q293 537 289 554 Q285 571 282 588 Q280 604 286 621 Q293 638 292 655 Q292 671 285 688 Q278 705 282 722 Q286 738 290 755 Q294 772 290 788 Q285 805 282 822 Q278 839 286 855 Q294 872 293 889 Q292 906 284 922 Q277 939 282 956 Q287 973 292 989 Q296 1006 289 1023" stroke="#5A3E2B" stroke-width="0.78" stroke-opacity="0.25" fill="none" stroke-linecap="round"/><path d="M444 107 Q438 135 442 149 Q445 163 443 178 Q441 192 441 206 Q441 220 444 234 Q447 248 442 262 Q437 276 442 290 Q446 304 445 318 Q443 332 441 346 Q440 360 444 374 Q448 389 443 403 Q437 417 441 431 Q445 445 444 459 Q444 473 442 487 Q439 501 444 515 Q449 529 443 543 Q436 557 440 571 Q443 585 443 600 Q444 614 441 628 Q438 642 443 656 Q448 670 443 684 Q438 698 441 712 Q445 726 444 740 Q444 754 440 768 Q437 782 443 796 Q449 811 444 825 Q439 839 440 853 Q441 867 443 881" stroke="#2B1D14" stroke-width="1.80" stroke-opacity="0.46" fill="none" stroke-linecap="round"/><path d="M588 90 Q595 117 588 131 Q581 145 584 158 Q586 172 591 186 Q596 200 589 213 Q582 227 585 241 Q587 255 591 268 Q595 282 588 296 Q581 310 582 323 Q584 337 590 351 Q596 365 589 379 Q581 392 583 406 Q585 420 592 434 Q599 447 591 461 Q582 475 583 489 Q583 502 591 516 Q599 530 592 544 Q585 557 584 571 Q583 585 591 599 Q599 612 592 626 Q584 640 582 654 Q580 667 590 681 Q600 695 593 709 Q586 722 583 736 Q579 750 589 764 Q598 777 593 791 Q587 805 583 819 Q580 832 589 846" stroke="#2B1D14" stroke-width="0.99" stroke-opacity="0.35" fill="none" stroke-linecap="round"/><path d="M443 116 Q431 145 432 160 Q434 174 439 189 Q444 203 440 218 Q435 232 432 247 Q430 262 437 276 Q445 291 444 305 Q443 320 435 334 Q427 349 433 364 Q438 378 443 393 Q448 407 439 422 Q431 436 432 451 Q433 465 441 480 Q448 495 442 509 Q435 524 431 538 Q427 553 436 567 Q445 582 444 596 Q443 611 435 626 Q427 640 433 655 Q439 669 443 684 Q447 698 439 713 Q431 728 431 742 Q431 757 441 771 Q450 786 443 800 Q437 815 431 829 Q426 844 435 859 Q444 873 445 888 Q446 902 435 917" stroke="#5A3E2B" stroke-width="1.46" stroke-opacity="0.27" fill="none" stroke-linecap="round"/><path d="M561 129 Q576 161 568 178 Q560 194 564 211 Q568 227 571 243 Q574 260 566 276 Q557 293 567 309 Q576 325 572 342 Q569 358 564 374 Q559 391 568 407 Q577 424 568 440 Q560 456 562 473 Q564 489 571 506 Q578 522 567 538 Q556 555 565 571 Q573 588 572 604 Q570 620 563 637 Q556 653 568 670 Q580 686 571 702 Q562 719 562 735 Q562 751 571 768 Q579 784 566 801 Q554 817 561 833 Q569 850 572 866 Q575 883 564 899 Q553 915 566 932 Q579 948 573 965 Q567 981 562 997 Q557 1014 570 1030" stroke="#2B1D14" stroke-width="0.96" stroke-opacity="0.33" fill="none" stroke-linecap="round"/><path d="M265 122 Q254 154 261 171 Q268 187 268 203 Q269 219 261 235 Q254 252 258 268 Q263 284 267 300 Q271 316 264 333 Q257 349 257 365 Q257 381 264 397 Q272 414 267 430 Q263 446 258 462 Q253 478 261 494 Q269 511 268 527 Q268 543 261 559 Q253 575 259 592 Q264 608 269 624 Q273 640 265 656 Q256 673 257 689 Q259 705 267 721 Q274 737 268 754 Q262 770 258 786 Q253 802 263 818 Q273 835 270 851 Q266 867 259 883 Q251 899 259 915 Q267 932 271 948 Q274 964 263 980 Q252 996 256 1013" stroke="#2B1D14" stroke-width="1.03" stroke-opacity="0.73" fill="none" stroke-linecap="round"/><path d="M594 112 Q580 139 582 152 Q584 165 590 179 Q595 192 587 206 Q578 219 581 232 Q583 246 589 259 Q595 272 587 286 Q578 299 580 312 Q583 326 589 339 Q595 352 587 366 Q579 379 581 392 Q584 406 590 419 Q596 433 588 446 Q579 459 580 473 Q582 486 590 499 Q597 513 588 526 Q578 539 580 553 Q582 566 590 579 Q597 593 587 606 Q578 620 580 633 Q583 646 590 660 Q597 673 587 686 Q578 700 580 713 Q583 726 592 740 Q600 753 587 766 Q575 780 578 793 Q582 807 590 820 Q599 833 587 847" stroke="#2B1D14" stroke-width="2.16" stroke-opacity="0.39" fill="none" stroke-linecap="round"/><path d="M516 102 Q527 128 525 142 Q522 155 519 168 Q515 181 519 194 Q523 208 524 221 Q526 234 521 247 Q515 261 517 274 Q519 287 523 300 Q526 314 524 327 Q521 340 517 353 Q514 366 519 380 Q525 393 524 406 Q524 419 519 433 Q514 446 517 459 Q521 472 525 486 Q528 499 523 512 Q518 525 516 538 Q515 552 521 565 Q527 578 525 591 Q523 605 517 618 Q512 631 517 644 Q523 658 525 671 Q527 684 521 697 Q515 710 516 724 Q517 737 524 750 Q530 763 525 777 Q520 790 516 803 Q512 816 519 830" stroke="#5A3E2B" stroke-width="0.85" stroke-opacity="0.27" fill="none" stroke-linecap="round"/><path d="M346 104 Q335 137 335 153 Q334 169 339 185 Q344 202 338 218 Q333 234 333 250 Q334 267 340 283 Q346 299 340 315 Q334 332 333 348 Q333 364 340 380 Q348 397 341 413 Q333 429 334 445 Q335 462 341 478 Q347 494 339 510 Q330 527 332 543 Q334 559 341 575 Q349 592 339 608 Q330 624 333 640 Q336 657 342 673 Q347 689 339 705 Q330 722 334 738 Q337 754 341 770 Q346 786 338 803 Q329 819 334 835 Q338 851 343 868 Q349 884 339 900 Q329 916 334 933 Q339 949 343 965 Q348 981 338 998" stroke="#2B1D14" stroke-width="1.09" stroke-opacity="0.69" fill="none" stroke-linecap="round"/><rect width="800" height="1000" fill="url(#v)"/>
<g transform="translate(704 904) scale(0.3076923076923077) translate(-20 -20)" opacity="0.9">
<path fill="#B0925C" d="M34 30H58V33C54 34 53 36 53 40V160C53 164 54 166 58 167V170H34V167C38 166 39 164 39 160V40C39 36 38 34 34 33Z"/>
<path fill="#B0925C" d="M142 30H166V33C162 34 161 36 161 40V160C161 164 162 166 166 167V170H142V167C146 166 147 164 147 160V40C147 36 146 34 142 33Z"/>
<path fill="#B0925C" d="M160 60C168 62 172 70 171 80L171 84C172 88 176 92 177 96C176 98 173 99 172 100C173 103 172 105 171 106C173 108 172 111 170 112C170 116 168 120 164 121C162 122 161 126 160 132Z"/>
<g fill="none" stroke="#B0925C" stroke-linecap="round"><path stroke-width="4" d="M149 72C132 64 116 71 104 83C94 93 80 98 68 92C62 89 62 82 68 80"/><path stroke-width="5" d="M149 90C130 84 114 95 100 105C86 115 70 116 53 108"/><path stroke-width="3.5" d="M149 106C134 104 122 115 112 127C104 137 92 141 82 135C76 131 78 124 85 124"/><path stroke-width="3" d="M149 118C140 130 137 143 145 150"/></g></g>
</svg>